<?xml version="1.0" encoding="utf-8"?>
<svg version="1.1" xmlns:xlink="http://www.w3.org/1999/xlink" width="227px" height="253px" xmlns="http://www.w3.org/2000/svg">
  <g transform="matrix(1 0 0 1 -544 -150 )">
    <path d="M 544 150  L 771 150  L 771 403  L 544 403  L 544 150  " fill-rule="nonzero" fill="#cccccc" stroke="none" />
    <path d="M 560 166  L 755 166  L 755 387  L 560 387  L 560 166  " fill-rule="nonzero" fill="#ffffff" stroke="none" />
    <path d="M 679.065 222  C 669.531 222  662.04 214.509  662.04 204.975  C 662.04 195.441  669.531 187.95  679.065 187.95  C 688.599 187.95  696.09 195.441  696.09 204.975  C 696.09 214.509  688.599 222  679.065 222  " fill-rule="nonzero" fill="#cccccc" stroke="none" />
    <path d="M 566 382  L 566 266.5  L 612 214  L 676.4 256  L 713.2 245.5  L 750 256  L 750 382  L 566 382  " fill-rule="nonzero" fill="#169bd5" stroke="none" />
  </g>
</svg>