<?xml version="1.0" encoding="utf-8"?>
<svg version="1.1" xmlns:xlink="http://www.w3.org/1999/xlink" width="32px" height="36px" xmlns="http://www.w3.org/2000/svg">
  <g transform="matrix(1 0 0 1 -446 -508 )">
    <path d="M 2.46153846153846 27.6428571428571  L 2.46153846153846 33.4285714285714  L 8 33.4285714285714  L 8 27.6428571428571  L 2.46153846153846 27.6428571428571  Z M 9.23076923076923 27.6428571428571  L 9.23076923076923 33.4285714285714  L 15.3846153846154 33.4285714285714  L 15.3846153846154 27.6428571428571  L 9.23076923076923 27.6428571428571  Z M 2.46153846153846 19.9285714285714  L 2.46153846153846 26.3571428571429  L 8 26.3571428571429  L 8 19.9285714285714  L 2.46153846153846 19.9285714285714  Z M 9.23076923076923 19.9285714285714  L 9.23076923076923 26.3571428571429  L 15.3846153846154 26.3571428571429  L 15.3846153846154 19.9285714285714  L 9.23076923076923 19.9285714285714  Z M 2.46153846153846 12.8571428571429  L 2.46153846153846 18.6428571428571  L 8 18.6428571428571  L 8 12.8571428571429  L 2.46153846153846 12.8571428571429  Z M 16.6153846153846 27.6428571428571  L 16.6153846153846 33.4285714285714  L 22.7692307692308 33.4285714285714  L 22.7692307692308 27.6428571428571  L 16.6153846153846 27.6428571428571  Z M 9.23076923076923 12.8571428571429  L 9.23076923076923 18.6428571428571  L 15.3846153846154 18.6428571428571  L 15.3846153846154 12.8571428571429  L 9.23076923076923 12.8571428571429  Z M 24 27.6428571428571  L 24 33.4285714285714  L 29.5384615384615 33.4285714285714  L 29.5384615384615 27.6428571428571  L 24 27.6428571428571  Z M 16.6153846153846 19.9285714285714  L 16.6153846153846 26.3571428571429  L 22.7692307692308 26.3571428571429  L 22.7692307692308 19.9285714285714  L 16.6153846153846 19.9285714285714  Z M 9.66346153846154 9.45200892857143  C 9.78525641025641 9.32477678571428  9.84615384615385 9.17410714285714  9.84615384615385 9  L 9.84615384615385 3.21428571428571  C 9.84615384615385 3.04017857142857  9.78525641025641 2.88950892857143  9.66346153846154 2.76227678571429  C 9.54166666666667 2.63504464285714  9.3974358974359 2.57142857142857  9.23076923076923 2.57142857142857  L 8 2.57142857142857  C 7.83333333333333 2.57142857142857  7.68910256410256 2.63504464285714  7.56730769230769 2.76227678571429  C 7.44551282051282 2.88950892857143  7.38461538461539 3.04017857142857  7.38461538461539 3.21428571428571  L 7.38461538461539 9  C 7.38461538461539 9.17410714285714  7.44551282051282 9.32477678571428  7.56730769230769 9.45200892857143  C 7.68910256410256 9.57924107142857  7.83333333333333 9.64285714285714  8 9.64285714285714  L 9.23076923076923 9.64285714285714  C 9.3974358974359 9.64285714285714  9.54166666666667 9.57924107142857  9.66346153846154 9.45200892857143  Z M 24 19.9285714285714  L 24 26.3571428571429  L 29.5384615384615 26.3571428571429  L 29.5384615384615 19.9285714285714  L 24 19.9285714285714  Z M 16.6153846153846 12.8571428571429  L 16.6153846153846 18.6428571428571  L 22.7692307692308 18.6428571428571  L 22.7692307692308 12.8571428571429  L 16.6153846153846 12.8571428571429  Z M 24 12.8571428571429  L 24 18.6428571428571  L 29.5384615384615 18.6428571428571  L 29.5384615384615 12.8571428571429  L 24 12.8571428571429  Z M 24.4326923076923 9.45200892857143  C 24.5544871794872 9.32477678571428  24.6153846153846 9.17410714285714  24.6153846153846 9  L 24.6153846153846 3.21428571428571  C 24.6153846153846 3.04017857142857  24.5544871794872 2.88950892857143  24.4326923076923 2.76227678571429  C 24.3108974358974 2.63504464285714  24.1666666666667 2.57142857142857  24 2.57142857142857  L 22.7692307692308 2.57142857142857  C 22.6025641025641 2.57142857142857  22.4583333333333 2.63504464285714  22.3365384615385 2.76227678571429  C 22.2147435897436 2.88950892857143  22.1538461538462 3.04017857142857  22.1538461538462 3.21428571428571  L 22.1538461538462 9  C 22.1538461538462 9.17410714285714  22.2147435897436 9.32477678571428  22.3365384615385 9.45200892857143  C 22.4583333333333 9.57924107142857  22.6025641025641 9.64285714285714  22.7692307692308 9.64285714285714  L 24 9.64285714285714  C 24.1666666666667 9.64285714285714  24.3108974358974 9.57924107142857  24.4326923076923 9.45200892857143  Z M 31.2692307692308 5.90625  C 31.7564102564103 6.41517857142857  32 7.01785714285714  32 7.71428571428572  L 32 33.4285714285714  C 32 34.125  31.7564102564103 34.7276785714286  31.2692307692308 35.2366071428571  C 30.7820512820513 35.7455357142857  30.2051282051282 36  29.5384615384615 36  L 2.46153846153846 36  C 1.7948717948718 36  1.21794871794872 35.7455357142857  0.730769230769231 35.2366071428571  C 0.243589743589744 34.7276785714286  0 34.125  0 33.4285714285714  L 0 7.71428571428572  C 0 7.01785714285714  0.243589743589744 6.41517857142857  0.730769230769231 5.90625  C 1.21794871794872 5.39732142857142  1.7948717948718 5.14285714285714  2.46153846153846 5.14285714285714  L 4.92307692307692 5.14285714285714  L 4.92307692307692 3.21428571428571  C 4.92307692307692 2.33035714285714  5.22435897435897 1.57366071428571  5.82692307692308 0.94419642857143  C 6.42948717948718 0.314732142857143  7.15384615384615 0  8 0  L 9.23076923076923 0  C 10.0769230769231 0  10.8012820512821 0.314732142857143  11.4038461538462 0.94419642857143  C 12.0064102564103 1.57366071428571  12.3076923076923 2.33035714285714  12.3076923076923 3.21428571428571  L 12.3076923076923 5.14285714285714  L 19.6923076923077 5.14285714285714  L 19.6923076923077 3.21428571428571  C 19.6923076923077 2.33035714285714  19.9935897435897 1.57366071428571  20.5961538461538 0.94419642857143  C 21.198717948718 0.314732142857143  21.9230769230769 0  22.7692307692308 0  L 24 0  C 24.8461538461538 0  25.5705128205128 0.314732142857143  26.1730769230769 0.94419642857143  C 26.775641025641 1.57366071428571  27.0769230769231 2.33035714285714  27.0769230769231 3.21428571428571  L 27.0769230769231 5.14285714285714  L 29.5384615384615 5.14285714285714  C 30.2051282051282 5.14285714285714  30.7820512820513 5.39732142857142  31.2692307692308 5.90625  Z " fill-rule="nonzero" fill="#000000" stroke="none" transform="matrix(1 0 0 1 446 508 )" />
  </g>
</svg>