<?xml version="1.0" encoding="utf-8"?>
<svg version="1.1" xmlns:xlink="http://www.w3.org/1999/xlink" width="36px" height="33px" xmlns="http://www.w3.org/2000/svg">
  <g transform="matrix(1 0 0 1 -21 -915 )">
    <path d="M 30.265625 14.544921875  L 30.859375 18.51953125  L 28.703125 18.51953125  C 28.8489583333333 17.9895833333333  29.1927083333333 16.7076822916667  29.734375 14.673828125  L 29.78125 14.48046875  C 29.8229166666667 14.3372395833333  29.875 14.1510416666667  29.9375 13.921875  C 30 13.6927083333333  30.046875 13.5065104166667  30.078125 13.36328125  L 30.265625 14.544921875  Z M 2 9.904296875  C 5.23958333333333 11.0358072916667  7.33854166666667 13.4420572916667  8.296875 17.123046875  L 7.390625 10.78515625  C 7.27604166666667 10.01171875  6.88541666666667 9.625  6.21875 9.625  L 2.03125 9.625  L 2 9.904296875  Z M 13.84375 9.625  L 11.09375 9.625  L 8.5625 19.03515625  L 8.296875 17.123046875  C 8.02604166666667 16.1204427083333  7.58333333333333 15.1930338541667  6.96875 14.3408203125  C 6.35416666666667 13.4886067708333  5.671875 12.8548177083333  4.921875 12.439453125  L 7.03125 23.396484375  L 9.765625 23.396484375  L 13.84375 9.625  Z M 14.890625 9.625  L 13.265625 23.41796875  L 15.859375 23.41796875  L 17.484375 9.625  L 14.890625 9.625  Z M 24.90625 12.955078125  L 25.265625 9.96875  C 24.546875 9.58203125  23.7708333333333 9.388671875  22.9375 9.388671875  C 21.65625 9.388671875  20.609375 9.81119791666666  19.796875 10.65625  C 18.984375 11.5013020833333  18.5729166666667 12.5970052083333  18.5625 13.943359375  C 18.5520833333333 15.404296875  19.3072916666667 16.650390625  20.828125 17.681640625  C 21.328125 18.0110677083333  21.6770833333333 18.3046875  21.875 18.5625  C 22.0729166666667 18.8203125  22.171875 19.099609375  22.171875 19.400390625  C 22.171875 19.830078125  22.015625 20.1595052083333  21.703125 20.388671875  C 21.390625 20.6178385416667  21.03125 20.732421875  20.625 20.732421875  C 19.7291666666667 20.732421875  18.9166666666667 20.49609375  18.1875 20.0234375  L 17.84375 19.787109375  L 17.484375 22.880859375  C 18.2552083333333 23.3678385416667  19.21875 23.611328125  20.375 23.611328125  C 21.7291666666667 23.6256510416667  22.8151041666667 23.203125  23.6328125 22.34375  C 24.4505208333333 21.484375  24.8697916666667 20.3385416666667  24.890625 18.90625  C 24.890625 17.3880208333333  24.1614583333333 16.1419270833333  22.703125 15.16796875  C 22.1927083333333 14.8098958333333  21.8229166666667 14.5091145833333  21.59375 14.265625  C 21.3645833333333 14.0221354166667  21.25 13.75  21.25 13.44921875  C 21.25 13.1341145833333  21.3776041666667 12.8583984375  21.6328125 12.6220703125  C 21.8880208333333 12.3857421875  22.2552083333333 12.267578125  22.734375 12.267578125  C 23.4635416666667 12.2532552083333  24.109375 12.4251302083333  24.671875 12.783203125  L 24.90625 12.955078125  Z M 34 23.41796875  L 31.90625 9.625  L 29.90625 9.625  C 29.2291666666667 9.625  28.7760416666667 10.01171875  28.546875 10.78515625  L 24.703125 23.41796875  L 27.421875 23.41796875  L 27.96875 21.35546875  L 31.28125 21.35546875  C 31.3333333333333 21.6705729166667  31.4375 22.3580729166667  31.59375 23.41796875  L 34 23.41796875  Z M 35.40625 0.816406250000001  C 35.8020833333333 1.36067708333333  36 2.00520833333333  36 2.75  L 36 30.25  C 36 30.9947916666667  35.8020833333333 31.6393229166667  35.40625 32.18359375  C 35.0104166666667 32.7278645833333  34.5416666666667 33  34 33  L 2 33  C 1.45833333333333 33  0.989583333333333 32.7278645833333  0.59375 32.18359375  C 0.197916666666667 31.6393229166667  0 30.9947916666667  0 30.25  L 0 2.75  C 0 2.00520833333333  0.197916666666667 1.36067708333333  0.59375 0.816406250000001  C 0.989583333333333 0.272135416666663  1.45833333333333 0  2 0  L 34 0  C 34.5416666666667 0  35.0104166666667 0.272135416666663  35.40625 0.816406250000001  Z " fill-rule="nonzero" fill="#000000" stroke="none" transform="matrix(1 0 0 1 21 915 )" />
  </g>
</svg>