<?xml version="1.0" encoding="utf-8"?>
<svg version="1.1" xmlns:xlink="http://www.w3.org/1999/xlink" width="51px" height="65px" xmlns="http://www.w3.org/2000/svg">
  <g transform="matrix(1 0 0 1 -335 -217 )">
    <path d="M 4 49.9107142857143  L 4 60.3571428571429  L 13 60.3571428571429  L 13 49.9107142857143  L 4 49.9107142857143  Z M 15 50  L 15 60.3571428571429  L 25 60.3571428571429  L 25 50  L 15 50  Z M 4 35.9821428571429  L 4 47.5892857142857  L 13 47.5892857142857  L 13 35.9821428571429  L 4 35.9821428571429  Z M 15 36  L 15 47.5892857142857  L 25 47.5892857142857  L 25 36  L 15 36  Z M 4 23.2142857142857  L 4 33.6607142857143  L 13 33.6607142857143  L 13 23.2142857142857  L 4 23.2142857142857  Z M 26 50  L 26 60  L 36 60  L 36 50  L 26 50  Z M 15 24  L 15 33.6607142857143  L 25 33.6607142857143  L 25 24  L 15 24  Z M 38 49.9107142857143  L 38 60.3571428571429  L 47 60.3571428571429  L 47 49.9107142857143  L 38 49.9107142857143  Z M 26 36  L 26 47  L 36 47  L 36 36  L 26 36  Z M 15.4011418269231 17.0661272321429  C 15.5952524038462 16.8364025297619  15.6923076923077 16.5643601190476  16 16.25  L 16 5.80357142857143  C 15.6923076923077 5.48921130952381  15.5952524038462 5.21716889880952  15.4011418269231 4.98744419642857  C 15.20703125 4.75771949404761  14.9771634615385 4.64285714285714  14.7115384615385 4.64285714285714  L 12.75 4.64285714285714  C 12.484375 4.64285714285714  12.2545072115385 4.75771949404761  12.0603966346154 4.98744419642857  C 11.8662860576923 5.21716889880952  11.7692307692308 5.48921130952381  12 5.80357142857143  L 12 16.25  C 11.7692307692308 16.5643601190476  11.8662860576923 16.8364025297619  12.0603966346154 17.0661272321429  C 12.2545072115385 17.2958519345238  12.484375 17.4107142857143  12.75 17.4107142857143  L 14.7115384615385 17.4107142857143  C 14.9771634615385 17.4107142857143  15.20703125 17.2958519345238  15.4011418269231 17.0661272321429  Z M 38 35.9821428571429  L 38 47.5892857142857  L 47 47.5892857142857  L 47 35.9821428571429  L 38 35.9821428571429  Z M 26 24  L 26 33  L 36.2884615384615 33  L 36.2884615384615 24  L 26 24  Z M 38 23.2142857142857  L 38 33.6607142857143  L 47 33.6607142857143  L 47 23.2142857142857  L 38 23.2142857142857  Z M 38.9396033653846 17.0661272321429  C 39.1337139423077 16.8364025297619  39.2307692307692 16.5643601190476  39 16.25  L 39 5.80357142857143  C 39.2307692307692 5.48921130952381  39.1337139423077 5.21716889880952  38.9396033653846 4.98744419642857  C 38.7454927884615 4.75771949404761  38.515625 4.64285714285714  38.25 4.64285714285714  L 36.2884615384615 4.64285714285714  C 36.0228365384615 4.64285714285714  35.79296875 4.75771949404761  35.5988581730769 4.98744419642857  C 35.4047475961538 5.21716889880952  35.3076923076923 5.48921130952381  35 5.80357142857143  L 35 16.25  C 35.3076923076923 16.5643601190476  35.4047475961538 16.8364025297619  35.5988581730769 17.0661272321429  C 35.79296875 17.2958519345238  36.0228365384615 17.4107142857143  36.2884615384615 17.4107142857143  L 38.25 17.4107142857143  C 38.515625 17.4107142857143  38.7454927884615 17.2958519345238  38.9396033653846 17.0661272321429  Z M 49.8353365384615 10.6640625  C 50.6117788461539 11.5829613095238  51 12.671130952381  51 13.9285714285714  L 51 60.3571428571429  C 51 61.6145833333333  50.6117788461539 62.7027529761905  49.8353365384615 63.6216517857143  C 49.0588942307692 64.5405505952381  48.1394230769231 65  47.0769230769231 65  L 3.92307692307692 65  C 2.86057692307692 65  1.94110576923077 64.5405505952381  1.16466346153846 63.6216517857143  C 0.388221153846154 62.7027529761905  0 61.6145833333333  0 60.3571428571429  L 0 13.9285714285714  C 0 12.671130952381  0.388221153846154 11.5829613095238  1.16466346153846 10.6640625  C 1.94110576923077 9.74516369047618  2.86057692307692 9.28571428571429  3.92307692307692 9.28571428571429  L 7.84615384615385 9.28571428571429  L 7.84615384615385 5.80357142857143  C 7.84615384615385 4.20758928571429  8.32632211538462 2.84133184523809  9.28665865384615 1.70479910714286  C 10.2469951923077 0.56826636904762  11.4014423076923 0  12.75 0  L 14.7115384615385 0  C 16.0600961538462 0  17.2145432692308 0.56826636904762  18.1748798076923 1.70479910714286  C 19.1352163461538 2.84133184523809  19.6153846153846 4.20758928571429  19.6153846153846 5.80357142857143  L 19.6153846153846 10  L 31.3846153846154 10  L 31.3846153846154 5.80357142857143  C 31.3846153846154 4.20758928571429  31.8647836538462 2.84133184523809  32.8251201923077 1.70479910714286  C 33.7854567307692 0.56826636904762  34.9399038461538 0  36.2884615384615 0  L 38.25 0  C 39.5985576923077 0  40.7530048076923 0.56826636904762  41.7133413461538 1.70479910714286  C 42.6736778846154 2.84133184523809  43.1538461538462 4.20758928571429  43.1538461538462 5.80357142857143  L 43.1538461538462 9.28571428571429  L 47.0769230769231 9.28571428571429  C 48.1394230769231 9.28571428571429  49.0588942307692 9.74516369047618  49.8353365384615 10.6640625  Z " fill-rule="nonzero" fill="#000000" stroke="none" transform="matrix(1 0 0 1 335 217 )" />
  </g>
</svg>