<?xml version="1.0" encoding="utf-8"?>
<svg version="1.1" xmlns:xlink="http://www.w3.org/1999/xlink" width="53px" height="73px" xmlns="http://www.w3.org/2000/svg">
  <g transform="matrix(1 0 0 1 -685 -205 )">
    <path d="M 51.7578125 58.7110795454545  C 52.5859375 59.8033143939394  53 61.0268939393939  53 62.3818181818182  C 53 64.1238636363636  52.2283380681818 65.6930871212121  50.6850142045455 67.0894886363636  C 49.1416903409091 68.4858901515152  47.0839251893939 69.6057765151515  44.51171875 70.4491477272727  C 41.9395123106061 71.2925189393939  39.1163589015152 71.9285037878788  36.0422585227273 72.3571022727273  C 32.9681581439394 72.7857007575758  29.7874053030303 73  26.5 73  C 23.2125946969697 73  20.0318418560606 72.7857007575758  16.9577414772727 72.3571022727273  C 13.8836410984848 71.9285037878788  11.0604876893939 71.2925189393939  8.48828125 70.4491477272727  C 5.91607481060606 69.6057765151515  3.85830965909091 68.4858901515152  2.31498579545455 67.0894886363636  C 0.771661931818182 65.6930871212121  0 64.1238636363636  0 62.3818181818182  C 0 61.0268939393939  0.4140625 59.8033143939394  1.2421875 58.7110795454545  C 2.0703125 57.6188446969697  3.21212121212121 56.6994318181818  4.66761363636364 55.9528409090909  C 6.12310606060606 55.20625  7.60369318181818 54.5910037878788  9.109375 54.1071022727273  C 10.6150568181818 53.6232007575758  12.258759469697 53.2153409090909  14.0404829545455 52.8835227272727  C 14.6929450757576 52.7452651515151  15.2952178030303 52.8904356060606  15.8473011363636 53.3190340909091  C 16.399384469697 53.7476325757576  16.725615530303 54.3214015151515  16.8259943181818 55.0403409090909  C 16.9514678030303 55.7592803030303  16.8197206439394 56.4229166666667  16.4307528409091 57.03125  C 16.0417850378788 57.6395833333333  15.5210700757576 57.999053030303  14.8686079545455 58.1096590909091  C 13.413115530303 58.3861742424242  12.0830965909091 58.7110795454545  10.8785511363636 59.084375  C 9.67400568181818 59.4576704545455  8.71413352272727 59.8102272727273  7.99893465909091 60.1420454545455  C 7.28373579545455 60.4738636363636  6.67518939393939 60.7987689393939  6.17329545454545 61.1167613636364  C 5.67140151515152 61.4347537878788  5.32634943181818 61.7043560606061  5.13813920454545 61.9255681818182  C 4.94992897727273 62.1467803030303  4.84327651515152 62.3126893939394  4.81818181818182 62.4232954545455  C 4.89346590909091 62.7274621212121  5.23224431818182 63.0938446969697  5.83451704545455 63.5224431818182  C 6.43678977272727 63.9510416666667  7.35274621212121 64.4072916666667  8.58238636363636 64.8911931818182  C 9.81202651515152 65.3750946969697  11.2424242424242 65.8244318181818  12.8735795454545 66.2392045454545  C 14.5047348484848 66.6539772727273  16.518584280303 66.9996212121212  18.9151278409091 67.2761363636364  C 21.3116714015152 67.5526515151515  23.8399621212121 67.6909090909091  26.5 67.6909090909091  C 29.1600378787879 67.6909090909091  31.6883285984849 67.5526515151515  34.0848721590909 67.2761363636364  C 36.481415719697 66.9996212121212  38.4952651515152 66.6539772727273  40.1264204545455 66.2392045454545  C 41.7575757575758 65.8244318181818  43.1879734848485 65.3681818181818  44.4176136363636 64.8704545454546  C 45.6472537878788 64.3727272727273  46.5632102272727 63.9095643939394  47.1654829545455 63.4809659090909  C 47.7677556818182 63.0523674242424  48.1065340909091 62.6721590909091  48.1818181818182 62.3403409090909  C 48.1567234848485 62.2297348484848  48.0500710227273 62.0776515151515  47.8618607954545 61.8840909090909  C 47.6736505681818 61.6905303030303  47.3285984848485 61.4278409090909  46.8267045454545 61.0960227272727  C 46.3248106060606 60.7642045454545  45.7162642045455 60.4392992424242  45.0010653409091 60.1213068181818  C 44.2858664772727 59.8033143939394  43.3259943181818 59.4576704545455  42.1214488636364 59.084375  C 40.9169034090909 58.7110795454545  39.586884469697 58.3861742424242  38.1313920454545 58.1096590909091  C 37.4789299242424 57.999053030303  36.9582149621212 57.6395833333333  36.5692471590909 57.03125  C 36.1802793560606 56.4229166666667  36.0485321969697 55.7592803030303  36.1740056818182 55.0403409090909  C 36.274384469697 54.3214015151515  36.600615530303 53.7476325757576  37.1526988636364 53.3190340909091  C 37.7047821969697 52.8904356060606  38.3070549242424 52.7452651515151  38.9595170454545 52.8835227272727  C 40.741240530303 53.2153409090909  42.3849431818182 53.6232007575758  43.890625 54.1071022727273  C 45.3963068181818 54.5910037878788  46.8768939393939 55.20625  48.3323863636364 55.9528409090909  C 49.7878787878788 56.6994318181818  50.9296875 57.6188446969697  51.7578125 58.7110795454545  Z M 37.1338778409091 21.4644886363636  C 38.0749289772727 22.5014204545455  38.5454545454545 23.7526515151515  38 25.2181818181818  L 38 41.1454545454545  C 38.5454545454545 41.8643939393939  38.3070549242424 42.486553030303  37.8302556818182 43.0119318181818  C 37.3534564393939 43.5373106060606  36.7888257575758 43.8  36.1363636363636 43.8  L 33 43.8  L 33 59.7272727272727  C 33.7272727272727 60.4462121212121  33.4888731060606 61.0683712121212  33.0120738636364 61.59375  C 32.5352746212121 62.1191287878788  31.9706439393939 62.3818181818182  31.3181818181818 62.3818181818182  L 21.6818181818182 62.3818181818182  C 21.0293560606061 62.3818181818182  20.4647253787879 62.1191287878788  19.9879261363636 61.59375  C 19.5111268939394 61.0683712121212  19.2727272727273 60.4462121212121  20 59.7272727272727  L 20 43.8  L 16.8636363636364 43.8  C 16.2111742424242 43.8  15.6465435606061 43.5373106060606  15.1697443181818 43.0119318181818  C 14.6929450757576 42.486553030303  14.4545454545455 41.8643939393939  15 41.1454545454545  L 15 25.2181818181818  C 14.4545454545455 23.7526515151515  14.9250710227273 22.5014204545455  15.8661221590909 21.4644886363636  C 16.8071732954545 20.4275568181818  17.9427083333333 19.9090909090909  19.2727272727273 20  L 33.7272727272727 20  C 35.0572916666667 19.9090909090909  36.1928267045455 20.4275568181818  37.1338778409091 21.4644886363636  Z M 32.4662642045455 2.71676136363636  C 34.1099668560606 4.5279356060606  34.9318181818182 6.71931818181818  34.9318181818182 9.29090909090909  C 34.9318181818182 11.8625  34.1099668560606 14.0538825757576  32.4662642045455 15.8650568181818  C 30.8225615530303 17.6762310606061  28.8338068181818 18.5818181818182  26.5 18.5818181818182  C 24.1661931818182 18.5818181818182  22.1774384469697 17.6762310606061  20.5337357954545 15.8650568181818  C 18.8900331439394 14.0538825757576  18.0681818181818 11.8625  18.0681818181818 9.29090909090909  C 18.0681818181818 6.71931818181818  18.8900331439394 4.5279356060606  20.5337357954545 2.71676136363636  C 22.1774384469697 0.905587121212116  24.1661931818182 0  26.5 0  C 28.8338068181818 0  30.8225615530303 0.905587121212116  32.4662642045455 2.71676136363636  Z " fill-rule="nonzero" fill="#000000" stroke="none" transform="matrix(1 0 0 1 685 205 )" />
  </g>
</svg>