<?xml version="1.0" encoding="utf-8"?>
<svg version="1.1" xmlns:xlink="http://www.w3.org/1999/xlink" width="31px" height="58px" xmlns="http://www.w3.org/2000/svg">
  <g transform="matrix(1 0 0 1 -384 -328 )">
    <path d="M 30.56852248394 35.3113839285714  C 30.8561741613134 36.2607886904762  31 37.2749255952381  31 38.3537946428571  C 31 41.6551339285714  29.8991791577445 44.4979538690476  27.6975374732334 46.8822544642857  C 25.4958957887223 49.2665550595238  22.6359743040685 50.7392113095238  19.1177730192719 51.3002232142857  L 19.1177730192719 56.9642857142857  C 19.1177730192719 57.266369047619  19.0182012847966 57.5145089285714  18.8190578158458 57.7087053571429  C 18.6199143468951 57.9029017857143  18.3654532476802 58  18.0556745182013 58  L 13.5749464668094 58  C 13.2872947894361 58  13.0383654532477 57.8975074404762  12.8281584582441 57.6925223214286  C 12.6179514632405 57.487537202381  12.5128479657388 57.2447916666667  12.5128479657388 56.9642857142857  L 12.5128479657388 51.3002232142857  C 11.0524625267666 51.1060267857143  9.64186295503212 50.7715773809524  8.28104925053533 50.296875  C 6.92023554603854 49.8221726190476  5.79728765167737 49.3420758928571  4.91220556745182 48.8565848214286  C 4.02712348322627 48.37109375  3.20842255531763 47.8532366071429  2.45610278372591 47.3030133928571  C 1.70378301213419 46.7527901785714  1.18932905067809 46.3482142857143  0.912740899357602 46.0892857142857  C 0.636152748037117 45.8303571428571  0.442541042112777 45.6361607142857  0.331905781584582 45.5066964285714  C -0.0442541042112775 45.0535714285714  -0.0663811563169165 44.6112351190476  0.265524625267666 44.1796875  L 3.68415417558887 39.8102678571429  C 3.83904354032834 39.594494047619  4.09350463954318 39.4650297619048  4.44753747323341 39.421875  C 4.77944325481799 39.3787202380952  5.04496788008565 39.4758184523809  5.2441113490364 39.7131696428571  L 5.31049250535332 39.7779017857143  C 7.81084939329051 41.9140625  10.4992862241256 43.2626488095238  13.3758029978587 43.8236607142857  C 14.1945039257673 43.9962797619048  15.0132048536759 44.0825892857143  15.8319057815846 44.0825892857143  C 17.6241970021413 44.0825892857143  19.2007494646681 43.6186755952381  20.5615631691649 42.6908482142857  C 21.9223768736617 41.7630208333333  22.6027837259101 40.4468005952381  22.6027837259101 38.7421875  C 22.6027837259101 38.1380208333333  22.4368308351178 37.5662202380952  22.1049250535332 37.0267857142857  C 21.7730192719486 36.4873511904762  21.4023911491792 36.0342261904762  20.9930406852248 35.6674107142857  C 20.5836902212705 35.3005952380952  19.9364739471806 34.8960193452381  19.051391862955 34.4536830357143  C 18.1663097787295 34.0113467261905  17.4361170592434 33.6661086309524  16.8608137044968 33.41796875  C 16.2855103497502 33.1698288690476  15.4004282655246 32.8191964285714  14.2055674518201 32.3660714285714  C 13.3426124197002 32.0208333333333  12.6622055674518 31.7511160714286  12.1643468950749 31.5569196428571  C 11.6664882226981 31.3627232142857  10.9860813704497 31.0768229166667  10.1231263383298 30.69921875  C 9.26017130620985 30.3216145833333  8.56870092790864 29.9871651785714  8.04871520342613 29.6958705357143  C 7.52872947894361 29.4045758928571  6.90364025695931 29.0215773809524  6.17344753747323 28.546875  C 5.44325481798715 28.0721726190476  4.85135617416131 27.6136532738095  4.39775160599572 27.1713169642857  C 3.94414703783012 26.7289806547619  3.46288365453248 26.2003348214286  2.95396145610278 25.5853794642857  C 2.44503925767309 24.9704241071429  2.052284082798 24.3446800595238  1.77569593147752 23.7081473214286  C 1.49910778015703 23.0716145833333  1.26677373304782 22.3541666666667  1.07869379014989 21.5558035714286  C 0.890613847251963 20.7574404761905  0.796573875802998 19.9159226190476  0.796573875802998 19.03125  C 0.796573875802998 16.0535714285714  1.8807994289793 13.4427083333333  4.04925053533191 11.1986607142857  C 6.21770164168451 8.95461309523809  9.03890078515346 7.50892857142857  12.5128479657388 6.86160714285714  L 12.5128479657388 1.03571428571429  C 12.5128479657388 0.755208333333329  12.6179514632405 0.512462797619047  12.8281584582441 0.307477678571429  C 13.0383654532477 0.102492559523812  13.2872947894361 0  13.5749464668094 0  L 18.0556745182013 0  C 18.3654532476802 0  18.6199143468951 0.0970982142857115  18.8190578158458 0.291294642857141  C 19.0182012847966 0.485491071428571  19.1177730192719 0.733630952380947  19.1177730192719 1.03571428571429  L 19.1177730192719 6.73214285714286  C 20.3790149892934 6.86160714285714  21.6015346181299 7.10974702380952  22.7853319057816 7.4765625  C 23.9691291934333 7.84337797619048  24.9316559600286 8.20479910714286  25.6729122055675 8.56082589285714  C 26.4141684511064 8.91685267857143  27.1167023554604 9.32142857142857  27.7805139186295 9.77455357142857  C 28.4443254817987 10.2276785714286  28.8758029978587 10.5405505952381  29.0749464668094 10.7131696428571  C 29.2740899357602 10.8857886904762  29.4400428265525 11.0368303571429  29.5728051391863 11.1662946428571  C 29.9489650249822 11.5546875  30.0042826552463 11.9646577380952  29.7387580299786 12.3962053571429  L 27.0503211991435 17.1216517857143  C 26.8733047822984 17.4453125  26.6188436830835 17.617931547619  26.2869379014989 17.6395089285714  C 25.97715917202 17.7042410714286  25.6784439685939 17.6287202380952  25.3907922912206 17.4129464285714  C 25.3244111349036 17.3482142857143  25.1639900071378 17.21875  24.9095289079229 17.0245535714286  C 24.6550678087081 16.8303571428571  24.2235902926481 16.5444568452381  23.615096359743 16.1668526785714  C 23.006602426838 15.7892485119048  22.359386152748 15.4440104166667  21.6734475374732 15.1311383928571  C 20.9875089221984 14.8182663690476  20.1632762312634 14.5377604166667  19.2007494646681 14.2896205357143  C 18.2382226980728 14.0414806547619  17.2922912205567 13.9174107142857  16.3629550321199 13.9174107142857  C 14.2608850820842 13.9174107142857  12.5460385438972 14.3813244047619  11.2184154175589 15.3091517857143  C 9.89079229122056 16.2369791666667  9.22698072805139 17.4345238095238  9.22698072805139 18.9017857142857  C 9.22698072805139 19.4627976190476  9.32102069950036 19.9806547619048  9.50910064239829 20.4553571428571  C 9.69718058529622 20.9300595238095  10.0235546038544 21.3777901785714  10.4882226980728 21.7985491071429  C 10.9528907922912 22.2193080357143  11.3899000713776 22.5753348214286  11.7992505353319 22.8666294642857  C 12.2086009992862 23.1579241071429  12.8281584582441 23.4923735119048  13.6579229122056 23.8699776785714  C 14.487687366167 24.2475818452381  15.1570306923626 24.5388764880952  15.6659528907923 24.7438616071429  C 16.174875089222 24.9488467261905  16.9493219129193 25.2455357142857  17.9892933618844 25.6339285714286  C 19.1620271234832 26.0654761904762  20.0581727337616 26.4053199404762  20.6777301927195 26.6534598214286  C 21.2972876516774 26.901599702381  22.1381156316916 27.2792038690476  23.2002141327623 27.7862723214286  C 24.262312633833 28.2933407738095  25.0976088508208 28.7518601190476  25.7061027837259 29.1618303571429  C 26.314596716631 29.5718005952381  27.0005353319058 30.1112351190476  27.7639186295503 30.7801339285714  C 28.5273019271949 31.4490327380952  29.1136688079943 32.1341145833333  29.5230192719486 32.8353794642857  C 29.9323697359029 33.5366443452381  30.2808708065667 34.3619791666667  30.56852248394 35.3113839285714  Z " fill-rule="nonzero" fill="#000000" stroke="none" transform="matrix(1 0 0 1 384 328 )" />
  </g>
</svg>