<?xml version="1.0" encoding="utf-8"?>
<svg version="1.1" xmlns:xlink="http://www.w3.org/1999/xlink" width="43px" height="56px" xmlns="http://www.w3.org/2000/svg">
  <g transform="matrix(1 0 0 1 -12 -328 )">
    <path d="M 9.09130859375 37.555  C 9.74918619791667 36.4583333333333  10.078125 35.14  10.078125 33.6  C 10.078125 32.06  9.74918619791667 30.7416666666667  9.09130859375 29.645  C 8.43343098958333 28.5483333333333  7.642578125 28  6.71875 28  C 5.794921875 28  5.00406901041667 28.5483333333333  4.34619140625 29.645  C 3.68831380208333 30.7416666666667  3.359375 32.06  3.359375 33.6  C 3.359375 35.14  3.68831380208333 36.4583333333333  4.34619140625 37.555  C 5.00406901041667 38.6516666666667  5.794921875 39.2  6.71875 39.2  C 7.642578125 39.2  8.43343098958333 38.6516666666667  9.09130859375 37.555  Z M 12.70263671875 9.905  L 10.833984375 23  L 32.166015625 23  L 30.29736328125 9.905  C 30.2693684895833 9.71833333333333  30.17138671875 9.51416666666666  30.00341796875 9.2925  C 29.83544921875 9.07083333333333  29.6884765625 8.96  29.5625 9  L 13.4375 9  C 13.3115234375 8.96  13.16455078125 9.07083333333333  12.99658203125 9.2925  C 12.82861328125 9.51416666666666  12.7306315104167 9.71833333333333  12.70263671875 9.905  Z M 38.65380859375 37.555  C 39.3116861979167 36.4583333333333  39.640625 35.14  39.640625 33.6  C 39.640625 32.06  39.3116861979167 30.7416666666667  38.65380859375 29.645  C 37.9959309895833 28.5483333333333  37.205078125 28  36.28125 28  C 35.357421875 28  34.5665690104167 28.5483333333333  33.90869140625 29.645  C 33.2508138020833 30.7416666666667  32.921875 32.06  32.921875 33.6  C 32.921875 35.14  33.2508138020833 36.4583333333333  33.90869140625 37.555  C 34.5665690104167 38.6516666666667  35.357421875 39.2  36.28125 39.2  C 37.205078125 39.2  37.9959309895833 38.6516666666667  38.65380859375 37.555  Z M 41.624755859375 24.6925  C 42.5415852864583 26.2208333333333  43 28.07  43 30.24  L 43 43.68  C 43 44.0066666666667  42.93701171875 44.275  42.81103515625 44.485  C 42.68505859375 44.695  42.5240885416667 44.8  42.328125 44.8  L 40.3125 44.8  L 40.3125 49.28  C 40.3125 51.1466666666667  39.9205729166667 52.7333333333333  39.13671875 54.04  C 38.3528645833333 55.3466666666667  37.4010416666667 56  36.28125 56  C 35.1614583333333 56  34.2096354166667 55.3466666666667  33.42578125 54.04  C 32.6419270833333 52.7333333333333  32.25 51.1466666666667  32.25 49.28  L 32.25 44  L 10.75 44  L 10.75 49.28  C 10.75 51.1466666666667  10.3580729166667 52.7333333333333  9.57421875 54.04  C 8.79036458333333 55.3466666666667  7.83854166666667 56  6.71875 56  C 5.59895833333333 56  4.64713541666667 55.3466666666667  3.86328125 54.04  C 3.07942708333333 52.7333333333333  2.6875 51.1466666666667  2.6875 49.28  L 2.6875 44.8  L 0.671875 44.8  C 0.475911458333333 44.8  0.31494140625 44.695  0.18896484375 44.485  C 0.06298828125 44.275  0 44.0066666666667  0 43.68  L 0 30.24  C 0 28.07  0.458414713541667 26.2208333333333  1.375244140625 24.6925  C 2.29207356770833 23.1641666666667  3.4013671875 22.4  4.703125 22.4  L 5.291015625 22.4  L 7.49560546875 7.735  C 7.81754557291667 5.54166666666666  8.54541015625 3.70416666666666  9.67919921875 2.2225  C 10.81298828125 0.740833333333331  12.0657552083333 0  13.4375 0  L 29.5625 0  C 30.9342447916667 0  32.18701171875 0.740833333333331  33.32080078125 2.2225  C 34.45458984375 3.70416666666666  35.1824544270833 5.54166666666666  35.50439453125 7.735  L 37.708984375 22.4  L 38.296875 22.4  C 39.5986328125 22.4  40.7079264322917 23.1641666666667  41.624755859375 24.6925  Z " fill-rule="nonzero" fill="#000000" stroke="none" transform="matrix(1 0 0 1 12 328 )" />
  </g>
</svg>