<?xml version="1.0" encoding="utf-8"?>
<svg version="1.1" xmlns:xlink="http://www.w3.org/1999/xlink" width="46px" height="53px" xmlns="http://www.w3.org/2000/svg">
  <g transform="matrix(1 0 0 1 -516 -328 )">
    <path d="M 26.5638020833333 13.560546875  C 26.7434895833333 13.767578125  26.8333333333333 14.0321180555555  26 14.3541666666667  L 26 29.8125  C 26.8333333333333 30.1345486111111  26.7434895833333 30.3990885416667  26.5638020833333 30.6061197916667  C 26.3841145833333 30.8131510416667  26.1545138888889 30.9166666666667  25.875 30.9166666666667  L 16.2916666666667 30.9166666666667  C 16.0121527777778 30.9166666666667  15.7825520833333 30.8131510416667  15.6028645833333 30.6061197916667  C 15.4231770833333 30.3990885416667  15.3333333333333 30.1345486111111  15.3333333333333 29.8125  L 15.3333333333333 27.6041666666667  C 15.3333333333333 27.2821180555556  15.4231770833333 27.017578125  15.6028645833333 26.810546875  C 15.7825520833333 26.603515625  16.0121527777778 26.5  16.2916666666667 26.5  L 23 26.5  L 23 14.3541666666667  C 23 14.0321180555555  23.08984375 13.767578125  23.26953125 13.560546875  C 23.44921875 13.353515625  23.6788194444445 13.25  23.9583333333333 13.25  L 25.875 13.25  C 26.1545138888889 13.25  26.3841145833333 13.353515625  26.5638020833333 13.560546875  Z M 37.10546875 35.919921875  C 38.5629340277778 33.0444878472222  39.2916666666667 29.9045138888889  39.2916666666667 26.5  C 39.2916666666667 23.0954861111111  38.5629340277778 19.9555121527778  37.10546875 17.080078125  C 35.6480034722222 14.2046440972222  33.6714409722222 11.9273003472222  31.17578125 10.248046875  C 28.6801215277778 8.56879340277778  25.9548611111111 7.72916666666667  23 7.72916666666667  C 20.0451388888889 7.72916666666667  17.3198784722222 8.56879340277778  14.82421875 10.248046875  C 12.3285590277778 11.9273003472222  10.3519965277778 14.2046440972222  8.89453125 17.080078125  C 7.43706597222222 19.9555121527778  6.70833333333333 23.0954861111111  6.70833333333333 26.5  C 6.70833333333333 29.9045138888889  7.43706597222222 33.0444878472222  8.89453125 35.919921875  C 10.3519965277778 38.7953559027778  12.3285590277778 41.0726996527778  14.82421875 42.751953125  C 17.3198784722222 44.4312065972222  20.0451388888889 45.2708333333333  23 45.2708333333333  C 25.9548611111111 45.2708333333333  28.6801215277778 44.4312065972222  31.17578125 42.751953125  C 33.6714409722222 41.0726996527778  35.6480034722222 38.7953559027778  37.10546875 35.919921875  Z M 42.9153645833333 13.1982421875  C 44.9717881944444 17.2583550347222  46 21.6922743055556  46 26.5  C 46 31.3077256944444  44.9717881944444 35.7416449652778  42.9153645833333 39.8017578125  C 40.8589409722222 43.8618706597222  38.0687934027778 47.0766059027778  34.544921875 49.4459635416667  C 31.0210503472222 51.8153211805556  27.1727430555556 53  23 53  C 18.8272569444444 53  14.9789496527778 51.8153211805556  11.455078125 49.4459635416667  C 7.93120659722222 47.0766059027778  5.14105902777778 43.8618706597222  3.08463541666667 39.8017578125  C 1.02821180555556 35.7416449652778  0 31.3077256944444  0 26.5  C 0 21.6922743055556  1.02821180555556 17.2583550347222  3.08463541666667 13.1982421875  C 5.14105902777778 9.13812934027778  7.93120659722222 5.92339409722222  11.455078125 3.55403645833333  C 14.9789496527778 1.18467881944444  18.8272569444444 0  23 0  C 27.1727430555556 0  31.0210503472222 1.18467881944444  34.544921875 3.55403645833333  C 38.0687934027778 5.92339409722222  40.8589409722222 9.13812934027778  42.9153645833333 13.1982421875  Z " fill-rule="nonzero" fill="#000000" stroke="none" transform="matrix(1 0 0 1 516 328 )" />
  </g>
</svg>