<?xml version="1.0" encoding="utf-8"?>
<svg version="1.1" xmlns:xlink="http://www.w3.org/1999/xlink" width="46px" height="68px" xmlns="http://www.w3.org/2000/svg">
  <defs>
    <mask fill="white" id="clip25">
      <path d="M 10.376953125 49.5770089285714  C 11.1256510416667 48.6283482142857  11.5 47.4836309523809  11.5 46.1428571428571  C 11.5 44.8020833333333  11.1256510416667 43.6573660714286  10.376953125 42.7087053571429  C 9.62825520833333 41.7600446428571  8.72482638888889 41.2857142857143  7.66666666666667 41.2857142857143  C 6.60850694444444 41.2857142857143  5.705078125 41.7600446428571  4.95638020833333 42.7087053571429  C 4.20768229166667 43.6573660714286  3.83333333333333 44.8020833333333  3.83333333333333 46.1428571428571  C 3.83333333333333 47.4836309523809  4.20768229166667 48.6283482142857  4.95638020833333 49.5770089285714  C 5.705078125 50.5256696428571  6.60850694444444 51  7.66666666666667 51  C 8.72482638888889 51  9.62825520833333 50.5256696428571  10.376953125 49.5770089285714  Z M 41.0436197916667 49.5770089285714  C 41.7923177083333 48.6283482142857  42.1666666666667 47.4836309523809  42.1666666666667 46.1428571428571  C 42.1666666666667 44.8020833333333  41.7923177083333 43.6573660714286  41.0436197916667 42.7087053571429  C 40.294921875 41.7600446428571  39.3914930555556 41.2857142857143  38.3333333333333 41.2857142857143  C 37.2751736111111 41.2857142857143  36.3717447916667 41.7600446428571  35.623046875 42.7087053571429  C 34.8743489583333 43.6573660714286  34.5 44.8020833333333  34.5 46.1428571428571  C 34.5 47.4836309523809  34.8743489583333 48.6283482142857  35.623046875 49.5770089285714  C 36.3717447916667 50.5256696428571  37.2751736111111 51  38.3333333333333 51  C 39.3914930555556 51  40.294921875 50.5256696428571  41.0436197916667 49.5770089285714  Z M 40.3697916666667 33.1272321428571  C 40.7491319444445 32.5453869047619  40.8888888888889 31.875  40.7890625 31.1160714285714  L 38.6328125 16.5446428571429  C 38.5329861111111 15.9627976190476  38.3083767361111 15.4884672619048  37.958984375 15.1216517857143  C 37.6095920138889 14.7548363095238  37.2052951388889 14.5714285714286  36.74609375 15  L 9.25390625 15  C 8.79470486111111 14.5714285714286  8.39040798611111 14.7548363095238  8.041015625 15.1216517857143  C 7.69162326388889 15.4884672619048  7.46701388888889 15.9627976190476  7.3671875 16.5446428571429  L 5.2109375 31.1160714285714  C 5.11111111111111 31.875  5.25086805555556 32.5453869047619  5.63020833333333 33.1272321428571  C 6.00954861111111 33.7090773809524  6.49869791666667 34  7.09765625 34  L 38.90234375 34  C 39.5013020833333 34  39.9904513888889 33.7090773809524  40.3697916666667 33.1272321428571  Z M 33.6015625 9.18303571428572  C 33.8810763888889 8.82886904761904  34.0208333333333 8.39880952380952  34.0208333333333 7.89285714285715  C 34.0208333333333 7.38690476190476  33.8810763888889 6.95684523809523  33.6015625 6.60267857142857  C 33.3220486111111 6.2485119047619  32.9826388888889 6.07142857142857  32.5833333333333 6  L 13.4166666666667 6  C 13.0173611111111 6.07142857142857  12.6779513888889 6.2485119047619  12.3984375 6.60267857142857  C 12.1189236111111 6.95684523809523  11.9791666666667 7.38690476190476  11.9791666666667 7.89285714285715  C 11.9791666666667 8.39880952380952  12.1189236111111 8.82886904761904  12.3984375 9.18303571428572  C 12.6779513888889 9.53720238095238  13.0173611111111 9.71428571428572  13.4166666666667 10  L 32.5833333333333 10  C 32.9826388888889 9.71428571428572  33.3220486111111 9.53720238095238  33.6015625 9.18303571428572  Z M 45.3111979166667 26.9419642857143  C 45.7703993055556 29.5223214285714  46 32.3430059523809  46 35.4040178571429  L 46 58.2857142857143  L 42.1666666666667 58.2857142857143  L 42.1666666666667 63.1428571428571  C 42.1666666666667 64.4836309523809  41.7923177083333 65.6283482142857  41.0436197916667 66.5770089285714  C 40.294921875 67.5256696428571  39.3914930555556 68  38.3333333333333 68  C 37.2751736111111 68  36.3717447916667 67.5256696428571  35.623046875 66.5770089285714  C 34.8743489583333 65.6283482142857  34.5 64.4836309523809  34.5 63.1428571428571  L 34.5 58  L 11.5 58  L 11.5 63.1428571428571  C 11.5 64.4836309523809  11.1256510416667 65.6283482142857  10.376953125 66.5770089285714  C 9.62825520833333 67.5256696428571  8.72482638888889 68  7.66666666666667 68  C 6.60850694444444 68  5.705078125 67.5256696428571  4.95638020833333 66.5770089285714  C 4.20768229166667 65.6283482142857  3.83333333333333 64.4836309523809  3.83333333333333 63.1428571428571  L 3.83333333333333 58.2857142857143  L 0 58.2857142857143  L 0 35.4040178571429  C 0 32.5706845238095  0.249565972222222 29.75  0.748697916666667 26.9419642857143  L 3.83333333333333 9.71428571428572  C 4.01302083333333 7.74107142857143  4.986328125 6.00818452380952  6.75325520833333 4.515625  C 8.52018229166667 3.02306547619047  10.8161892361111 1.89732142857143  13.6412760416667 1.13839285714285  C 16.4663628472222 0.379464285714282  19.5859375 0  23 0  C 26.4140625 0  29.5336371527778 0.379464285714282  32.3587239583333 1.13839285714285  C 35.1838107638889 1.89732142857143  37.4798177083333 3.02306547619047  39.2467447916667 4.515625  C 41.013671875 6.00818452380952  41.9869791666667 7.74107142857143  42.1666666666667 9.71428571428572  L 45.3111979166667 26.9419642857143  Z " fill-rule="evenodd" />
    </mask>
  </defs>
  <g transform="matrix(1 0 0 1 -370 -333 )">
    <path d="M 10.376953125 49.5770089285714  C 11.1256510416667 48.6283482142857  11.5 47.4836309523809  11.5 46.1428571428571  C 11.5 44.8020833333333  11.1256510416667 43.6573660714286  10.376953125 42.7087053571429  C 9.62825520833333 41.7600446428571  8.72482638888889 41.2857142857143  7.66666666666667 41.2857142857143  C 6.60850694444444 41.2857142857143  5.705078125 41.7600446428571  4.95638020833333 42.7087053571429  C 4.20768229166667 43.6573660714286  3.83333333333333 44.8020833333333  3.83333333333333 46.1428571428571  C 3.83333333333333 47.4836309523809  4.20768229166667 48.6283482142857  4.95638020833333 49.5770089285714  C 5.705078125 50.5256696428571  6.60850694444444 51  7.66666666666667 51  C 8.72482638888889 51  9.62825520833333 50.5256696428571  10.376953125 49.5770089285714  Z M 41.0436197916667 49.5770089285714  C 41.7923177083333 48.6283482142857  42.1666666666667 47.4836309523809  42.1666666666667 46.1428571428571  C 42.1666666666667 44.8020833333333  41.7923177083333 43.6573660714286  41.0436197916667 42.7087053571429  C 40.294921875 41.7600446428571  39.3914930555556 41.2857142857143  38.3333333333333 41.2857142857143  C 37.2751736111111 41.2857142857143  36.3717447916667 41.7600446428571  35.623046875 42.7087053571429  C 34.8743489583333 43.6573660714286  34.5 44.8020833333333  34.5 46.1428571428571  C 34.5 47.4836309523809  34.8743489583333 48.6283482142857  35.623046875 49.5770089285714  C 36.3717447916667 50.5256696428571  37.2751736111111 51  38.3333333333333 51  C 39.3914930555556 51  40.294921875 50.5256696428571  41.0436197916667 49.5770089285714  Z M 40.3697916666667 33.1272321428571  C 40.7491319444445 32.5453869047619  40.8888888888889 31.875  40.7890625 31.1160714285714  L 38.6328125 16.5446428571429  C 38.5329861111111 15.9627976190476  38.3083767361111 15.4884672619048  37.958984375 15.1216517857143  C 37.6095920138889 14.7548363095238  37.2052951388889 14.5714285714286  36.74609375 15  L 9.25390625 15  C 8.79470486111111 14.5714285714286  8.39040798611111 14.7548363095238  8.041015625 15.1216517857143  C 7.69162326388889 15.4884672619048  7.46701388888889 15.9627976190476  7.3671875 16.5446428571429  L 5.2109375 31.1160714285714  C 5.11111111111111 31.875  5.25086805555556 32.5453869047619  5.63020833333333 33.1272321428571  C 6.00954861111111 33.7090773809524  6.49869791666667 34  7.09765625 34  L 38.90234375 34  C 39.5013020833333 34  39.9904513888889 33.7090773809524  40.3697916666667 33.1272321428571  Z M 33.6015625 9.18303571428572  C 33.8810763888889 8.82886904761904  34.0208333333333 8.39880952380952  34.0208333333333 7.89285714285715  C 34.0208333333333 7.38690476190476  33.8810763888889 6.95684523809523  33.6015625 6.60267857142857  C 33.3220486111111 6.2485119047619  32.9826388888889 6.07142857142857  32.5833333333333 6  L 13.4166666666667 6  C 13.0173611111111 6.07142857142857  12.6779513888889 6.2485119047619  12.3984375 6.60267857142857  C 12.1189236111111 6.95684523809523  11.9791666666667 7.38690476190476  11.9791666666667 7.89285714285715  C 11.9791666666667 8.39880952380952  12.1189236111111 8.82886904761904  12.3984375 9.18303571428572  C 12.6779513888889 9.53720238095238  13.0173611111111 9.71428571428572  13.4166666666667 10  L 32.5833333333333 10  C 32.9826388888889 9.71428571428572  33.3220486111111 9.53720238095238  33.6015625 9.18303571428572  Z M 45.3111979166667 26.9419642857143  C 45.7703993055556 29.5223214285714  46 32.3430059523809  46 35.4040178571429  L 46 58.2857142857143  L 42.1666666666667 58.2857142857143  L 42.1666666666667 63.1428571428571  C 42.1666666666667 64.4836309523809  41.7923177083333 65.6283482142857  41.0436197916667 66.5770089285714  C 40.294921875 67.5256696428571  39.3914930555556 68  38.3333333333333 68  C 37.2751736111111 68  36.3717447916667 67.5256696428571  35.623046875 66.5770089285714  C 34.8743489583333 65.6283482142857  34.5 64.4836309523809  34.5 63.1428571428571  L 34.5 58  L 11.5 58  L 11.5 63.1428571428571  C 11.5 64.4836309523809  11.1256510416667 65.6283482142857  10.376953125 66.5770089285714  C 9.62825520833333 67.5256696428571  8.72482638888889 68  7.66666666666667 68  C 6.60850694444444 68  5.705078125 67.5256696428571  4.95638020833333 66.5770089285714  C 4.20768229166667 65.6283482142857  3.83333333333333 64.4836309523809  3.83333333333333 63.1428571428571  L 3.83333333333333 58.2857142857143  L 0 58.2857142857143  L 0 35.4040178571429  C 0 32.5706845238095  0.249565972222222 29.75  0.748697916666667 26.9419642857143  L 3.83333333333333 9.71428571428572  C 4.01302083333333 7.74107142857143  4.986328125 6.00818452380952  6.75325520833333 4.515625  C 8.52018229166667 3.02306547619047  10.8161892361111 1.89732142857143  13.6412760416667 1.13839285714285  C 16.4663628472222 0.379464285714282  19.5859375 0  23 0  C 26.4140625 0  29.5336371527778 0.379464285714282  32.3587239583333 1.13839285714285  C 35.1838107638889 1.89732142857143  37.4798177083333 3.02306547619047  39.2467447916667 4.515625  C 41.013671875 6.00818452380952  41.9869791666667 7.74107142857143  42.1666666666667 9.71428571428572  L 45.3111979166667 26.9419642857143  Z " fill-rule="nonzero" fill="#000000" stroke="none" transform="matrix(1 0 0 1 370 333 )" />
    <path d="M 10.376953125 49.5770089285714  C 11.1256510416667 48.6283482142857  11.5 47.4836309523809  11.5 46.1428571428571  C 11.5 44.8020833333333  11.1256510416667 43.6573660714286  10.376953125 42.7087053571429  C 9.62825520833333 41.7600446428571  8.72482638888889 41.2857142857143  7.66666666666667 41.2857142857143  C 6.60850694444444 41.2857142857143  5.705078125 41.7600446428571  4.95638020833333 42.7087053571429  C 4.20768229166667 43.6573660714286  3.83333333333333 44.8020833333333  3.83333333333333 46.1428571428571  C 3.83333333333333 47.4836309523809  4.20768229166667 48.6283482142857  4.95638020833333 49.5770089285714  C 5.705078125 50.5256696428571  6.60850694444444 51  7.66666666666667 51  C 8.72482638888889 51  9.62825520833333 50.5256696428571  10.376953125 49.5770089285714  Z " stroke-width="2" stroke="#000000" fill="none" transform="matrix(1 0 0 1 370 333 )" mask="url(#clip25)" />
    <path d="M 41.0436197916667 49.5770089285714  C 41.7923177083333 48.6283482142857  42.1666666666667 47.4836309523809  42.1666666666667 46.1428571428571  C 42.1666666666667 44.8020833333333  41.7923177083333 43.6573660714286  41.0436197916667 42.7087053571429  C 40.294921875 41.7600446428571  39.3914930555556 41.2857142857143  38.3333333333333 41.2857142857143  C 37.2751736111111 41.2857142857143  36.3717447916667 41.7600446428571  35.623046875 42.7087053571429  C 34.8743489583333 43.6573660714286  34.5 44.8020833333333  34.5 46.1428571428571  C 34.5 47.4836309523809  34.8743489583333 48.6283482142857  35.623046875 49.5770089285714  C 36.3717447916667 50.5256696428571  37.2751736111111 51  38.3333333333333 51  C 39.3914930555556 51  40.294921875 50.5256696428571  41.0436197916667 49.5770089285714  Z " stroke-width="2" stroke="#000000" fill="none" transform="matrix(1 0 0 1 370 333 )" mask="url(#clip25)" />
    <path d="M 40.3697916666667 33.1272321428571  C 40.7491319444445 32.5453869047619  40.8888888888889 31.875  40.7890625 31.1160714285714  L 38.6328125 16.5446428571429  C 38.5329861111111 15.9627976190476  38.3083767361111 15.4884672619048  37.958984375 15.1216517857143  C 37.6095920138889 14.7548363095238  37.2052951388889 14.5714285714286  36.74609375 15  L 9.25390625 15  C 8.79470486111111 14.5714285714286  8.39040798611111 14.7548363095238  8.041015625 15.1216517857143  C 7.69162326388889 15.4884672619048  7.46701388888889 15.9627976190476  7.3671875 16.5446428571429  L 5.2109375 31.1160714285714  C 5.11111111111111 31.875  5.25086805555556 32.5453869047619  5.63020833333333 33.1272321428571  C 6.00954861111111 33.7090773809524  6.49869791666667 34  7.09765625 34  L 38.90234375 34  C 39.5013020833333 34  39.9904513888889 33.7090773809524  40.3697916666667 33.1272321428571  Z " stroke-width="2" stroke="#000000" fill="none" transform="matrix(1 0 0 1 370 333 )" mask="url(#clip25)" />
    <path d="M 33.6015625 9.18303571428572  C 33.8810763888889 8.82886904761904  34.0208333333333 8.39880952380952  34.0208333333333 7.89285714285715  C 34.0208333333333 7.38690476190476  33.8810763888889 6.95684523809523  33.6015625 6.60267857142857  C 33.3220486111111 6.2485119047619  32.9826388888889 6.07142857142857  32.5833333333333 6  L 13.4166666666667 6  C 13.0173611111111 6.07142857142857  12.6779513888889 6.2485119047619  12.3984375 6.60267857142857  C 12.1189236111111 6.95684523809523  11.9791666666667 7.38690476190476  11.9791666666667 7.89285714285715  C 11.9791666666667 8.39880952380952  12.1189236111111 8.82886904761904  12.3984375 9.18303571428572  C 12.6779513888889 9.53720238095238  13.0173611111111 9.71428571428572  13.4166666666667 10  L 32.5833333333333 10  C 32.9826388888889 9.71428571428572  33.3220486111111 9.53720238095238  33.6015625 9.18303571428572  Z " stroke-width="2" stroke="#000000" fill="none" transform="matrix(1 0 0 1 370 333 )" mask="url(#clip25)" />
    <path d="M 45.3111979166667 26.9419642857143  C 45.7703993055556 29.5223214285714  46 32.3430059523809  46 35.4040178571429  L 46 58.2857142857143  L 42.1666666666667 58.2857142857143  L 42.1666666666667 63.1428571428571  C 42.1666666666667 64.4836309523809  41.7923177083333 65.6283482142857  41.0436197916667 66.5770089285714  C 40.294921875 67.5256696428571  39.3914930555556 68  38.3333333333333 68  C 37.2751736111111 68  36.3717447916667 67.5256696428571  35.623046875 66.5770089285714  C 34.8743489583333 65.6283482142857  34.5 64.4836309523809  34.5 63.1428571428571  L 34.5 58  L 11.5 58  L 11.5 63.1428571428571  C 11.5 64.4836309523809  11.1256510416667 65.6283482142857  10.376953125 66.5770089285714  C 9.62825520833333 67.5256696428571  8.72482638888889 68  7.66666666666667 68  C 6.60850694444444 68  5.705078125 67.5256696428571  4.95638020833333 66.5770089285714  C 4.20768229166667 65.6283482142857  3.83333333333333 64.4836309523809  3.83333333333333 63.1428571428571  L 3.83333333333333 58.2857142857143  L 0 58.2857142857143  L 0 35.4040178571429  C 0 32.5706845238095  0.249565972222222 29.75  0.748697916666667 26.9419642857143  L 3.83333333333333 9.71428571428572  C 4.01302083333333 7.74107142857143  4.986328125 6.00818452380952  6.75325520833333 4.515625  C 8.52018229166667 3.02306547619047  10.8161892361111 1.89732142857143  13.6412760416667 1.13839285714285  C 16.4663628472222 0.379464285714282  19.5859375 0  23 0  C 26.4140625 0  29.5336371527778 0.379464285714282  32.3587239583333 1.13839285714285  C 35.1838107638889 1.89732142857143  37.4798177083333 3.02306547619047  39.2467447916667 4.515625  C 41.013671875 6.00818452380952  41.9869791666667 7.74107142857143  42.1666666666667 9.71428571428572  L 45.3111979166667 26.9419642857143  Z " stroke-width="2" stroke="#000000" fill="none" transform="matrix(1 0 0 1 370 333 )" mask="url(#clip25)" />
  </g>
</svg>