<?xml version="1.0" encoding="utf-8"?>
<svg version="1.1" xmlns:xlink="http://www.w3.org/1999/xlink" width="21px" height="38px" xmlns="http://www.w3.org/2000/svg">
  <defs>
    <mask fill="white" id="clip10">
      <path d="M 14.2119140625 17.14453125  C 14.2119140625 17.14453125  15.75 14.4149305555556  15.75 12.6666666666667  C 15.75 10.9184027777778  15.2373046875 9.42578125  14.2119140625 8.18880208333331  C 13.1865234375 6.95182291666669  11.94921875 6.33333333333331  10.5 6.33333333333331  C 9.05078125000002 6.33333333333331  7.8134765625 6.95182291666669  6.7880859375 8.18880208333331  C 5.7626953125 9.42578125  5.25 10.9184027777778  5.25 12.6666666666667  C 5.25 14.4149305555556  5.7626953125 15.9075520833333  6.7880859375 17.14453125  C 7.8134765625 18.3815104166667  9.05078125000002 19  10.5 19  C 10.5887568495912 19  10.6805649711098 18.9930403161319  10.7747176982244 18.9799734347638  C 12.2178874214525 18.7796847320847  14.2119140625 17.14453125  14.2119140625 17.14453125  Z M 17.923828125 3.7109375  C 19.974609375 6.18489583333331  21 9.1701388888889  21 12.6666666666667  C 21 14.4644097222222  20.7744140625 15.9405381944444  20.3232421875 17.0950520833333  L 15.9480777175251 28.3180014458751  L 12.8583984375 36.2434895833333  C 12.6396484375 36.7877604166667  12.31494140625 37.2165798611111  11.88427734375 37.5299479166667  C 11.45361328125 37.8433159722222  10.9921875 38  10.5 38  C 10.0078125 38  9.54638671875 37.8433159722222  9.11572265625 37.5299479166667  C 8.68505859375 37.2165798611111  8.3671875 36.7877604166667  8.162109375 36.2434895833333  L 0.6767578125 17.0950520833333  C 0.2255859375 15.9405381944444  0 14.4644097222222  0 12.6666666666667  C 0 9.1701388888889  1.025390625 6.18489583333331  3.076171875 3.7109375  C 5.126953125 1.23697916666669  7.60156249999998 0  10.5 0  C 13.3984375 0  15.873046875 1.23697916666669  17.923828125 3.7109375  Z " fill-rule="evenodd" />
    </mask>
  </defs>
  <g transform="matrix(1 0 0 1 -455 -349 )">
    <path d="M 14.2119140625 17.14453125  C 14.2119140625 17.14453125  15.75 14.4149305555556  15.75 12.6666666666667  C 15.75 10.9184027777778  15.2373046875 9.42578125  14.2119140625 8.18880208333331  C 13.1865234375 6.95182291666669  11.94921875 6.33333333333331  10.5 6.33333333333331  C 9.05078125000002 6.33333333333331  7.8134765625 6.95182291666669  6.7880859375 8.18880208333331  C 5.7626953125 9.42578125  5.25 10.9184027777778  5.25 12.6666666666667  C 5.25 14.4149305555556  5.7626953125 15.9075520833333  6.7880859375 17.14453125  C 7.8134765625 18.3815104166667  9.05078125000002 19  10.5 19  C 10.5887568495912 19  10.6805649711098 18.9930403161319  10.7747176982244 18.9799734347638  C 12.2178874214525 18.7796847320847  14.2119140625 17.14453125  14.2119140625 17.14453125  Z M 17.923828125 3.7109375  C 19.974609375 6.18489583333331  21 9.1701388888889  21 12.6666666666667  C 21 14.4644097222222  20.7744140625 15.9405381944444  20.3232421875 17.0950520833333  L 15.9480777175251 28.3180014458751  L 12.8583984375 36.2434895833333  C 12.6396484375 36.7877604166667  12.31494140625 37.2165798611111  11.88427734375 37.5299479166667  C 11.45361328125 37.8433159722222  10.9921875 38  10.5 38  C 10.0078125 38  9.54638671875 37.8433159722222  9.11572265625 37.5299479166667  C 8.68505859375 37.2165798611111  8.3671875 36.7877604166667  8.162109375 36.2434895833333  L 0.6767578125 17.0950520833333  C 0.2255859375 15.9405381944444  0 14.4644097222222  0 12.6666666666667  C 0 9.1701388888889  1.025390625 6.18489583333331  3.076171875 3.7109375  C 5.126953125 1.23697916666669  7.60156249999998 0  10.5 0  C 13.3984375 0  15.873046875 1.23697916666669  17.923828125 3.7109375  Z " fill-rule="nonzero" fill="#000000" stroke="none" transform="matrix(1 0 0 1 455 349 )" />
    <path d="M 14.2119140625 17.14453125  C 14.2119140625 17.14453125  15.75 14.4149305555556  15.75 12.6666666666667  C 15.75 10.9184027777778  15.2373046875 9.42578125  14.2119140625 8.18880208333331  C 13.1865234375 6.95182291666669  11.94921875 6.33333333333331  10.5 6.33333333333331  C 9.05078125000002 6.33333333333331  7.8134765625 6.95182291666669  6.7880859375 8.18880208333331  C 5.7626953125 9.42578125  5.25 10.9184027777778  5.25 12.6666666666667  C 5.25 14.4149305555556  5.7626953125 15.9075520833333  6.7880859375 17.14453125  C 7.8134765625 18.3815104166667  9.05078125000002 19  10.5 19  C 10.5887568495912 19  10.6805649711098 18.9930403161319  10.7747176982244 18.9799734347638  C 12.2178874214525 18.7796847320847  14.2119140625 17.14453125  14.2119140625 17.14453125  Z " stroke-width="2" stroke="#000000" fill="none" transform="matrix(1 0 0 1 455 349 )" mask="url(#clip10)" />
    <path d="M 17.923828125 3.7109375  C 19.974609375 6.18489583333331  21 9.1701388888889  21 12.6666666666667  C 21 14.4644097222222  20.7744140625 15.9405381944444  20.3232421875 17.0950520833333  L 15.9480777175251 28.3180014458751  L 12.8583984375 36.2434895833333  C 12.6396484375 36.7877604166667  12.31494140625 37.2165798611111  11.88427734375 37.5299479166667  C 11.45361328125 37.8433159722222  10.9921875 38  10.5 38  C 10.0078125 38  9.54638671875 37.8433159722222  9.11572265625 37.5299479166667  C 8.68505859375 37.2165798611111  8.3671875 36.7877604166667  8.162109375 36.2434895833333  L 0.6767578125 17.0950520833333  C 0.2255859375 15.9405381944444  0 14.4644097222222  0 12.6666666666667  C 0 9.1701388888889  1.025390625 6.18489583333331  3.076171875 3.7109375  C 5.126953125 1.23697916666669  7.60156249999998 0  10.5 0  C 13.3984375 0  15.873046875 1.23697916666669  17.923828125 3.7109375  Z " stroke-width="2" stroke="#000000" fill="none" transform="matrix(1 0 0 1 455 349 )" mask="url(#clip10)" />
  </g>
</svg>