<?xml version="1.0" encoding="utf-8"?>
<svg version="1.1" xmlns:xlink="http://www.w3.org/1999/xlink" width="46px" height="30px" xmlns="http://www.w3.org/2000/svg">
  <g transform="matrix(1 0 0 1 -370 -430 )">
    <path d="M 18.4 18.75  L 18.4 21  L 27.6 21  L 27.6 18.75  L 24 18.75  L 24 8.25  L 21.8020833333333 8.25  L 18.25625 11.4609375  L 20.1010416666667 13.3359375  C 20.771875 12.7578125  21.2111111111111 12.3125  21.41875 12  L 21.4666666666667 12  L 21.4666666666667 18.75  L 18.4 18.75  Z M 30.1635416666667 11.671875  C 30.4989583333333 12.796875  30.6666666666667 13.90625  30.6666666666667 15  C 30.6666666666667 16.09375  30.4989583333333 17.203125  30.1635416666667 18.328125  C 29.828125 19.453125  29.3529513888889 20.5  28.7380208333333 21.46875  C 28.1230902777778 22.4375  27.3125 23.2265625  26.30625 23.8359375  C 25.3 24.4453125  24.1979166666667 24.75  23 24.75  C 21.8020833333333 24.75  20.7 24.4453125  19.69375 23.8359375  C 18.6875 23.2265625  17.8769097222222 22.4375  17.2619791666667 21.46875  C 16.6470486111111 20.5  16.171875 19.453125  15.8364583333333 18.328125  C 15.5010416666667 17.203125  15.3333333333333 16.09375  15.3333333333333 15  C 15.3333333333333 13.90625  15.5010416666667 12.796875  15.8364583333333 11.671875  C 16.171875 10.546875  16.6470486111111 9.5  17.2619791666667 8.53125  C 17.8769097222222 7.5625  18.6875 6.7734375  19.69375 6.1640625  C 20.7 5.5546875  21.8020833333333 5.25  23 5.25  C 24.1979166666667 5.25  25.3 5.5546875  26.30625 6.1640625  C 27.3125 6.7734375  28.1230902777778 7.5625  28.7380208333333 8.53125  C 29.3529513888889 9.5  29.828125 10.546875  30.1635416666667 11.671875  Z M 38.596875 22.7578125  C 39.7947916666667 21.5859375  41.2402777777778 21  43 21  L 43 9  C 41.2402777777778 9  39.7947916666667 8.4140625  38.596875 7.2421875  C 37.3989583333333 6.0703125  36.8 4.65624999999999  36.8 3  L 9.2 3  C 9.2 4.65624999999999  8.60104166666667 6.0703125  7.403125 7.2421875  C 6.20520833333333 8.4140625  4.75972222222222 9  3 9  L 3 21  C 4.75972222222222 21  6.20520833333333 21.5859375  7.403125 22.7578125  C 8.60104166666667 23.9296875  9.2 25.34375  9.2 27  L 36.8 27  C 36.8 25.34375  37.3989583333333 23.9296875  38.596875 22.7578125  Z M 45.5447916666667 0.445312500000001  C 45.8482638888889 0.742187499999998  46 1.09375  46 1.5  L 46 28.5  C 46 28.90625  45.8482638888889 29.2578125  45.5447916666667 29.5546875  C 45.2413194444445 29.8515625  44.8819444444445 30  44.4666666666667 30  L 1.53333333333333 30  C 1.11805555555556 30  0.758680555555556 29.8515625  0.455208333333333 29.5546875  C 0.151736111111111 29.2578125  0 28.90625  0 28.5  L 0 1.5  C 0 1.09375  0.151736111111111 0.742187499999998  0.455208333333333 0.445312500000001  C 0.758680555555556 0.148437499999998  1.11805555555556 0  1.53333333333333 0  L 44.4666666666667 0  C 44.8819444444445 0  45.2413194444445 0.148437499999998  45.5447916666667 0.445312500000001  Z " fill-rule="nonzero" fill="#000000" stroke="none" transform="matrix(1 0 0 1 370 430 )" />
  </g>
</svg>