<?xml version="1.0" encoding="utf-8"?>
<svg version="1.1" xmlns:xlink="http://www.w3.org/1999/xlink" width="27px" height="33px" xmlns="http://www.w3.org/2000/svg">
  <g transform="matrix(1 0 0 1 -193 -142 )">
    <path d="M 20.091796875 16.005859375  C 20.197265625 16.134765625  20.25 16.2994791666667  20.25 16.5  C 20.25 16.7005208333333  20.197265625 16.865234375  20.091796875 16.994140625  L 14.466796875 23.869140625  C 14.361328125 23.998046875  14.2265625 24.0625  14.0625 24.0625  C 13.91015625 24.0625  13.7783203125 23.9944661458333  13.6669921875 23.8583984375  C 13.5556640625 23.7223307291667  13.5 23.5611979166667  13.5 23.375  L 13.5 19.25  L 7.3125 19.25  C 7.16015625 19.25  7.0283203125 19.1819661458333  6.9169921875 19.0458984375  C 6.8056640625 18.9098307291667  6.75 18.7486979166667  6.75 18.5625  L 6.75 14.4375  C 6.75 14.2513020833333  6.8056640625 14.0901692708333  6.9169921875 13.9541015625  C 7.0283203125 13.8180338541667  7.16015625 13.75  7.3125 13.75  L 13.5 13.75  L 13.5 9.625  C 13.5 9.42447916666666  13.552734375 9.259765625  13.658203125 9.130859375  C 13.763671875 9.001953125  13.8984375 8.9375  14.0625 8.9375  C 14.203125 8.9375  14.34375 9.00911458333333  14.484375 9.15234375  L 20.091796875 16.005859375  Z M 21.779296875 22.365234375  C 22.634765625 20.5748697916667  23.0625 18.6197916666667  23.0625 16.5  C 23.0625 14.3802083333333  22.634765625 12.4251302083333  21.779296875 10.634765625  C 20.923828125 8.84440104166666  19.763671875 7.42643229166666  18.298828125 6.380859375  C 16.833984375 5.33528645833333  15.234375 4.8125  13.5 4.8125  C 11.765625 4.8125  10.166015625 5.33528645833333  8.701171875 6.380859375  C 7.236328125 7.42643229166666  6.076171875 8.84440104166666  5.220703125 10.634765625  C 4.365234375 12.4251302083333  3.9375 14.3802083333333  3.9375 16.5  C 3.9375 18.6197916666667  4.365234375 20.5748697916667  5.220703125 22.365234375  C 6.076171875 24.1555989583333  7.236328125 25.5735677083333  8.701171875 26.619140625  C 10.166015625 27.6647135416667  11.765625 28.1875  13.5 28.1875  C 15.234375 28.1875  16.833984375 27.6647135416667  18.298828125 26.619140625  C 19.763671875 25.5735677083333  20.923828125 24.1555989583333  21.779296875 22.365234375  Z M 25.189453125 8.2177734375  C 26.396484375 10.7457682291667  27 13.5065104166667  27 16.5  C 27 19.4934895833333  26.396484375 22.2542317708333  25.189453125 24.7822265625  C 23.982421875 27.3102213541667  22.3447265625 29.3118489583333  20.2763671875 30.787109375  C 18.2080078125 32.2623697916667  15.94921875 33  13.5 33  C 11.05078125 33  8.7919921875 32.2623697916667  6.7236328125 30.787109375  C 4.6552734375 29.3118489583333  3.017578125 27.3102213541667  1.810546875 24.7822265625  C 0.603515625 22.2542317708333  0 19.4934895833333  0 16.5  C 0 13.5065104166667  0.603515625 10.7457682291667  1.810546875 8.2177734375  C 3.017578125 5.68977864583333  4.6552734375 3.68815104166666  6.7236328125 2.212890625  C 8.7919921875 0.73763020833333  11.05078125 0  13.5 0  C 15.94921875 0  18.2080078125 0.73763020833333  20.2763671875 2.212890625  C 22.3447265625 3.68815104166666  23.982421875 5.68977864583333  25.189453125 8.2177734375  Z " fill-rule="nonzero" fill="#000000" stroke="none" transform="matrix(1 0 0 1 193 142 )" />
  </g>
</svg>