<?xml version="1.0" encoding="utf-8"?>
<svg version="1.1" xmlns:xlink="http://www.w3.org/1999/xlink" width="19px" height="24px" xmlns="http://www.w3.org/2000/svg">
  <g transform="matrix(1 0 0 1 -307 -1110 )">
    <path d="M 18.0424901185771 19.7386363636364  C 18.1926877470356 19.8181818181818  18.2865612648221 19.9375  18.3241106719368 20.0965909090909  L 18.9812252964427 22.8068181818182  C 19.0187747035573 22.9431818181818  19 23.0710227272727  18.9249011857708 23.1903409090909  C 18.8498023715415 23.3096590909091  18.7434123847167 23.3920454545455  18.6057312252964 23.4375  L 18.5118577075099 23.4545454545455  C 18.461791831357 23.4772727272727  18.3960803689065 23.4971590909091  18.3147233201581 23.5142045454545  C 18.2333662714098 23.53125  18.1332345191041 23.5568181818182  18.0143280632411 23.5909090909091  C 17.8954216073781 23.625  17.7608695652174 23.65625  17.6106719367589 23.6846590909091  C 17.4604743083004 23.7130681818182  17.3008893280632 23.7414772727273  17.1319169960474 23.7698863636364  C 16.9629446640316 23.7982954545455  16.7751976284585 23.8267045454545  16.5686758893281 23.8551136363636  C 16.3621541501976 23.8835227272727  16.1525032938076 23.9090909090909  15.9397233201581 23.9318181818182  C 15.7269433465086 23.9545454545455  15.4985177865613 23.9715909090909  15.2544466403162 23.9829545454545  C 15.0103754940711 23.9943181818182  14.7694334650856 24  14.5316205533597 24  C 11.602766798419 24  9.0431488801054 23.2585227272727  6.85276679841897 21.7755681818182  C 4.66238471673254 20.2926136363636  3.17292490118577 18.2954545454545  2.38438735177866 15.7840909090909  L 0.600790513833992 15.7840909090909  C 0.438076416337286 15.7840909090909  0.297266139657444 15.7301136363636  0.178359683794466 15.6221590909091  C 0.0594532279314888 15.5142045454545  0 15.3863636363636  0 15.2386363636364  L 0 13.3125  C 0 13.1647727272727  0.0594532279314888 13.0369318181818  0.178359683794466 12.9289772727273  C 0.297266139657444 12.8210227272727  0.438076416337286 12.7670454545455  0.600790513833992 12.7670454545455  L 1.8399209486166 12.7670454545455  C 1.81488801054018 12.1193181818182  1.82114624505929 11.5227272727273  1.85869565217391 10.9772727272727  L 0.600790513833992 10.9772727272727  C 0.425559947299078 10.9772727272727  0.281620553359684 10.9261363636364  0.16897233201581 10.8238636363636  C 0.0563241106719368 10.7215909090909  0 10.5909090909091  0 10.4318181818182  L 0 8.48863636363636  C 0 8.32954545454545  0.0563241106719368 8.19886363636363  0.16897233201581 8.09659090909091  C 0.281620553359684 7.99431818181818  0.425559947299078 7.94318181818182  0.600790513833992 7.94318181818182  L 2.44071146245059 7.94318181818182  C 3.27931488801054 5.55681818181818  4.80319499341238 3.63636363636364  7.01235177865613 2.18181818181818  C 9.22150856389987 0.727272727272724  11.7279314888011 0  14.5316205533597 0  C 15.8083003952569 0  17.0223978919631 0.130681818181817  18.1739130434783 0.392045454545455  C 18.3115942028986 0.426136363636362  18.4367588932806 0.511363636363638  18.5494071146245 0.647727272727272  C 18.6245059288538 0.772727272727271  18.6432806324111 0.909090909090908  18.6057312252964 1.05681818181818  L 17.798418972332 3.76704545454546  C 17.7608695652174 3.91477272727272  17.6732542819499 4.02556818181818  17.5355731225296 4.09943181818182  C 17.3978919631094 4.17329545454545  17.2476943346509 4.1875  17.0849802371541 4.14204545454546  L 17.0098814229249 4.125  C 16.9598155467721 4.11363636363636  16.8878458498024 4.09943181818182  16.7939723320158 4.08238636363636  L 16.4654150197628 4.02272727272727  C 16.4654150197628 4.02272727272727  16.324604743083 4.00284090909091  16.0429841897233 3.96306818181818  C 15.7613636363636 3.92329545454545  15.5986495388669 3.90625  15.5548418972332 3.91193181818182  C 15.5110342555995 3.91761363636364  15.3295454545455 3.90340909090909  15.0103754940711 3.86931818181818  C 14.6912055335968 3.83522727272727  14.5065876152833 3.82954545454545  14.4565217391304 3.85227272727273  C 12.8794466403162 3.85227272727273  11.4650856389987 4.21590909090909  10.2134387351779 4.94318181818182  C 8.96179183135705 5.67045454545454  8.02305665349144 6.67045454545454  7.39723320158103 7.94318181818182  L 16.1837944664032 7.94318181818182  C 16.3840579710145 7.94318181818182  16.5405138339921 8.01136363636363  16.653162055336 8.14772727272727  C 16.778326745718 8.28409090909091  16.8221343873518 8.43181818181818  16.7845849802372 8.59090909090909  L 16.3339920948617 10.5340909090909  C 16.2714097496706 10.8295454545455  16.0711462450593 10.9772727272727  15.7332015810277 10.9772727272727  L 6.57114624505929 10.9772727272727  C 6.53359683794466 11.3977272727273  6.53359683794466 11.9943181818182  6.57114624505929 12.7670454545455  L 15.1887351778656 12.7670454545455  C 15.3764822134387 12.7670454545455  15.5329380764163 12.8352272727273  15.6581027667984 12.9715909090909  C 15.7707509881423 13.1079545454545  15.8083003952569 13.2613636363636  15.7707509881423 13.4318181818182  L 15.3201581027668 15.3409090909091  C 15.2951251646904 15.4659090909091  15.2262845849802 15.5710227272727  15.1136363636364 15.65625  C 15.0009881422925 15.7414772727273  14.8758234519104 15.7840909090909  14.7381422924901 15.7840909090909  L 7.47233201581028 15.7840909090909  C 8.07312252964427 17.1136363636364  9.00872859025033 18.1676136363636  10.2791501976285 18.9460227272727  C 11.5495718050066 19.7244318181818  12.9795783926219 20.1136363636364  14.5691699604743 20.1136363636364  C 14.7944664031621 20.1136363636364  15.0197628458498 20.1051136363636  15.2450592885375 20.0880681818182  C 15.4703557312253 20.0710227272727  15.6800065876153 20.0511363636364  15.8740118577075 20.0284090909091  C 16.0680171277997 20.0056818181818  16.2526350461133 19.9801136363636  16.4278656126482 19.9517045454545  C 16.6030961791831 19.9232954545455  16.7564229249012 19.8948863636364  16.8878458498024 19.8664772727273  C 17.0192687747036 19.8380681818182  17.135046113307 19.8125  17.2351778656126 19.7897727272727  L 17.4604743083004 19.7386363636364  L 17.554347826087 19.7045454545455  C 17.7170619235837 19.6477272727273  17.8797760210804 19.6590909090909  18.0424901185771 19.7386363636364  Z " fill-rule="nonzero" fill="#555555" stroke="none" transform="matrix(1 0 0 1 307 1110 )" />
  </g>
</svg>