<?xml version="1.0" encoding="utf-8"?>
<svg version="1.1" xmlns:xlink="http://www.w3.org/1999/xlink" width="18px" height="21px" xmlns="http://www.w3.org/2000/svg">
  <g transform="matrix(1 0 0 1 -455 -769 )">
    <path d="M 17.0928853754941 17.2713068181818  C 17.2351778656126 17.3409090909091  17.3241106719368 17.4453125  17.3596837944664 17.5845170454545  L 17.9822134387352 19.9559659090909  C 18.0177865612648 20.0752840909091  18 20.1871448863636  17.9288537549407 20.2915482954545  C 17.8577075098814 20.3959517045455  17.7569169960474 20.4680397727273  17.6264822134387 20.5078125  L 17.5375494071146 20.5227272727273  C 17.4901185770751 20.5426136363636  17.4278656126482 20.5600142045455  17.350790513834 20.5749289772727  C 17.2737154150198 20.58984375  17.1788537549407 20.6122159090909  17.0662055335968 20.6420454545455  C 16.953557312253 20.671875  16.8260869565217 20.69921875  16.6837944664032 20.7240767045455  C 16.5415019762846 20.7489346590909  16.3903162055336 20.7737926136364  16.2302371541502 20.7986505681818  C 16.0701581027668 20.8235085227273  15.8922924901186 20.8483664772727  15.6966403162055 20.8732244318182  C 15.5009881422925 20.8980823863636  15.302371541502 20.9204545454545  15.100790513834 20.9403409090909  C 14.899209486166 20.9602272727273  14.6828063241107 20.9751420454545  14.451581027668 20.9850852272727  C 14.2203557312253 20.9950284090909  13.9920948616601 21  13.7667984189723 21  C 10.9920948616601 21  8.56719367588933 20.3512073863636  6.49209486166008 19.0536221590909  C 4.41699604743083 17.7560369318182  3.00592885375494 16.0085227272727  2.25889328063241 13.8110795454545  L 0.569169960474308 13.8110795454545  C 0.41501976284585 13.8110795454545  0.281620553359684 13.7638494318182  0.16897233201581 13.6693892045455  C 0.0563241106719367 13.5749289772727  0 13.4630681818182  0 13.3338068181818  L 0 11.6484375  C 0 11.5191761363636  0.0563241106719367 11.4073153409091  0.16897233201581 11.3128551136364  C 0.281620553359684 11.2183948863636  0.41501976284585 11.1711647727273  0.569169960474308 11.1711647727273  L 1.74308300395257 11.1711647727273  C 1.71936758893281 10.6044034090909  1.72529644268775 10.0823863636364  1.76086956521739 9.60511363636364  L 0.569169960474308 9.60511363636364  C 0.403162055335968 9.60511363636364  0.266798418972332 9.56036931818182  0.160079051383399 9.47088068181818  C 0.0533596837944664 9.38139204545455  0 9.26704545454546  0 9.12784090909091  L 0 7.42755681818182  C 0 7.28835227272727  0.0533596837944664 7.17400568181818  0.160079051383399 7.08451704545455  C 0.266798418972332 6.99502840909091  0.403162055335968 6.95028409090909  0.569169960474308 6.95028409090909  L 2.31225296442688 6.95028409090909  C 3.10671936758893 4.86221590909091  4.550395256917 3.18181818181818  6.64328063241107 1.90909090909091  C 8.73616600790514 0.636363636363633  11.1106719367589 0  13.7667984189723 0  C 14.9762845849802 0  16.1264822134387 0.114346590909089  17.2173913043478 0.343039772727273  C 17.3478260869565 0.372869318181817  17.4664031620553 0.447443181818183  17.5731225296443 0.566761363636363  C 17.6442687747036 0.676136363636362  17.6620553359684 0.795454545454545  17.6264822134387 0.92471590909091  L 16.8616600790514 3.29616477272727  C 16.8260869565217 3.42542613636363  16.7430830039526 3.52237215909091  16.6126482213439 3.58700284090909  C 16.4822134387352 3.65163352272727  16.3399209486166 3.6640625  16.1857707509881 3.62428977272727  L 16.1146245059289 3.609375  C 16.0671936758893 3.59943181818182  15.9990118577075 3.58700284090909  15.9100790513834 3.57208806818182  L 15.598814229249 3.51988636363636  C 15.598814229249 3.51988636363636  15.4654150197628 3.50248579545455  15.1986166007905 3.46768465909091  C 14.9318181818182 3.43288352272727  14.7776679841897 3.41796875  14.7361660079051 3.42294034090909  C 14.6946640316206 3.42791193181818  14.5227272727273 3.41548295454545  14.2203557312253 3.38565340909091  C 13.9179841897233 3.35582386363636  13.7430830039526 3.35085227272727  13.695652173913 3.37073863636364  C 12.201581027668 3.37073863636364  10.8616600790514 3.68892045454545  9.67588932806324 4.32528409090909  C 8.4901185770751 4.96164772727273  7.60079051383399 5.83664772727272  7.00790513833992 6.95028409090909  L 15.3320158102767 6.95028409090909  C 15.5217391304348 6.95028409090909  15.6699604743083 7.00994318181818  15.7766798418972 7.12926136363636  C 15.895256916996 7.24857954545454  15.9367588932806 7.37784090909091  15.901185770751 7.51704545454545  L 15.4743083003953 9.21732954545455  C 15.4150197628458 9.47585227272727  15.2252964426877 9.60511363636364  14.9051383399209 9.60511363636364  L 6.22529644268775 9.60511363636364  C 6.1897233201581 9.97301136363636  6.1897233201581 10.4950284090909  6.22529644268775 11.1711647727273  L 14.3893280632411 11.1711647727273  C 14.5671936758893 11.1711647727273  14.7154150197628 11.2308238636364  14.8339920948617 11.3501420454545  C 14.9407114624506 11.4694602272727  14.9762845849802 11.6036931818182  14.9407114624506 11.7528409090909  L 14.5138339920949 13.4232954545455  C 14.4901185770751 13.5326704545455  14.4249011857708 13.6246448863636  14.3181818181818 13.69921875  C 14.2114624505929 13.7737926136364  14.0928853754941 13.8110795454545  13.9624505928854 13.8110795454545  L 7.07905138339921 13.8110795454545  C 7.64822134387352 14.9744318181818  8.53458498023715 15.8966619318182  9.73814229249012 16.5777698863636  C 10.9416996047431 17.2588778409091  12.296442687747 17.5994318181818  13.802371541502 17.5994318181818  C 14.0158102766798 17.5994318181818  14.2292490118577 17.5919744318182  14.4426877470356 17.5770596590909  C 14.6561264822134 17.5621448863636  14.854743083004 17.5447443181818  15.0385375494071 17.5248579545455  C 15.2223320158103 17.5049715909091  15.397233201581 17.4825994318182  15.5632411067194 17.4577414772727  C 15.7292490118577 17.4328835227273  15.8745059288538 17.4080255681818  15.9990118577075 17.3831676136364  C 16.1235177865613 17.3583096590909  16.2332015810277 17.3359375  16.3280632411067 17.3160511363636  L 16.5415019762846 17.2713068181818  L 16.6304347826087 17.2414772727273  C 16.7845849802372 17.1917613636364  16.9387351778656 17.2017045454545  17.0928853754941 17.2713068181818  Z " fill-rule="nonzero" fill="#555555" stroke="none" transform="matrix(1 0 0 1 455 769 )" />
  </g>
</svg>