<?xml version="1.0" encoding="utf-8"?>
<svg version="1.1" xmlns:xlink="http://www.w3.org/1999/xlink" width="18px" height="15px" xmlns="http://www.w3.org/2000/svg">
  <g transform="matrix(1 0 0 1 -227 -147 )">
    <path d="M 11.0390625 9.19921875  C 11.9873798076923 8.40895432692308  12.4615384615385 7.45793269230769  12.4615384615385 6.34615384615385  C 12.4615384615385 5.234375  11.9873798076923 4.28335336538462  11.0390625 3.49308894230769  C 10.0907451923077 2.70282451923077  8.94951923076923 2.30769230769231  7.61538461538462 2.30769230769231  C 6.28125 2.30769230769231  5.14002403846154 2.70282451923077  4.19170673076923 3.49308894230769  C 3.24338942307692 4.28335336538462  2.76923076923077 5.234375  2.76923076923077 6.34615384615385  C 2.76923076923077 7.45793269230769  3.24338942307692 8.40895432692308  4.19170673076923 9.19921875  C 5.14002403846154 9.98948317307692  6.28125 10.3846153846154  7.61538461538462 10.3846153846154  C 8.94951923076923 10.3846153846154  10.0907451923077 9.98948317307692  11.0390625 9.19921875  Z M 17.5997596153846 13.0348557692308  C 17.8665865384615 13.2572115384615  18 13.5276442307692  18 13.8461538461538  C 18 14.1586538461538  17.8629807692308 14.4290865384615  17.5889423076923 14.6574519230769  C 17.3149038461538 14.8858173076923  16.9903846153846 15  16.6153846153846 15  C 16.2259615384615 15  15.9014423076923 14.8858173076923  15.6418269230769 14.6574519230769  L 11.9314903846154 11.5745192307692  C 10.640625 12.3197115384615  9.20192307692308 12.6923076923077  7.61538461538462 12.6923076923077  C 6.58413461538462 12.6923076923077  5.59795673076923 12.5255408653846  4.65685096153846 12.1920072115385  C 3.71574519230769 11.8584735576923  2.90444711538462 11.4077524038462  2.22295673076923 10.83984375  C 1.54146634615385 10.2719350961538  1.00060096153846 9.59585336538462  0.600360576923077 8.81159855769231  C 0.200120192307692 8.02734375  0 7.20552884615384  0 6.34615384615385  C 0 5.48677884615384  0.200120192307692 4.66496394230769  0.600360576923077 3.88070913461538  C 1.00060096153846 3.09645432692308  1.54146634615385 2.42037259615385  2.22295673076923 1.85246394230769  C 2.90444711538462 1.28455528846154  3.71574519230769 0.833834134615384  4.65685096153846 0.500300480769231  C 5.59795673076923 0.166766826923077  6.58413461538462 0  7.61538461538462 0  C 8.64663461538462 0  9.6328125 0.166766826923077  10.5739182692308 0.500300480769231  C 11.5150240384615 0.833834134615384  12.3263221153846 1.28455528846154  13.0078125 1.85246394230769  C 13.6893028846154 2.42037259615385  14.2301682692308 3.09645432692308  14.6304086538462 3.88070913461538  C 15.0306490384615 4.66496394230769  15.2307692307692 5.48677884615384  15.2307692307692 6.34615384615385  C 15.2307692307692 7.66826923076923  14.7836538461538 8.8671875  13.8894230769231 9.94290865384615  L 17.5997596153846 13.0348557692308  Z " fill-rule="nonzero" fill="#000000" stroke="none" transform="matrix(1 0 0 1 227 147 )" />
  </g>
</svg>