<?xml version="1.0" encoding="utf-8"?>
<svg version="1.1" xmlns:xlink="http://www.w3.org/1999/xlink" width="30px" height="30px" xmlns="http://www.w3.org/2000/svg">
  <g transform="matrix(1 0 0 1 -20 0 )">
    <path d="M 35 0  C 43.4 0  50 6.6  50 15  C 50 23.4  43.4 30  35 30  C 26.6 30  20 23.4  20 15  C 20 6.6  26.6 0  35 0  Z " fill-rule="nonzero" fill="#ffffff" stroke="none" />
    <path d="M 35 0.5  C 43.12 0.5  49.5 6.88  49.5 15  C 49.5 23.12  43.12 29.5  35 29.5  C 26.88 29.5  20.5 23.12  20.5 15  C 20.5 6.88  26.88 0.5  35 0.5  Z " stroke-width="1" stroke="#797979" fill="none" />
  </g>
</svg>