<?xml version="1.0" encoding="utf-8"?>
<svg version="1.1" xmlns:xlink="http://www.w3.org/1999/xlink" width="36px" height="46px" xmlns="http://www.w3.org/2000/svg">
  <g transform="matrix(1 0 0 1 -96 -1042 )">
    <path d="M 2.76923076923077 35.3214285714286  L 2.76923076923077 42.7142857142857  L 9 42.7142857142857  L 9 35.3214285714286  L 2.76923076923077 35.3214285714286  Z M 10.3846153846154 35.3214285714286  L 10.3846153846154 42.7142857142857  L 17.3076923076923 42.7142857142857  L 17.3076923076923 35.3214285714286  L 10.3846153846154 35.3214285714286  Z M 2.76923076923077 25.4642857142857  L 2.76923076923077 33.6785714285714  L 9 33.6785714285714  L 9 25.4642857142857  L 2.76923076923077 25.4642857142857  Z M 10.3846153846154 25.4642857142857  L 10.3846153846154 33.6785714285714  L 17.3076923076923 33.6785714285714  L 17.3076923076923 25.4642857142857  L 10.3846153846154 25.4642857142857  Z M 2.76923076923077 16.4285714285714  L 2.76923076923077 23.8214285714286  L 9 23.8214285714286  L 9 16.4285714285714  L 2.76923076923077 16.4285714285714  Z M 18.6923076923077 35.3214285714286  L 18.6923076923077 42.7142857142857  L 25.6153846153846 42.7142857142857  L 25.6153846153846 35.3214285714286  L 18.6923076923077 35.3214285714286  Z M 10.3846153846154 16.4285714285714  L 10.3846153846154 23.8214285714286  L 17.3076923076923 23.8214285714286  L 17.3076923076923 16.4285714285714  L 10.3846153846154 16.4285714285714  Z M 27 35.3214285714286  L 27 42.7142857142857  L 33.2307692307692 42.7142857142857  L 33.2307692307692 35.3214285714286  L 27 35.3214285714286  Z M 18.6923076923077 25.4642857142857  L 18.6923076923077 33.6785714285714  L 25.6153846153846 33.6785714285714  L 25.6153846153846 25.4642857142857  L 18.6923076923077 25.4642857142857  Z M 10.8713942307692 12.0775669642857  C 11.0084134615385 11.9149925595238  11.0769230769231 11.7224702380952  11.0769230769231 11.5  L 11.0769230769231 4.10714285714286  C 11.0769230769231 3.88467261904762  11.0084134615385 3.69215029761905  10.8713942307692 3.52957589285714  C 10.734375 3.36700148809523  10.5721153846154 3.28571428571428  10.3846153846154 3.28571428571428  L 9 3.28571428571428  C 8.8125 3.28571428571428  8.65024038461539 3.36700148809523  8.51322115384615 3.52957589285714  C 8.37620192307692 3.69215029761905  8.30769230769231 3.88467261904762  8.30769230769231 4.10714285714286  L 8.30769230769231 11.5  C 8.30769230769231 11.7224702380952  8.37620192307692 11.9149925595238  8.51322115384615 12.0775669642857  C 8.65024038461539 12.2401413690476  8.8125 12.3214285714286  9 12.3214285714286  L 10.3846153846154 12.3214285714286  C 10.5721153846154 12.3214285714286  10.734375 12.2401413690476  10.8713942307692 12.0775669642857  Z M 27 25.4642857142857  L 27 33.6785714285714  L 33.2307692307692 33.6785714285714  L 33.2307692307692 25.4642857142857  L 27 25.4642857142857  Z M 18.6923076923077 16.4285714285714  L 18.6923076923077 23.8214285714286  L 25.6153846153846 23.8214285714286  L 25.6153846153846 16.4285714285714  L 18.6923076923077 16.4285714285714  Z M 27 16.4285714285714  L 27 23.8214285714286  L 33.2307692307692 23.8214285714286  L 33.2307692307692 16.4285714285714  L 27 16.4285714285714  Z M 27.4867788461538 12.0775669642857  C 27.6237980769231 11.9149925595238  27.6923076923077 11.7224702380952  27.6923076923077 11.5  L 27.6923076923077 4.10714285714286  C 27.6923076923077 3.88467261904762  27.6237980769231 3.69215029761905  27.4867788461538 3.52957589285714  C 27.3497596153846 3.36700148809523  27.1875 3.28571428571428  27 3.28571428571428  L 25.6153846153846 3.28571428571428  C 25.4278846153846 3.28571428571428  25.265625 3.36700148809523  25.1286057692308 3.52957589285714  C 24.9915865384615 3.69215029761905  24.9230769230769 3.88467261904762  24.9230769230769 4.10714285714286  L 24.9230769230769 11.5  C 24.9230769230769 11.7224702380952  24.9915865384615 11.9149925595238  25.1286057692308 12.0775669642857  C 25.265625 12.2401413690476  25.4278846153846 12.3214285714286  25.6153846153846 12.3214285714286  L 27 12.3214285714286  C 27.1875 12.3214285714286  27.3497596153846 12.2401413690476  27.4867788461538 12.0775669642857  Z M 35.1778846153846 7.546875  C 35.7259615384615 8.19717261904762  36 8.9672619047619  36 9.85714285714286  L 36 42.7142857142857  C 36 43.6041666666667  35.7259615384615 44.374255952381  35.1778846153846 45.0245535714286  C 34.6298076923077 45.6748511904762  33.9807692307692 46  33.2307692307692 46  L 2.76923076923077 46  C 2.01923076923077 46  1.37019230769231 45.6748511904762  0.822115384615385 45.0245535714286  C 0.274038461538462 44.374255952381  0 43.6041666666667  0 42.7142857142857  L 0 9.85714285714286  C 0 8.9672619047619  0.274038461538462 8.19717261904762  0.822115384615385 7.546875  C 1.37019230769231 6.89657738095238  2.01923076923077 6.57142857142857  2.76923076923077 6.57142857142857  L 5.53846153846154 6.57142857142857  L 5.53846153846154 4.10714285714286  C 5.53846153846154 2.97767857142857  5.87740384615385 2.01078869047619  6.55528846153846 1.20647321428572  C 7.23317307692308 0.402157738095239  8.04807692307692 0  9 0  L 10.3846153846154 0  C 11.3365384615385 0  12.1514423076923 0.402157738095239  12.8293269230769 1.20647321428572  C 13.5072115384615 2.01078869047619  13.8461538461538 2.97767857142857  13.8461538461538 4.10714285714286  L 13.8461538461538 6.57142857142857  L 22.1538461538462 6.57142857142857  L 22.1538461538462 4.10714285714286  C 22.1538461538462 2.97767857142857  22.4927884615385 2.01078869047619  23.1706730769231 1.20647321428572  C 23.8485576923077 0.402157738095239  24.6634615384615 0  25.6153846153846 0  L 27 0  C 27.9519230769231 0  28.7668269230769 0.402157738095239  29.4447115384615 1.20647321428572  C 30.1225961538462 2.01078869047619  30.4615384615385 2.97767857142857  30.4615384615385 4.10714285714286  L 30.4615384615385 6.57142857142857  L 33.2307692307692 6.57142857142857  C 33.9807692307692 6.57142857142857  34.6298076923077 6.89657738095238  35.1778846153846 7.546875  Z " fill-rule="nonzero" fill="#ffffff" stroke="none" transform="matrix(1 0 0 1 96 1042 )" />
  </g>
</svg>