<?xml version="1.0" encoding="utf-8"?>
<svg version="1.1" xmlns:xlink="http://www.w3.org/1999/xlink" width="36px" height="45px" xmlns="http://www.w3.org/2000/svg">
  <g transform="matrix(1 0 0 1 -325 -1043 )">
    <path d="M 8.12109375 32.8083147321429  C 8.70703125 32.1805245535714  9 31.4229910714286  9 30.5357142857143  C 9 29.6484375  8.70703125 28.8909040178571  8.12109375 28.2631138392857  C 7.53515625 27.6353236607143  6.828125 27.3214285714286  6 27.3214285714286  C 5.171875 27.3214285714286  4.46484375 27.6353236607143  3.87890625 28.2631138392857  C 3.29296875 28.8909040178571  3 29.6484375  3 30.5357142857143  C 3 31.4229910714286  3.29296875 32.1805245535714  3.87890625 32.8083147321429  C 4.46484375 33.4361049107143  5.171875 33.75  6 33.75  C 6.828125 33.75  7.53515625 33.4361049107143  8.12109375 32.8083147321429  Z M 32.12109375 32.8083147321429  C 32.70703125 32.1805245535714  33 31.4229910714286  33 30.5357142857143  C 33 29.6484375  32.70703125 28.8909040178571  32.12109375 28.2631138392857  C 31.53515625 27.6353236607143  30.828125 27.3214285714286  30 27.3214285714286  C 29.171875 27.3214285714286  28.46484375 27.6353236607143  27.87890625 28.2631138392857  C 27.29296875 28.8909040178571  27 29.6484375  27 30.5357142857143  C 27 31.4229910714286  27.29296875 32.1805245535714  27.87890625 32.8083147321429  C 28.46484375 33.4361049107143  29.171875 33.75  30 33.75  C 30.828125 33.75  31.53515625 33.4361049107143  32.12109375 32.8083147321429  Z M 31.59375 21.9224330357143  C 31.890625 21.5373883928571  32 21.09375  31.921875 20.5915178571429  L 30.234375 10.9486607142857  C 30.15625 10.5636160714286  29.98046875 10.2497209821429  29.70703125 10.0069754464286  C 29.43359375 9.76422991071428  29.1171875 9.64285714285714  28.7578125 10  L 7.2421875 10  C 6.8828125 9.64285714285714  6.56640625 9.76422991071428  6.29296875 10.0069754464286  C 6.01953125 10.2497209821429  5.84375 10.5636160714286  5.765625 10.9486607142857  L 4.078125 20.5915178571429  C 4 21.09375  4.109375 21.5373883928571  4.40625 21.9224330357143  C 4.703125 22.3074776785714  5.0859375 22.5  5.5546875 22  L 30.4453125 22  C 30.9140625 22.5  31.296875 22.3074776785714  31.59375 21.9224330357143  Z M 26.296875 6.07700892857143  C 26.515625 5.84263392857142  26.625 5.55803571428571  26.625 5.22321428571429  C 26.625 4.88839285714286  26.515625 4.60379464285714  26.296875 4.36941964285714  C 26.078125 4.13504464285714  25.8125 4.01785714285714  25.5 4  L 10.5 4  C 10.1875 4.01785714285714  9.921875 4.13504464285714  9.703125 4.36941964285714  C 9.484375 4.60379464285714  9.375 4.88839285714286  9.375 5.22321428571429  C 9.375 5.55803571428571  9.484375 5.84263392857142  9.703125 6.07700892857143  C 9.921875 6.31138392857143  10.1875 6.42857142857143  10.5 7  L 25.5 7  C 25.8125 6.42857142857143  26.078125 6.31138392857143  26.296875 6.07700892857143  Z M 35.4609375 17.8292410714286  C 35.8203125 19.5368303571429  36 21.4034598214286  36 23.4291294642857  L 36 38.5714285714286  L 33 38.5714285714286  L 33 41.7857142857143  C 33 42.6729910714286  32.70703125 43.4305245535714  32.12109375 44.0583147321429  C 31.53515625 44.6861049107143  30.828125 45  30 45  C 29.171875 45  28.46484375 44.6861049107143  27.87890625 44.0583147321429  C 27.29296875 43.4305245535714  27 42.6729910714286  27 41.7857142857143  L 27 38  L 9 38  L 9 41.7857142857143  C 9 42.6729910714286  8.70703125 43.4305245535714  8.12109375 44.0583147321429  C 7.53515625 44.6861049107143  6.828125 45  6 45  C 5.171875 45  4.46484375 44.6861049107143  3.87890625 44.0583147321429  C 3.29296875 43.4305245535714  3 42.6729910714286  3 41.7857142857143  L 3 38.5714285714286  L 0 38.5714285714286  L 0 23.4291294642857  C 0 21.5541294642857  0.1953125 19.6875  0.5859375 17.8292410714286  L 3 6.42857142857143  C 3.140625 5.12276785714286  3.90234375 3.97600446428571  5.28515625 2.98828125  C 6.66796875 2.00055803571428  8.46484375 1.25558035714286  10.67578125 0.753348214285713  C 12.88671875 0.251116071428569  15.328125 0  18 0  C 20.671875 0  23.11328125 0.251116071428569  25.32421875 0.753348214285713  C 27.53515625 1.25558035714286  29.33203125 2.00055803571428  30.71484375 2.98828125  C 32.09765625 3.97600446428571  32.859375 5.12276785714286  33 6.42857142857143  L 35.4609375 17.8292410714286  Z " fill-rule="nonzero" fill="#ffffff" stroke="none" transform="matrix(1 0 0 1 325 1043 )" />
  </g>
</svg>