<?xml version="1.0" encoding="utf-8"?>
<svg version="1.1" xmlns:xlink="http://www.w3.org/1999/xlink" width="40px" height="48px" xmlns="http://www.w3.org/2000/svg">
  <g transform="matrix(1 0 0 1 -554 -1041 )">
    <path d="M 9.44807121661721 27.6320474777448  L 23.026706231454 11.3376854599407  L 30.5281899109792 20.3394658753709  L 16.9495548961424 36.6338278931751  L 9.44807121661721 27.6320474777448  Z M 16.9495548961424 39.7388724035608  C 17.3768545994065 39.7388724035608  17.7329376854599 39.5679525222552  18.0178041543027 39.2261127596439  L 32.6884272997033 21.6213649851632  C 32.9891196834817 21.2605341246291  33.1394658753709 20.833234421365  33.1394658753709 20.3394658753709  C 33.1394658753709 19.8456973293769  32.9891196834817 19.4183976261128  32.6884272997033 19.0575667655786  L 24.0949554896142 8.74540059347181  C 23.8100890207715 8.40356083086054  23.4540059347181 8.2326409495549  23.026706231454 8.2326409495549  C 22.5994065281899 8.2326409495549  22.2433234421365 8.40356083086054  21.9584569732938 8.74540059347181  L 7.28783382789318 26.3501483679525  C 6.98714144411474 26.7109792284866  6.83679525222552 27.1382789317507  6.83679525222552 27.6320474777448  C 6.83679525222552 28.1258160237389  6.98714144411474 28.553115727003  7.28783382789318 28.9139465875371  L 15.8813056379822 39.2261127596439  C 16.1661721068249 39.5679525222552  16.5222551928783 39.7388724035608  16.9495548961424 39.7388724035608  Z M 40 18.5020771513353  C 40 19.5181008902077  39.7072205736894 20.3774480712166  39.1216617210683 21.080118694362  L 17.5905044510386 46.9459940652819  C 17.0049455984174 47.6486646884273  16.2888229475767 48  15.4421364985163 48  C 14.595450049456 48  13.8793273986152 47.6486646884273  13.2937685459941 46.9459940652819  L 10.3026706231454 43.3566765578635  C 11.188921859545 42.293175074184  11.6320474777448 41.0017804154303  11.6320474777448 39.4824925816024  C 11.6320474777448 37.9632047477745  11.188921859545 36.6718100890208  10.3026706231454 35.6083086053413  C 9.4164193867458 34.5448071216617  8.34025717111771 34.013056379822  7.07418397626113 34.013056379822  C 5.80811078140455 34.013056379822  4.73194856577646 34.5448071216617  3.84569732937686 35.6083086053413  L 0.878338278931751 32.0189910979229  C 0.292779426310584 31.3163204747774  0 30.4569732937685  0 29.4409495548961  C 0 28.4249258160237  0.292779426310584 27.5655786350148  0.878338278931751 26.8629080118694  L 22.4094955489614 1.0540059347181  C 22.9950544015826 0.351335311572697  23.7111770524233 0  24.5578635014837 0  C 25.404549950544 0  26.1206726013848 0.351335311572697  26.7062314540059 1.0540059347181  L 29.673590504451 4.61483679525223  C 28.7873392680514 5.67833827893175  28.3442136498516 6.96973293768546  28.3442136498516 8.48902077151335  C 28.3442136498516 10.0083086053412  28.7873392680514 11.2997032640949  29.673590504451 12.3632047477745  C 30.5598417408506 13.426706231454  31.6360039564787 13.9584569732938  32.9020771513353 13.9584569732938  C 34.1681503461919 13.9584569732938  35.24431256182 13.426706231454  36.1305637982196 12.3632047477745  L 39.1216617210683 15.9240356083086  C 39.7072205736894 16.626706231454  40 17.4860534124629  40 18.5020771513353  Z " fill-rule="nonzero" fill="#ffffff" stroke="none" transform="matrix(1 0 0 1 554 1041 )" />
  </g>
</svg>