<?xml version="1.0" encoding="utf-8"?>
<svg version="1.1" xmlns:xlink="http://www.w3.org/1999/xlink" width="52px" height="53px" xmlns="http://www.w3.org/2000/svg">
  <defs>
    <mask fill="white" id="clip1">
      <path d="M 44.5254027261462 30.2798129384256  C 44.5468814539447 30.334892179787  44.5576208178439 30.417511041829  44 30.5276695245518  L 44 50.3561964146532  C 44.5576208178439 51.0722265523513  44.3535729037588 51.6918680176669  43.9454770755886 52.2151208106002  C 43.5373812474184 52.7383736035334  43.0541098719537 53  42.4956629491945 53  L 30 53  L 30 37.1371784879189  L 22 37.1371784879189  L 22 53  L 9.50433705080545 53  C 8.94589012804626 53  8.46261875258158 52.7383736035334  8.0545229244114 52.2151208106002  C 7.64642709624122 51.6918680176669  7.44237918215613 51.0722265523513  8 50.3561964146532  L 8 30.5276695245518  C 7.44237918215613 30.5001299038711  7.44774886410574 30.4588204728501  7.45848822800496 30.4037412314887  C 7.46922759190417 30.3486619901273  7.47459727385378 30.3073525591063  7.47459727385378 30.2798129384256  L 26 10.6991426344505  L 44.5254027261462 30.2798129384256  Z M 51.9677819083024 26.7065471551052  C 51.9892606361008 27.0783320342946  51.9140850888063 27.4019225772928  51.7422552664188 27.6773187840998  L 49.7447335811648 30.7342166796571  C 49.5729037587774 30.9820732657833  49.3473771168938 31.1335411795272  49.0681536555143 31.1886204208885  L 48.9714993804213 31.1886204208885  C 48.6922759190417 31.1886204208885  48.4667492771582 31.0922317485061  48.2949194547708 30.8994544037412  L 26 7.0639127045986  L 3.70508054522924 30.8994544037412  C 3.44733581164808 31.1197713691868  3.18959107806691 31.2161600415692  2.93184634448575 31.1886204208885  C 2.65262288310615 31.1335411795272  2.42709624122264 30.9820732657833  2.25526641883519 30.7342166796571  L 0.257744733581165 27.6773187840998  C 0.0859149111937216 27.4019225772928  0.0107393638992153 27.0783320342946  0.0322180916976456 26.7065471551052  C 0.0536968194960762 26.3347622759158  0.171829822387443 26.0387113535983  0.386617100371747 25.8183943881528  L 23.5514250309789 1.07404520654716  C 24.2387443205287 0.358015068849046  25.0549359768691 0  26 0  C 26.9450640231309 0  27.7612556794713 0.358015068849046  28.4485749690211 1.07404520654716  L 36.3097893432466 9.50116913484021  L 36.3097893432466 1.44583008573655  C 36.3097893432466 1.0602753962068  36.4064436183395 0.743569758378798  36.5997521685254 0.495713172252536  C 36.7930607187113 0.247856586126268  37.0400660883932 0.123928293063134  37.3407682775713 0.123928293063134  L 43.5266418835192 0.123928293063134  C 43.8273440726972 0.123928293063134  44.0743494423792 0.247856586126268  44.2676579925651 0.495713172252536  C 44.4609665427509 0.743569758378798  44.5576208178439 1.0602753962068  44 1.44583008573655  L 44 18.3000779423227  L 51.6133828996282 25.8183943881528  C 51.8281701776126 26.0387113535983  51.9463031805039 26.3347622759158  51.9677819083024 26.7065471551052  Z " fill-rule="evenodd" />
    </mask>
  </defs>
  <g transform="matrix(1 0 0 1 -219 -30 )">
    <path d="M 44.5254027261462 30.2798129384256  C 44.5468814539447 30.334892179787  44.5576208178439 30.417511041829  44 30.5276695245518  L 44 50.3561964146532  C 44.5576208178439 51.0722265523513  44.3535729037588 51.6918680176669  43.9454770755886 52.2151208106002  C 43.5373812474184 52.7383736035334  43.0541098719537 53  42.4956629491945 53  L 30 53  L 30 37.1371784879189  L 22 37.1371784879189  L 22 53  L 9.50433705080545 53  C 8.94589012804626 53  8.46261875258158 52.7383736035334  8.0545229244114 52.2151208106002  C 7.64642709624122 51.6918680176669  7.44237918215613 51.0722265523513  8 50.3561964146532  L 8 30.5276695245518  C 7.44237918215613 30.5001299038711  7.44774886410574 30.4588204728501  7.45848822800496 30.4037412314887  C 7.46922759190417 30.3486619901273  7.47459727385378 30.3073525591063  7.47459727385378 30.2798129384256  L 26 10.6991426344505  L 44.5254027261462 30.2798129384256  Z M 51.9677819083024 26.7065471551052  C 51.9892606361008 27.0783320342946  51.9140850888063 27.4019225772928  51.7422552664188 27.6773187840998  L 49.7447335811648 30.7342166796571  C 49.5729037587774 30.9820732657833  49.3473771168938 31.1335411795272  49.0681536555143 31.1886204208885  L 48.9714993804213 31.1886204208885  C 48.6922759190417 31.1886204208885  48.4667492771582 31.0922317485061  48.2949194547708 30.8994544037412  L 26 7.0639127045986  L 3.70508054522924 30.8994544037412  C 3.44733581164808 31.1197713691868  3.18959107806691 31.2161600415692  2.93184634448575 31.1886204208885  C 2.65262288310615 31.1335411795272  2.42709624122264 30.9820732657833  2.25526641883519 30.7342166796571  L 0.257744733581165 27.6773187840998  C 0.0859149111937216 27.4019225772928  0.0107393638992153 27.0783320342946  0.0322180916976456 26.7065471551052  C 0.0536968194960762 26.3347622759158  0.171829822387443 26.0387113535983  0.386617100371747 25.8183943881528  L 23.5514250309789 1.07404520654716  C 24.2387443205287 0.358015068849046  25.0549359768691 0  26 0  C 26.9450640231309 0  27.7612556794713 0.358015068849046  28.4485749690211 1.07404520654716  L 36.3097893432466 9.50116913484021  L 36.3097893432466 1.44583008573655  C 36.3097893432466 1.0602753962068  36.4064436183395 0.743569758378798  36.5997521685254 0.495713172252536  C 36.7930607187113 0.247856586126268  37.0400660883932 0.123928293063134  37.3407682775713 0.123928293063134  L 43.5266418835192 0.123928293063134  C 43.8273440726972 0.123928293063134  44.0743494423792 0.247856586126268  44.2676579925651 0.495713172252536  C 44.4609665427509 0.743569758378798  44.5576208178439 1.0602753962068  44 1.44583008573655  L 44 18.3000779423227  L 51.6133828996282 25.8183943881528  C 51.8281701776126 26.0387113535983  51.9463031805039 26.3347622759158  51.9677819083024 26.7065471551052  Z " fill-rule="nonzero" fill="#ffffff" stroke="none" transform="matrix(1 0 0 1 219 30 )" />
    <path d="M 44.5254027261462 30.2798129384256  C 44.5468814539447 30.334892179787  44.5576208178439 30.417511041829  44 30.5276695245518  L 44 50.3561964146532  C 44.5576208178439 51.0722265523513  44.3535729037588 51.6918680176669  43.9454770755886 52.2151208106002  C 43.5373812474184 52.7383736035334  43.0541098719537 53  42.4956629491945 53  L 30 53  L 30 37.1371784879189  L 22 37.1371784879189  L 22 53  L 9.50433705080545 53  C 8.94589012804626 53  8.46261875258158 52.7383736035334  8.0545229244114 52.2151208106002  C 7.64642709624122 51.6918680176669  7.44237918215613 51.0722265523513  8 50.3561964146532  L 8 30.5276695245518  C 7.44237918215613 30.5001299038711  7.44774886410574 30.4588204728501  7.45848822800496 30.4037412314887  C 7.46922759190417 30.3486619901273  7.47459727385378 30.3073525591063  7.47459727385378 30.2798129384256  L 26 10.6991426344505  L 44.5254027261462 30.2798129384256  Z " stroke-width="4" stroke="#000000" fill="none" transform="matrix(1 0 0 1 219 30 )" mask="url(#clip1)" />
    <path d="M 51.9677819083024 26.7065471551052  C 51.9892606361008 27.0783320342946  51.9140850888063 27.4019225772928  51.7422552664188 27.6773187840998  L 49.7447335811648 30.7342166796571  C 49.5729037587774 30.9820732657833  49.3473771168938 31.1335411795272  49.0681536555143 31.1886204208885  L 48.9714993804213 31.1886204208885  C 48.6922759190417 31.1886204208885  48.4667492771582 31.0922317485061  48.2949194547708 30.8994544037412  L 26 7.0639127045986  L 3.70508054522924 30.8994544037412  C 3.44733581164808 31.1197713691868  3.18959107806691 31.2161600415692  2.93184634448575 31.1886204208885  C 2.65262288310615 31.1335411795272  2.42709624122264 30.9820732657833  2.25526641883519 30.7342166796571  L 0.257744733581165 27.6773187840998  C 0.0859149111937216 27.4019225772928  0.0107393638992153 27.0783320342946  0.0322180916976456 26.7065471551052  C 0.0536968194960762 26.3347622759158  0.171829822387443 26.0387113535983  0.386617100371747 25.8183943881528  L 23.5514250309789 1.07404520654716  C 24.2387443205287 0.358015068849046  25.0549359768691 0  26 0  C 26.9450640231309 0  27.7612556794713 0.358015068849046  28.4485749690211 1.07404520654716  L 36.3097893432466 9.50116913484021  L 36.3097893432466 1.44583008573655  C 36.3097893432466 1.0602753962068  36.4064436183395 0.743569758378798  36.5997521685254 0.495713172252536  C 36.7930607187113 0.247856586126268  37.0400660883932 0.123928293063134  37.3407682775713 0.123928293063134  L 43.5266418835192 0.123928293063134  C 43.8273440726972 0.123928293063134  44.0743494423792 0.247856586126268  44.2676579925651 0.495713172252536  C 44.4609665427509 0.743569758378798  44.5576208178439 1.0602753962068  44 1.44583008573655  L 44 18.3000779423227  L 51.6133828996282 25.8183943881528  C 51.8281701776126 26.0387113535983  51.9463031805039 26.3347622759158  51.9677819083024 26.7065471551052  Z " stroke-width="4" stroke="#000000" fill="none" transform="matrix(1 0 0 1 219 30 )" mask="url(#clip1)" />
  </g>
</svg>