<?xml version="1.0" encoding="utf-8"?>
<svg version="1.1" xmlns:xlink="http://www.w3.org/1999/xlink" width="45px" height="50px" xmlns="http://www.w3.org/2000/svg">
  <defs>
    <mask fill="white" id="clip20">
      <path d="M 43.9892578125 29.4759114583333  C 44.1748046875 29.6820746527778  44.267578125 29.9262152777778  44.267578125 30.2083333333333  C 44.267578125 30.3168402777778  44.2578125 30.3927951388889  44.23828125 30.4361979166667  C 42.98828125 36.2521701388889  40.37109375 40.966796875  36.38671875 44.580078125  C 32.40234375 48.193359375  27.734375 50  22.3828125 50  C 19.53125 50  16.7724609375 49.4032118055556  14.1064453125 48.2096354166667  C 11.4404296875 47.0160590277778  9.0625 45.3125  6.97265625 43.0989583333333  L 3.193359375 47.2981770833333  C 2.822265625 47.7105034722222  2.3828125 47.9166666666667  1.875 47.9166666666667  C 1.3671875 47.9166666666667  0.927734375 47.7105034722222  0.556640625 47.2981770833333  C 0.185546875 46.8858506944444  0 46.3975694444444  0 45.8333333333333  L 0 31.25  C 0 30.6857638888889  0.185546875 30.1974826388889  0.556640625 29.78515625  C 0.927734375 29.3728298611111  1.3671875 29.1666666666667  1.875 29  L 15 29  C 15.5078125 29.1666666666667  15.947265625 29.3728298611111  16.318359375 29.78515625  C 16.689453125 30.1974826388889  16.875 30.6857638888889  16.875 31.25  C 16.875 31.8142361111111  16.689453125 32.3025173611111  16.318359375 32.71484375  L 12.3046875 37.1744791666667  C 13.69140625 38.6067708333333  15.263671875 39.7135416666667  17.021484375 40.4947916666667  C 18.779296875 41.2760416666667  20.60546875 41.6666666666667  22.5 41.6666666666667  C 25.1171875 41.6666666666667  27.55859375 40.9613715277778  29.82421875 39.55078125  C 32.08984375 38.1401909722222  33.90625 36.1979166666667  35.2734375 33.7239583333333  C 35.48828125 33.3550347222222  36.005859375 32.0855034722222  36.826171875 29.9153645833333  C 36.982421875 29.4162326388889  37.275390625 29.1666666666667  37.705078125 29.1666666666667  L 43.330078125 29.1666666666667  C 43.583984375 29.1666666666667  43.8037109375 29.2697482638889  43.9892578125 29.4759114583333  Z M 44.443359375 2.70182291666667  C 44.814453125 3.11414930555555  45 3.60243055555555  45 4.16666666666667  L 45 18.75  C 45 19.3142361111111  44.814453125 19.8025173611111  44.443359375 20.21484375  C 44.072265625 20.6271701388889  43.6328125 20.8333333333333  43.125 21  L 30 21  C 29.4921875 20.8333333333333  29.052734375 20.6271701388889  28.681640625 20.21484375  C 28.310546875 19.8025173611111  28.125 19.3142361111111  28.125 18.75  C 28.125 18.1857638888889  28.310546875 17.6974826388889  28.681640625 17.28515625  L 32.724609375 12.79296875  C 29.833984375 9.81987847222222  26.42578125 8.33333333333333  22.5 8.33333333333333  C 19.8828125 8.33333333333333  17.44140625 9.03862847222222  15.17578125 10.44921875  C 12.91015625 11.8598090277778  11.09375 13.8020833333333  9.7265625 16.2760416666667  C 9.51171875 16.6449652777778  8.994140625 17.9144965277778  8.173828125 20.0846354166667  C 8.017578125 20.5837673611111  7.724609375 20.8333333333333  7.294921875 20.8333333333333  L 1.46484375 20.8333333333333  C 1.2109375 20.8333333333333  0.9912109375 20.7302517361111  0.8056640625 20.5240885416667  C 0.6201171875 20.3179253472222  0.52734375 20.0737847222222  0.52734375 19.7916666666667  L 0.52734375 19.5638020833333  C 1.796875 13.7478298611111  4.43359375 9.033203125  8.4375 5.419921875  C 12.44140625 1.806640625  17.12890625 0  22.5 0  C 25.3515625 0  28.125 0.602213541666669  30.8203125 1.806640625  C 33.515625 3.01106770833333  35.908203125 4.70920138888888  37.998046875 6.90104166666667  L 41.806640625 2.70182291666667  C 42.177734375 2.28949652777777  42.6171875 2.08333333333333  43.125 2.08333333333333  C 43.6328125 2.08333333333333  44.072265625 2.28949652777777  44.443359375 2.70182291666667  Z " fill-rule="evenodd" />
    </mask>
  </defs>
  <g transform="matrix(1 0 0 1 -156 -36 )">
    <path d="M 43.9892578125 29.4759114583333  C 44.1748046875 29.6820746527778  44.267578125 29.9262152777778  44.267578125 30.2083333333333  C 44.267578125 30.3168402777778  44.2578125 30.3927951388889  44.23828125 30.4361979166667  C 42.98828125 36.2521701388889  40.37109375 40.966796875  36.38671875 44.580078125  C 32.40234375 48.193359375  27.734375 50  22.3828125 50  C 19.53125 50  16.7724609375 49.4032118055556  14.1064453125 48.2096354166667  C 11.4404296875 47.0160590277778  9.0625 45.3125  6.97265625 43.0989583333333  L 3.193359375 47.2981770833333  C 2.822265625 47.7105034722222  2.3828125 47.9166666666667  1.875 47.9166666666667  C 1.3671875 47.9166666666667  0.927734375 47.7105034722222  0.556640625 47.2981770833333  C 0.185546875 46.8858506944444  0 46.3975694444444  0 45.8333333333333  L 0 31.25  C 0 30.6857638888889  0.185546875 30.1974826388889  0.556640625 29.78515625  C 0.927734375 29.3728298611111  1.3671875 29.1666666666667  1.875 29  L 15 29  C 15.5078125 29.1666666666667  15.947265625 29.3728298611111  16.318359375 29.78515625  C 16.689453125 30.1974826388889  16.875 30.6857638888889  16.875 31.25  C 16.875 31.8142361111111  16.689453125 32.3025173611111  16.318359375 32.71484375  L 12.3046875 37.1744791666667  C 13.69140625 38.6067708333333  15.263671875 39.7135416666667  17.021484375 40.4947916666667  C 18.779296875 41.2760416666667  20.60546875 41.6666666666667  22.5 41.6666666666667  C 25.1171875 41.6666666666667  27.55859375 40.9613715277778  29.82421875 39.55078125  C 32.08984375 38.1401909722222  33.90625 36.1979166666667  35.2734375 33.7239583333333  C 35.48828125 33.3550347222222  36.005859375 32.0855034722222  36.826171875 29.9153645833333  C 36.982421875 29.4162326388889  37.275390625 29.1666666666667  37.705078125 29.1666666666667  L 43.330078125 29.1666666666667  C 43.583984375 29.1666666666667  43.8037109375 29.2697482638889  43.9892578125 29.4759114583333  Z M 44.443359375 2.70182291666667  C 44.814453125 3.11414930555555  45 3.60243055555555  45 4.16666666666667  L 45 18.75  C 45 19.3142361111111  44.814453125 19.8025173611111  44.443359375 20.21484375  C 44.072265625 20.6271701388889  43.6328125 20.8333333333333  43.125 21  L 30 21  C 29.4921875 20.8333333333333  29.052734375 20.6271701388889  28.681640625 20.21484375  C 28.310546875 19.8025173611111  28.125 19.3142361111111  28.125 18.75  C 28.125 18.1857638888889  28.310546875 17.6974826388889  28.681640625 17.28515625  L 32.724609375 12.79296875  C 29.833984375 9.81987847222222  26.42578125 8.33333333333333  22.5 8.33333333333333  C 19.8828125 8.33333333333333  17.44140625 9.03862847222222  15.17578125 10.44921875  C 12.91015625 11.8598090277778  11.09375 13.8020833333333  9.7265625 16.2760416666667  C 9.51171875 16.6449652777778  8.994140625 17.9144965277778  8.173828125 20.0846354166667  C 8.017578125 20.5837673611111  7.724609375 20.8333333333333  7.294921875 20.8333333333333  L 1.46484375 20.8333333333333  C 1.2109375 20.8333333333333  0.9912109375 20.7302517361111  0.8056640625 20.5240885416667  C 0.6201171875 20.3179253472222  0.52734375 20.0737847222222  0.52734375 19.7916666666667  L 0.52734375 19.5638020833333  C 1.796875 13.7478298611111  4.43359375 9.033203125  8.4375 5.419921875  C 12.44140625 1.806640625  17.12890625 0  22.5 0  C 25.3515625 0  28.125 0.602213541666669  30.8203125 1.806640625  C 33.515625 3.01106770833333  35.908203125 4.70920138888888  37.998046875 6.90104166666667  L 41.806640625 2.70182291666667  C 42.177734375 2.28949652777777  42.6171875 2.08333333333333  43.125 2.08333333333333  C 43.6328125 2.08333333333333  44.072265625 2.28949652777777  44.443359375 2.70182291666667  Z " fill-rule="nonzero" fill="#ffffff" stroke="none" transform="matrix(1 0 0 1 156 36 )" />
    <path d="M 43.9892578125 29.4759114583333  C 44.1748046875 29.6820746527778  44.267578125 29.9262152777778  44.267578125 30.2083333333333  C 44.267578125 30.3168402777778  44.2578125 30.3927951388889  44.23828125 30.4361979166667  C 42.98828125 36.2521701388889  40.37109375 40.966796875  36.38671875 44.580078125  C 32.40234375 48.193359375  27.734375 50  22.3828125 50  C 19.53125 50  16.7724609375 49.4032118055556  14.1064453125 48.2096354166667  C 11.4404296875 47.0160590277778  9.0625 45.3125  6.97265625 43.0989583333333  L 3.193359375 47.2981770833333  C 2.822265625 47.7105034722222  2.3828125 47.9166666666667  1.875 47.9166666666667  C 1.3671875 47.9166666666667  0.927734375 47.7105034722222  0.556640625 47.2981770833333  C 0.185546875 46.8858506944444  0 46.3975694444444  0 45.8333333333333  L 0 31.25  C 0 30.6857638888889  0.185546875 30.1974826388889  0.556640625 29.78515625  C 0.927734375 29.3728298611111  1.3671875 29.1666666666667  1.875 29  L 15 29  C 15.5078125 29.1666666666667  15.947265625 29.3728298611111  16.318359375 29.78515625  C 16.689453125 30.1974826388889  16.875 30.6857638888889  16.875 31.25  C 16.875 31.8142361111111  16.689453125 32.3025173611111  16.318359375 32.71484375  L 12.3046875 37.1744791666667  C 13.69140625 38.6067708333333  15.263671875 39.7135416666667  17.021484375 40.4947916666667  C 18.779296875 41.2760416666667  20.60546875 41.6666666666667  22.5 41.6666666666667  C 25.1171875 41.6666666666667  27.55859375 40.9613715277778  29.82421875 39.55078125  C 32.08984375 38.1401909722222  33.90625 36.1979166666667  35.2734375 33.7239583333333  C 35.48828125 33.3550347222222  36.005859375 32.0855034722222  36.826171875 29.9153645833333  C 36.982421875 29.4162326388889  37.275390625 29.1666666666667  37.705078125 29.1666666666667  L 43.330078125 29.1666666666667  C 43.583984375 29.1666666666667  43.8037109375 29.2697482638889  43.9892578125 29.4759114583333  Z " stroke-width="4" stroke="#000000" fill="none" transform="matrix(1 0 0 1 156 36 )" mask="url(#clip20)" />
    <path d="M 44.443359375 2.70182291666667  C 44.814453125 3.11414930555555  45 3.60243055555555  45 4.16666666666667  L 45 18.75  C 45 19.3142361111111  44.814453125 19.8025173611111  44.443359375 20.21484375  C 44.072265625 20.6271701388889  43.6328125 20.8333333333333  43.125 21  L 30 21  C 29.4921875 20.8333333333333  29.052734375 20.6271701388889  28.681640625 20.21484375  C 28.310546875 19.8025173611111  28.125 19.3142361111111  28.125 18.75  C 28.125 18.1857638888889  28.310546875 17.6974826388889  28.681640625 17.28515625  L 32.724609375 12.79296875  C 29.833984375 9.81987847222222  26.42578125 8.33333333333333  22.5 8.33333333333333  C 19.8828125 8.33333333333333  17.44140625 9.03862847222222  15.17578125 10.44921875  C 12.91015625 11.8598090277778  11.09375 13.8020833333333  9.7265625 16.2760416666667  C 9.51171875 16.6449652777778  8.994140625 17.9144965277778  8.173828125 20.0846354166667  C 8.017578125 20.5837673611111  7.724609375 20.8333333333333  7.294921875 20.8333333333333  L 1.46484375 20.8333333333333  C 1.2109375 20.8333333333333  0.9912109375 20.7302517361111  0.8056640625 20.5240885416667  C 0.6201171875 20.3179253472222  0.52734375 20.0737847222222  0.52734375 19.7916666666667  L 0.52734375 19.5638020833333  C 1.796875 13.7478298611111  4.43359375 9.033203125  8.4375 5.419921875  C 12.44140625 1.806640625  17.12890625 0  22.5 0  C 25.3515625 0  28.125 0.602213541666669  30.8203125 1.806640625  C 33.515625 3.01106770833333  35.908203125 4.70920138888888  37.998046875 6.90104166666667  L 41.806640625 2.70182291666667  C 42.177734375 2.28949652777777  42.6171875 2.08333333333333  43.125 2.08333333333333  C 43.6328125 2.08333333333333  44.072265625 2.28949652777777  44.443359375 2.70182291666667  Z " stroke-width="4" stroke="#000000" fill="none" transform="matrix(1 0 0 1 156 36 )" mask="url(#clip20)" />
  </g>
</svg>