<?xml version="1.0" encoding="utf-8"?>
<svg version="1.1" xmlns:xlink="http://www.w3.org/1999/xlink" width="25px" height="34px" xmlns="http://www.w3.org/2000/svg">
  <g transform="matrix(1 0 0 1 -621 -584 )">
    <path d="M 23.7401185770751 27.9630681818182  C 23.9377470355731 28.0757575757576  24.0612648221344 28.2447916666667  24.1106719367589 28.4701704545455  L 24.9752964426877 32.3096590909091  C 25.0247035573123 32.5028409090909  25 32.6839488636364  24.901185770751 32.8529829545455  C 24.802371541502 33.0220170454545  24.6623847167325 33.1387310606061  24.4812252964427 33.203125  L 24.3577075098814 33.2272727272727  C 24.2918313570487 33.2594696969697  24.2053689064559 33.2876420454545  24.0983201581028 33.3117897727273  C 23.9912714097497 33.3359375  23.8595191040843 33.3721590909091  23.7030632411067 33.4204545454545  C 23.5466073781291 33.46875  23.3695652173913 33.5130208333333  23.1719367588933 33.5532670454545  C 22.9743083003953 33.5935132575758  22.7643280632411 33.633759469697  22.5419960474308 33.6740056818182  C 22.3196640316206 33.7142518939394  22.072628458498 33.7544981060606  21.8008893280632 33.7947443181818  C 21.5291501976285 33.834990530303  21.2532938076416 33.8712121212121  20.9733201581028 33.9034090909091  C 20.6933465085639 33.9356060606061  20.3927865612648 33.9597537878788  20.0716403162055 33.9758522727273  C 19.7504940711462 33.9919507575758  19.433465085639 34  19.1205533596838 34  C 15.2667984189723 34  11.8988801054018 32.9495738636364  9.01679841897233 30.8487215909091  C 6.13471673254282 28.7478693181818  4.17490118577075 25.9185606060606  3.13735177865613 22.3607954545455  L 0.790513833992095 22.3607954545455  C 0.576416337285902 22.3607954545455  0.391139657444005 22.2843276515151  0.234683794466403 22.1313920454545  C 0.078227931488801 21.9784564393939  0 21.7973484848485  0 21.5880681818182  L 0 18.859375  C 0 18.6500946969697  0.078227931488801 18.4689867424242  0.234683794466403 18.3160511363636  C 0.391139657444005 18.163115530303  0.576416337285902 18.0866477272727  0.790513833992095 18.0866477272727  L 2.42094861660079 18.0866477272727  C 2.38801054018445 17.1690340909091  2.39624505928854 16.3238636363636  2.44565217391304 15.5511363636364  L 0.790513833992095 15.5511363636364  C 0.559947299077734 15.5511363636364  0.370553359683794 15.4786931818182  0.222332015810277 15.3338068181818  C 0.0741106719367589 15.1889204545455  0 15.0037878787879  0 14.7784090909091  L 0 12.0255681818182  C 0 11.8001893939394  0.0741106719367589 11.6150568181818  0.222332015810277 11.4701704545455  C 0.370553359683794 11.3252840909091  0.559947299077734 11.2528409090909  0.790513833992095 11.2528409090909  L 3.21146245059288 11.2528409090909  C 4.31488801054018 7.87215909090909  6.31999341238472 5.15151515151515  9.22677865612648 3.09090909090909  C 12.1335638998682 1.03030303030303  15.431488801054 0  19.1205533596838 0  C 20.800395256917 0  22.3978919631094 0.185132575757573  23.9130434782609 0.555397727272728  C 24.0942028985507 0.60369318181818  24.2588932806324 0.72443181818182  24.4071146245059 0.917613636363636  C 24.5059288537549 1.09469696969697  24.5306324110672 1.28787878787879  24.4812252964427 1.49715909090909  L 23.4189723320158 5.33664772727273  C 23.3695652173913 5.54592803030303  23.2542819499341 5.70288825757575  23.0731225296443 5.80752840909091  C 22.8919631093544 5.91216856060606  22.6943346508564 5.93229166666666  22.4802371541502 5.86789772727273  L 22.3814229249012 5.84375  C 22.3155467720685 5.82765151515151  22.2208498023715 5.80752840909091  22.0973320158103 5.78338068181818  L 21.6650197628458 5.69886363636364  C 21.6650197628458 5.69886363636364  21.479743083004 5.67069128787879  21.1091897233202 5.61434659090909  C 20.7386363636364 5.55800189393939  20.5245388669302 5.53385416666666  20.4668972332016 5.54190340909091  C 20.409255599473 5.54995265151515  20.1704545454545 5.52982954545454  19.7504940711462 5.48153409090909  C 19.3305335968379 5.43323863636364  19.0876152832675 5.42518939393939  19.0217391304348 5.45738636363636  C 16.9466403162055 5.45738636363636  15.0856389986825 5.97253787878788  13.4387351778656 7.00284090909091  C 11.7918313570487 8.03314393939394  10.5566534914361 9.4498106060606  9.73320158102767 11.2528409090909  L 21.2944664031621 11.2528409090909  C 21.5579710144928 11.2528409090909  21.7638339920949 11.3494318181818  21.9120553359684 11.5426136363636  C 22.0767457180501 11.7357954545455  22.1343873517787 11.9450757575758  22.0849802371541 12.1704545454545  L 21.4920948616601 14.9232954545455  C 21.4097496706192 15.3418560606061  21.1462450592885 15.5511363636364  20.701581027668 16  L 8.64624505928854 16  C 8.59683794466403 16.1467803030303  8.59683794466403 16.9919507575758  8.64624505928854 18  L 19.9851778656126 18  C 20.2322134387352 18.0866477272727  20.4380764163373 18.1832386363636  20.602766798419 18.3764204545455  C 20.7509881422925 18.5696022727273  20.800395256917 18.7869318181818  20.7509881422925 19.0284090909091  L 20.1581027667984 21.7329545454545  C 20.1251646903821 21.9100378787879  20.0345849802372 22.0589488636364  19.8863636363636 22.1796875  C 19.7381422924901 22.3004261363636  19.5734519104084 22.3607954545455  19.3922924901186 22.3607954545455  L 9.83201581027668 22.3607954545455  C 10.6225296442688 24.2443181818182  11.8535902503294 25.7374526515152  13.5251976284585 26.8401988636364  C 15.1968050065876 27.9429450757576  17.0783926218709 28.4943181818182  19.1699604743083 28.4943181818182  C 19.4664031620553 28.4943181818182  19.7628458498024 28.4822443181818  20.0592885375494 28.4580965909091  C 20.3557312252964 28.4339488636364  20.6315876152833 28.4057765151515  20.8868577075099 28.3735795454545  C 21.1421277997365 28.3413825757576  21.385046113307 28.3051609848485  21.6156126482213 28.2649147727273  C 21.8461791831357 28.2246685606061  22.0479249011858 28.1844223484848  22.2208498023715 28.1441761363636  C 22.3937747035573 28.1039299242424  22.5461133069829 28.0677083333333  22.6778656126482 28.0355113636364  L 22.9743083003953 27.9630681818182  L 23.0978260869565 27.9147727272727  C 23.3119235836627 27.8342803030303  23.5260210803689 27.8503787878788  23.7401185770751 27.9630681818182  Z " fill-rule="nonzero" fill="#555555" stroke="none" transform="matrix(1 0 0 1 621 584 )" />
  </g>
</svg>