<?xml version="1.0" encoding="utf-8"?>
<svg version="1.1" xmlns:xlink="http://www.w3.org/1999/xlink" width="110px" height="81px" xmlns="http://www.w3.org/2000/svg">
  <g transform="matrix(1 0 0 1 -55 -319 )">
    <path d="M 59.69970703125 53.061328125  C 61.14990234375 49.074609375  61.875 44.8875  61.875 40.5  C 61.875 36.1125  61.14990234375 31.925390625  59.69970703125 27.938671875  C 58.24951171875 23.951953125  56.2890625 20.503125  53.818359375 17.5921875  C 51.34765625 14.68125  48.42041015625 12.371484375  45.03662109375 10.662890625  C 41.65283203125 8.954296875  38.0989583333333 8.1  34.375 8.1  C 30.6510416666667 8.1  27.09716796875 8.954296875  23.71337890625 10.662890625  C 20.32958984375 12.371484375  17.40234375 14.68125  14.931640625 17.5921875  C 12.4609375 20.503125  10.50048828125 23.951953125  9.05029296875 27.938671875  C 7.60009765625 31.925390625  6.875 36.1125  6.875 40.5  C 6.875 44.8875  7.60009765625 49.074609375  9.05029296875 53.061328125  C 10.50048828125 57.048046875  12.4609375 60.496875  14.931640625 63.4078125  C 17.40234375 66.31875  20.32958984375 68.628515625  23.71337890625 70.337109375  C 27.09716796875 72.045703125  30.6510416666667 72.9  34.375 72.9  C 38.0989583333333 72.9  41.65283203125 72.045703125  45.03662109375 70.337109375  C 48.42041015625 68.628515625  51.34765625 66.31875  53.818359375 63.4078125  C 56.2890625 60.496875  58.24951171875 57.048046875  59.69970703125 53.061328125  Z M 100.94970703125 53.061328125  C 102.39990234375 49.074609375  103.125 44.8875  103.125 40.5  C 103.125 36.1125  102.39990234375 31.925390625  100.94970703125 27.938671875  C 99.49951171875 23.951953125  97.5390625 20.503125  95.068359375 17.5921875  C 92.59765625 14.68125  89.67041015625 12.371484375  86.28662109375 10.662890625  C 82.90283203125 8.954296875  79.3489583333333 8.1  75.625 8  L 54.892578125 8  C 59.1536458333333 11.896875  62.5284830729167 16.621875  65.01708984375 22.275  C 67.5056966145833 27.928125  68.75 34.003125  68.75 40.5  C 68.75 46.996875  67.5056966145833 53.071875  65.01708984375 58.725  C 62.5284830729167 64.378125  59.1536458333333 69.103125  54.892578125 73  L 75.625 73  C 79.3489583333333 72.9  82.90283203125 72.045703125  86.28662109375 70.337109375  C 89.67041015625 68.628515625  92.59765625 66.31875  95.068359375 63.4078125  C 97.5390625 60.496875  99.49951171875 57.048046875  100.94970703125 53.061328125  Z M 107.2607421875 24.774609375  C 109.0869140625 29.773828125  110 35.015625  110 40.5  C 110 45.984375  109.0869140625 51.226171875  107.2607421875 56.225390625  C 105.4345703125 61.224609375  102.99072265625 65.527734375  99.92919921875 69.134765625  C 96.86767578125 72.741796875  93.21533203125 75.62109375  88.97216796875 77.77265625  C 84.72900390625 79.92421875  80.2799479166667 81  75.625 81  L 34.375 81  C 29.7200520833333 81  25.27099609375 79.92421875  21.02783203125 77.77265625  C 16.78466796875 75.62109375  13.13232421875 72.741796875  10.07080078125 69.134765625  C 7.00927734375 65.527734375  4.5654296875 61.224609375  2.7392578125 56.225390625  C 0.9130859375 51.226171875  0 45.984375  0 40.5  C 0 35.015625  0.9130859375 29.773828125  2.7392578125 24.774609375  C 4.5654296875 19.775390625  7.00927734375 15.472265625  10.07080078125 11.865234375  C 13.13232421875 8.258203125  16.78466796875 5.37890625  21.02783203125 3.22734375  C 25.27099609375 1.07578125  29.7200520833333 0  34.375 0  L 75.625 0  C 80.2799479166667 0  84.72900390625 1.07578125  88.97216796875 3.22734375  C 93.21533203125 5.37890625  96.86767578125 8.258203125  99.92919921875 11.865234375  C 102.99072265625 15.472265625  105.4345703125 19.775390625  107.2607421875 24.774609375  Z " fill-rule="nonzero" fill="#000000" stroke="none" transform="matrix(1 0 0 1 55 319 )" />
  </g>
</svg>