<?xml version="1.0" encoding="utf-8"?>
<svg version="1.1" xmlns:xlink="http://www.w3.org/1999/xlink" width="102px" height="108px" xmlns="http://www.w3.org/2000/svg">
  <g transform="matrix(1 0 0 1 -60 -535 )">
    <path d="M 45.9122596153846 9.26582278481013  C 46.6887019230769 10.2278481012658  47.0769230769231 11.3670886075949  47 12.6835443037975  L 47 95.3164556962025  C 47.0769230769231 96.6329113924051  46.6887019230769 97.7721518987342  45.9122596153846 98.7341772151899  C 45.1358173076923 99.6962025316456  44.2163461538462 100.177215189873  43.1538461538462 100.177215189873  C 42.0913461538462 100.177215189873  41.171875 99.6962025316456  40.3954326923077 98.7341772151899  L 19.9831730769231 73  L 3.92307692307692 73  C 2.86057692307692 73.4430379746835  1.94110576923077 72.9620253164557  1.16466346153846 72  C 0.388221153846154 71.0379746835443  0 69.8987341772152  0 68.5822784810127  L 0 39.4177215189873  C 0 38.1012658227848  0.388221153846154 36.9620253164557  1.16466346153846 36  C 1.94110576923077 35.0379746835443  2.86057692307692 34.5569620253165  3.92307692307692 35  L 19.9831730769231 35  L 40.3954326923077 9.26582278481013  C 41.171875 8.30379746835443  42.0913461538462 7.82278481012659  43.1538461538462 7.82278481012659  C 44.2163461538462 7.82278481012659  45.1358173076923 8.30379746835443  45.9122596153846 9.26582278481013  Z M 68.0102163461538 43.2151898734177  C 69.7469951923077 46.5569620253165  70.6153846153846 50.1518987341772  70.6153846153846 54  C 70.6153846153846 57.8481012658228  69.7469951923077 61.4303797468354  68.0102163461538 64.746835443038  C 66.2734375 68.0632911392405  63.9747596153846 70.4303797468354  61.1141826923077 71.8481012658228  C 60.7055288461539 72.1012658227848  60.1947115384615 72.2278481012658  59.5817307692308 72.2278481012658  C 58.5192307692308 72.2278481012658  57.5997596153846 71.7594936708861  56.8233173076923 70.8227848101266  C 56.046875 69.8860759493671  55.6586538461538 68.7341772151899  55.6586538461538 67.3670886075949  C 55.6586538461538 66.3037974683544  55.9038461538462 65.4050632911392  56.3942307692308 64.6708860759494  C 56.8846153846154 63.9367088607595  57.4771634615385 63.3037974683544  58.171875 62.7721518987342  C 58.8665865384616 62.2405063291139  59.5612980769231 61.6582278481012  60.2560096153846 61.0253164556962  C 60.9507211538462 60.3924050632911  61.5432692307692 59.4810126582278  62.0336538461538 58.2911392405063  C 62.5240384615385 57.1012658227848  62.7692307692308 55.6708860759494  62.7692307692308 54  C 62.7692307692308 52.3291139240506  62.5240384615385 50.8987341772152  62.0336538461538 49.7088607594937  C 61.5432692307692 48.5189873417721  60.9507211538462 47.6075949367089  60.2560096153846 46.9746835443038  C 59.5612980769231 46.3417721518987  58.8665865384616 45.7594936708861  58.171875 45.2278481012658  C 57.4771634615385 44.6962025316456  56.8846153846154 44.0632911392405  56.3942307692308 43.3291139240506  C 55.9038461538462 42.5949367088608  55.6586538461538 41.6962025316456  55.6586538461538 40.6329113924051  C 55.6586538461538 39.2658227848101  56.046875 38.1139240506329  56.8233173076923 37.1772151898734  C 57.5997596153846 36.2405063291139  58.5192307692308 35.7721518987342  59.5817307692308 35.7721518987342  C 60.1947115384615 35.7721518987342  60.7055288461539 35.8987341772152  61.1141826923077 36.1518987341772  C 63.9747596153846 37.5189873417722  66.2734375 39.873417721519  68.0102163461538 43.2151898734177  Z M 81.0973557692308 32.5443037974684  C 84.5709134615385 39.1012658227848  86.3076923076923 46.253164556962  86.3076923076923 54  C 86.3076923076923 61.746835443038  84.5709134615385 68.8987341772152  81.0973557692308 75.4556962025316  C 77.6237980769231 82.0126582278481  73.0264423076923 86.7848101265823  67.3052884615385 89.7721518987342  C 66.7740384615385 90.0253164556962  66.2632211538462 90.1518987341772  65.7728365384615 90.1518987341772  C 64.6694711538462 90.1518987341772  63.7295673076923 89.6708860759494  62.953125 88.7088607594937  C 62.1766826923077 87.746835443038  61.7884615384615 86.6075949367089  61.7884615384615 85.2911392405063  C 61.7884615384615 83.3164556962025  62.5853365384615 81.8227848101266  64.1790865384615 80.8101265822785  C 66.4675480769231 79.3417721518987  68.0204326923077 78.2278481012658  68.8377403846154 77.4683544303797  C 71.8617788461539 74.7341772151899  74.2217548076923 71.3037974683544  75.9176682692308 67.1772151898734  C 77.6135817307692 63.0506329113924  78.4615384615385 58.6582278481013  78.4615384615385 54  C 78.4615384615385 49.3417721518987  77.6135817307692 44.9493670886076  75.9176682692308 40.8227848101266  C 74.2217548076923 36.6962025316456  71.8617788461539 33.2658227848101  68.8377403846154 30.5316455696203  C 68.0204326923077 29.7721518987342  66.4675480769231 28.6582278481013  64.1790865384615 27.1898734177215  C 62.5853365384615 26.1772151898734  61.7884615384615 24.6835443037975  61.7884615384615 22.7088607594937  C 61.7884615384615 21.3924050632911  62.1766826923077 20.253164556962  62.953125 19.2911392405063  C 63.7295673076923 18.3291139240506  64.6490384615385 17.8481012658228  65.7115384615385 17.8481012658228  C 66.2427884615385 17.8481012658228  66.7740384615385 17.9746835443038  67.3052884615385 18.2278481012658  C 73.0264423076923 21.2151898734177  77.6237980769231 25.9873417721519  81.0973557692308 32.5443037974684  Z M 94.2151442307692 21.9113924050633  C 99.4050480769231 31.6582278481013  102 42.3544303797468  102 54  C 102 65.6455696202532  99.4050480769231 76.3417721518987  94.2151442307692 86.0886075949367  C 89.0252403846154 95.8354430379747  82.1189903846154 103.012658227848  73.4963942307692 107.620253164557  C 72.9651442307692 107.873417721519  72.4338942307692 108  71.9026442307692 108  C 70.8401442307692 108  69.9206730769231 107.518987341772  69.1442307692308 106.556962025316  C 68.3677884615385 105.594936708861  67.9795673076923 104.455696202532  67.9795673076923 103.139240506329  C 67.9795673076923 101.316455696203  68.7764423076923 99.8227848101266  70.3701923076923 98.6582278481013  C 70.65625 98.4556962025316  71.1159855769231 98.1898734177215  71.7493990384615 97.8607594936709  C 72.3828125 97.5316455696203  72.8425480769231 97.2658227848101  73.1286057692308 97.0632911392405  C 75.0084134615385 95.7974683544304  76.6838942307692 94.506329113924  78.1550480769231 93.1898734177215  C 83.1814903846154 88.5822784810127  87.1045673076923 82.8354430379747  89.9242788461538 75.9493670886076  C 92.7439903846154 69.0632911392405  94.1538461538462 61.746835443038  94.1538461538462 54  C 94.1538461538462 46.253164556962  92.7439903846154 38.9367088607595  89.9242788461538 32.0506329113924  C 87.1045673076923 25.1645569620253  83.1814903846154 19.4177215189873  78.1550480769231 14.8101265822785  C 76.6838942307692 13.4936708860759  75.0084134615385 12.2025316455696  73.1286057692308 10.9367088607595  C 72.8425480769231 10.7341772151899  72.3828125 10.4683544303797  71.7493990384615 10.1392405063291  C 71.1159855769231 9.81012658227847  70.65625 9.54430379746834  70.3701923076923 9.34177215189874  C 68.7764423076923 8.1772151898734  67.9795673076923 6.68354430379746  67.9795673076923 4.86075949367089  C 67.9795673076923 3.54430379746834  68.3677884615385 2.40506329113923  69.1442307692308 1.44303797468354  C 69.9206730769231 0.481012658227844  70.8401442307692 0  71.9026442307692 0  C 72.4338942307692 0  72.9651442307692 0.126582278481006  73.4963942307692 0.379746835443041  C 82.1189903846154 4.98734177215188  89.0252403846154 12.1645569620253  94.2151442307692 21.9113924050633  Z " fill-rule="nonzero" fill="#000000" stroke="none" transform="matrix(1 0 0 1 60 535 )" />
  </g>
</svg>