<?xml version="1.0" encoding="utf-8"?>
<svg version="1.1" xmlns:xlink="http://www.w3.org/1999/xlink" width="51px" height="53px" xmlns="http://www.w3.org/2000/svg">
  <g transform="matrix(1 0 0 1 -49 -813 )">
    <path d="M 50.9457061745919 2.01384943181818  C 51.0301632363378 2.52829071969697  50.9517388218595 3.02391098484848  50.7104329311568 3.50071022727273  L 27.5450674237048 51.6825284090909  C 27.1348474095103 52.5608428030303  26.4471256210078 53  25.4819020581973 53  C 25.361249112846 53  25.180269694819 52.9749053030303  24.9389638041164 52.9247159090909  C 24.4080908445706 52.7992424242424  23.9797728885735 52.5169270833333  23.6540099361249 52.0777698863636  C 23.3282469836764 51.6386126893939  23.1653655074521 51.1429924242424  24 50.5909090909091  L 24 29  L 2.31653655074521 29  C 1.78566359119943 28.9090909090909  1.30908445706175 28.7397017045455  0.886799148332151 28.4009232954545  C 0.464513839602555 28.0621448863636  0.193044712562101 27.6167140151515  0.0723917672107878 27.0646306818182  C -0.0482611781405252 26.5125473484848  0 25.9855587121212  0.217175301632363 25.4836647727273  C 0.434350603264727 24.9817708333333  0.784244144783534 24.6053503787879  1.26685592618879 24.3544034090909  L 47.597586941093 0.26349431818182  C 47.9112845990064 0.087831439393936  48.2611781405252 0  48.6472675656494 0  C 49.2987934705465 0  49.8417317246274 0.238399621212116  50.2760823278921 0.715198863636366  C 50.6380411639461 1.06652462121212  50.861249112846 1.49940814393939  50.9457061745919 2.01384943181818  Z " fill-rule="nonzero" fill="#000000" stroke="none" transform="matrix(1 0 0 1 49 813 )" />
  </g>
</svg>