<?xml version="1.0" encoding="utf-8"?>
<svg version="1.1" xmlns:xlink="http://www.w3.org/1999/xlink" width="32px" height="58px" xmlns="http://www.w3.org/2000/svg">
  <defs>
    <mask fill="white" id="clip12">
      <path d="M 21.65625 26.16796875  C 21.65625 26.16796875  24 22.0017361111112  24 19.3333333333334  C 24 16.6649305555556  23.21875 14.38671875  21.65625 12.4986979166666  C 20.09375 10.6106770833334  18.2083333333333 9.66666666666663  16 9.66666666666663  C 13.7916666666667 9.66666666666663  11.90625 10.6106770833334  10.34375 12.4986979166666  C 8.78125 14.38671875  8 16.6649305555556  8 19.3333333333334  C 8 22.0017361111112  8.78125 24.2799479166666  10.34375 26.16796875  C 11.90625 28.0559895833334  13.7916666666667 29  16 29  C 16.1352485327104 29  16.2751466226435 28.9893773246224  16.4186174449134 28.9694331372711  C 18.6177332136419 28.6637293279187  21.65625 26.16796875  21.65625 26.16796875  Z M 27.3125 5.6640625  C 30.4375 9.44010416666663  32 13.9965277777778  32 19.3333333333334  C 32 22.0772569444444  31.65625 24.3302951388888  30.96875 26.0924479166666  L 24.3018327124191 43.2222127331778  L 19.59375 55.3190104166666  C 19.2604166666667 56.1497395833334  18.765625 56.8042534722222  18.109375 57.2825520833334  C 17.453125 57.7608506944444  16.75 58  16 58  C 15.25 58  14.546875 57.7608506944444  13.890625 57.2825520833334  C 13.234375 56.8042534722222  12.75 56.1497395833334  12.4375 55.3190104166666  L 1.03125 26.0924479166666  C 0.34375 24.3302951388888  0 22.0772569444444  0 19.3333333333334  C 0 13.9965277777778  1.5625 9.44010416666663  4.6875 5.6640625  C 7.8125 1.88802083333337  11.5833333333333 0  16 0  C 20.4166666666667 0  24.1875 1.88802083333337  27.3125 5.6640625  Z " fill-rule="evenodd" />
    </mask>
  </defs>
  <g transform="matrix(1 0 0 1 -121 -867 )">
    <path d="M 21.65625 26.16796875  C 21.65625 26.16796875  24 22.0017361111112  24 19.3333333333334  C 24 16.6649305555556  23.21875 14.38671875  21.65625 12.4986979166666  C 20.09375 10.6106770833334  18.2083333333333 9.66666666666663  16 9.66666666666663  C 13.7916666666667 9.66666666666663  11.90625 10.6106770833334  10.34375 12.4986979166666  C 8.78125 14.38671875  8 16.6649305555556  8 19.3333333333334  C 8 22.0017361111112  8.78125 24.2799479166666  10.34375 26.16796875  C 11.90625 28.0559895833334  13.7916666666667 29  16 29  C 16.1352485327104 29  16.2751466226435 28.9893773246224  16.4186174449134 28.9694331372711  C 18.6177332136419 28.6637293279187  21.65625 26.16796875  21.65625 26.16796875  Z M 27.3125 5.6640625  C 30.4375 9.44010416666663  32 13.9965277777778  32 19.3333333333334  C 32 22.0772569444444  31.65625 24.3302951388888  30.96875 26.0924479166666  L 24.3018327124191 43.2222127331778  L 19.59375 55.3190104166666  C 19.2604166666667 56.1497395833334  18.765625 56.8042534722222  18.109375 57.2825520833334  C 17.453125 57.7608506944444  16.75 58  16 58  C 15.25 58  14.546875 57.7608506944444  13.890625 57.2825520833334  C 13.234375 56.8042534722222  12.75 56.1497395833334  12.4375 55.3190104166666  L 1.03125 26.0924479166666  C 0.34375 24.3302951388888  0 22.0772569444444  0 19.3333333333334  C 0 13.9965277777778  1.5625 9.44010416666663  4.6875 5.6640625  C 7.8125 1.88802083333337  11.5833333333333 0  16 0  C 20.4166666666667 0  24.1875 1.88802083333337  27.3125 5.6640625  Z " fill-rule="nonzero" fill="#000000" stroke="none" transform="matrix(1 0 0 1 121 867 )" />
    <path d="M 21.65625 26.16796875  C 21.65625 26.16796875  24 22.0017361111112  24 19.3333333333334  C 24 16.6649305555556  23.21875 14.38671875  21.65625 12.4986979166666  C 20.09375 10.6106770833334  18.2083333333333 9.66666666666663  16 9.66666666666663  C 13.7916666666667 9.66666666666663  11.90625 10.6106770833334  10.34375 12.4986979166666  C 8.78125 14.38671875  8 16.6649305555556  8 19.3333333333334  C 8 22.0017361111112  8.78125 24.2799479166666  10.34375 26.16796875  C 11.90625 28.0559895833334  13.7916666666667 29  16 29  C 16.1352485327104 29  16.2751466226435 28.9893773246224  16.4186174449134 28.9694331372711  C 18.6177332136419 28.6637293279187  21.65625 26.16796875  21.65625 26.16796875  Z " stroke-width="2" stroke="#000000" fill="none" transform="matrix(1 0 0 1 121 867 )" mask="url(#clip12)" />
    <path d="M 27.3125 5.6640625  C 30.4375 9.44010416666663  32 13.9965277777778  32 19.3333333333334  C 32 22.0772569444444  31.65625 24.3302951388888  30.96875 26.0924479166666  L 24.3018327124191 43.2222127331778  L 19.59375 55.3190104166666  C 19.2604166666667 56.1497395833334  18.765625 56.8042534722222  18.109375 57.2825520833334  C 17.453125 57.7608506944444  16.75 58  16 58  C 15.25 58  14.546875 57.7608506944444  13.890625 57.2825520833334  C 13.234375 56.8042534722222  12.75 56.1497395833334  12.4375 55.3190104166666  L 1.03125 26.0924479166666  C 0.34375 24.3302951388888  0 22.0772569444444  0 19.3333333333334  C 0 13.9965277777778  1.5625 9.44010416666663  4.6875 5.6640625  C 7.8125 1.88802083333337  11.5833333333333 0  16 0  C 20.4166666666667 0  24.1875 1.88802083333337  27.3125 5.6640625  Z " stroke-width="2" stroke="#000000" fill="none" transform="matrix(1 0 0 1 121 867 )" mask="url(#clip12)" />
  </g>
</svg>