<?xml version="1.0" encoding="utf-8"?>
<svg version="1.1" xmlns:xlink="http://www.w3.org/1999/xlink" width="286px" height="101px" xmlns="http://www.w3.org/2000/svg">
  <defs>
    <mask fill="white" id="clip12">
      <path d="M 0 88.375  L 0 47.975  L 0 12.625  C 0 5.55499999999997  7.14999999999996 0  16.25 0  L 269.75 0  C 278.85 0  286 5.55499999999997  286 12.625  L 286 88.375  C 286 95.445  278.85 101  269.75 101  L 16.25 101  C 7.14999999999996 101  0 95.445  0 88.375  Z " fill-rule="evenodd" />
    </mask>
  </defs>
  <g transform="matrix(1 0 0 1 -56 -753 )">
    <path d="M 0 88.375  L 0 47.975  L 0 12.625  C 0 5.55499999999997  7.14999999999996 0  16.25 0  L 269.75 0  C 278.85 0  286 5.55499999999997  286 12.625  L 286 88.375  C 286 95.445  278.85 101  269.75 101  L 16.25 101  C 7.14999999999996 101  0 95.445  0 88.375  Z " fill-rule="nonzero" fill="#ffffff" stroke="none" transform="matrix(1 0 0 1 56 753 )" />
    <path d="M 0 88.375  L 0 47.975  L 0 12.625  C 0 5.55499999999997  7.14999999999996 0  16.25 0  L 269.75 0  C 278.85 0  286 5.55499999999997  286 12.625  L 286 88.375  C 286 95.445  278.85 101  269.75 101  L 16.25 101  C 7.14999999999996 101  0 95.445  0 88.375  Z " stroke-width="2" stroke="#797979" fill="none" transform="matrix(1 0 0 1 56 753 )" mask="url(#clip12)" />
  </g>
</svg>