<?xml version="1.0" encoding="utf-8"?>
<svg version="1.1" xmlns:xlink="http://www.w3.org/1999/xlink" width="286px" height="101px" xmlns="http://www.w3.org/2000/svg">
  <defs>
    <mask fill="white" id="clip5">
      <path d="M 0 88.375  L 0 53.025  L 0 12.625  C 0 5.55500000000012  4.49428571428569 0  10.2142857142857 0  L 275.785714285714 0  C 281.505714285714 0  286 5.55500000000012  286 12.625  L 286 88.375  C 286 95.4449999999999  281.505714285714 101  275.785714285714 101  L 10.2142857142857 101  C 4.49428571428569 101  0 95.4449999999999  0 88.375  Z " fill-rule="evenodd" />
    </mask>
  </defs>
  <g transform="matrix(1 0 0 1 -56 -1030 )">
    <path d="M 0 88.375  L 0 53.025  L 0 12.625  C 0 5.55500000000012  4.49428571428569 0  10.2142857142857 0  L 275.785714285714 0  C 281.505714285714 0  286 5.55500000000012  286 12.625  L 286 88.375  C 286 95.4449999999999  281.505714285714 101  275.785714285714 101  L 10.2142857142857 101  C 4.49428571428569 101  0 95.4449999999999  0 88.375  Z " fill-rule="nonzero" fill="#ffffff" stroke="none" transform="matrix(1 0 0 1 56 1030 )" />
    <path d="M 0 88.375  L 0 53.025  L 0 12.625  C 0 5.55500000000012  4.49428571428569 0  10.2142857142857 0  L 275.785714285714 0  C 281.505714285714 0  286 5.55500000000012  286 12.625  L 286 88.375  C 286 95.4449999999999  281.505714285714 101  275.785714285714 101  L 10.2142857142857 101  C 4.49428571428569 101  0 95.4449999999999  0 88.375  Z " stroke-width="2" stroke="#797979" fill="none" transform="matrix(1 0 0 1 56 1030 )" mask="url(#clip5)" />
  </g>
</svg>