<?xml version="1.0" encoding="utf-8"?>
<svg version="1.1" xmlns:xlink="http://www.w3.org/1999/xlink" width="65px" height="84px" xmlns="http://www.w3.org/2000/svg">
  <g transform="matrix(1 0 0 1 -239 -257 )">
    <path d="M 57.001953125 42  L 57.890625 42  C 59.8583984375 42  61.5352376302083 43.0234375  62.921142578125 45.0703125  C 64.3070475260417 47.1171875  65 49.59375  65 52.5  L 65 70.5  C 65 70.9375  64.90478515625 71.296875  64.71435546875 71.578125  C 64.52392578125 71.859375  64.2805989583333 72  63.984375 72  L 60.9375 72  L 60.9375 75  C 60.9375 77.5  60.3450520833333 79.625  59.16015625 81.375  C 57.9752604166667 83.125  56.5364583333333 84  54.84375 84  C 53.1510416666667 84  51.7122395833333 83.125  50.52734375 81.375  C 49.3424479166667 79.625  48.75 77.5  48.75 75  L 48.75 72  L 16.25 72  L 16.25 75  C 16.25 77.5  15.6575520833333 79.625  14.47265625 81.375  C 13.2877604166667 83.125  11.8489583333333 84  10.15625 84  C 8.46354166666667 84  7.02473958333333 83.125  5.83984375 81.375  C 4.65494791666667 79.625  4.0625 77.5  4.0625 75  L 4.0625 72  L 1.015625 72  C 0.719401041666667 72  0.47607421875 71.859375  0.28564453125 71.578125  C 0.09521484375 71.296875  0 70.9375  0 70.5  L 0 52.5  C 0 49.59375  0.692952473958333 47.1171875  2.078857421875 45.0703125  C 3.46476236979167 43.0234375  5.1416015625 42  7.109375 42  L 7.998046875 42  L 11.33056640625 22.359375  C 11.8172200520833 19.421875  12.91748046875 16.9609375  14.63134765625 14.9765625  C 16.34521484375 12.9921875  18.2389322916667 12  20.3125 12  L 25 12  L 25 1.5  C 24.375 1.06249999999999  24.47021484375 0.703124999999999  24.66064453125 0.421874999999997  C 24.85107421875 0.140624999999996  25.0944010416667 0  25.390625 0  L 39.609375 0  C 39.9055989583333 0  40.14892578125 0.140624999999996  40.33935546875 0.421874999999997  C 40.52978515625 0.703124999999999  40.625 1.06249999999999  40 1.5  L 40 12  L 44.6875 12  C 46.7610677083333 12  48.65478515625 12.9921875  50.36865234375 14.9765625  C 52.08251953125 16.9609375  53.1827799479167 19.421875  53.66943359375 22.359375  L 57.001953125 42  Z M 6.56982421875 62.296875  C 7.56429036458333 63.765625  8.759765625 64.5  10.15625 64.5  C 11.552734375 64.5  12.7482096354167 63.765625  13.74267578125 62.296875  C 14.7371419270833 60.828125  15.234375 59.0625  15.234375 57  C 15.234375 54.9375  14.7371419270833 53.171875  13.74267578125 51.703125  C 12.7482096354167 50.234375  11.552734375 49.5  10.15625 49.5  C 8.759765625 49.5  7.56429036458333 50.234375  6.56982421875 51.703125  C 5.57535807291667 53.171875  5.078125 54.9375  5.078125 57  C 5.078125 59.0625  5.57535807291667 60.828125  6.56982421875 62.296875  Z M 19.20166015625 25.265625  L 16.376953125 42  L 48.623046875 42  L 45.79833984375 25.265625  C 45.7560221354167 25.015625  45.60791015625 24.7421875  45.35400390625 24.4453125  C 45.10009765625 24.1484375  44.8779296875 24  44.6875 24  L 20.3125 24  C 20.1220703125 24  19.89990234375 24.1484375  19.64599609375 24.4453125  C 19.39208984375 24.7421875  19.2439778645833 25.015625  19.20166015625 25.265625  Z M 51.25732421875 62.296875  C 52.2517903645833 63.765625  53.447265625 64.5  54.84375 64.5  C 56.240234375 64.5  57.4357096354167 63.765625  58.43017578125 62.296875  C 59.4246419270833 60.828125  59.921875 59.0625  59.921875 57  C 59.921875 54.9375  59.4246419270833 53.171875  58.43017578125 51.703125  C 57.4357096354167 50.234375  56.240234375 49.5  54.84375 49.5  C 53.447265625 49.5  52.2517903645833 50.234375  51.25732421875 51.703125  C 50.2628580729167 53.171875  49.765625 54.9375  49.765625 57  C 49.765625 59.0625  50.2628580729167 60.828125  51.25732421875 62.296875  Z " fill-rule="nonzero" fill="#000000" stroke="none" transform="matrix(1 0 0 1 239 257 )" />
  </g>
</svg>