<?xml version="1.0" encoding="utf-8"?>
<svg version="1.1" xmlns:xlink="http://www.w3.org/1999/xlink" width="62px" height="92px" xmlns="http://www.w3.org/2000/svg">
  <g transform="matrix(1 0 0 1 -242 -505 )">
    <path d="M 13.986328125 67.0747767857143  C 14.9954427083333 65.7912946428571  15.5 64.2425595238095  15.5 62.4285714285714  C 15.5 60.6145833333333  14.9954427083333 59.0658482142857  13.986328125 57.7823660714286  C 12.9772135416667 56.4988839285714  11.7595486111111 55.8571428571429  10.3333333333333 55.8571428571429  C 8.90711805555556 55.8571428571429  7.689453125 56.4988839285714  6.68033854166667 57.7823660714286  C 5.67122395833333 59.0658482142857  5.16666666666667 60.6145833333333  5.16666666666667 62.4285714285714  C 5.16666666666667 64.2425595238095  5.67122395833333 65.7912946428571  6.68033854166667 67.0747767857143  C 7.689453125 68.3582589285714  8.90711805555556 69  10.3333333333333 69  C 11.7595486111111 69  12.9772135416667 68.3582589285714  13.986328125 67.0747767857143  Z M 55.3196614583333 67.0747767857143  C 56.3287760416667 65.7912946428571  56.8333333333333 64.2425595238095  56.8333333333333 62.4285714285714  C 56.8333333333333 60.6145833333333  56.3287760416667 59.0658482142857  55.3196614583333 57.7823660714286  C 54.310546875 56.4988839285714  53.0928819444445 55.8571428571429  51.6666666666667 55.8571428571429  C 50.2404513888889 55.8571428571429  49.0227864583333 56.4988839285714  48.013671875 57.7823660714286  C 47.0045572916667 59.0658482142857  46.5 60.6145833333333  46.5 62.4285714285714  C 46.5 64.2425595238095  47.0045572916667 65.7912946428571  48.013671875 67.0747767857143  C 49.0227864583333 68.3582589285714  50.2404513888889 69  51.6666666666667 69  C 53.0928819444445 69  54.310546875 68.3582589285714  55.3196614583333 67.0747767857143  Z M 54.4114583333333 44.8191964285714  C 54.9227430555556 44.031994047619  55.1111111111111 43.125  54.9765625 42.0982142857143  L 52.0703125 22.3839285714286  C 51.9357638888889 21.5967261904762  51.6330295138889 20.9549851190476  51.162109375 20.4587053571429  C 50.6911892361111 19.9624255952381  50.1462673611111 19.7142857142857  49.52734375 20  L 12.47265625 20  C 11.8537326388889 19.7142857142857  11.3088107638889 19.9624255952381  10.837890625 20.4587053571429  C 10.3669704861111 20.9549851190476  10.0642361111111 21.5967261904762  9.9296875 22.3839285714286  L 7.0234375 42.0982142857143  C 6.88888888888889 43.125  7.07725694444445 44.031994047619  7.58854166666667 44.8191964285714  C 8.09982638888889 45.6063988095238  8.75911458333333 46  9.56640625 46  L 52.43359375 46  C 53.2408854166667 46  53.9001736111111 45.6063988095238  54.4114583333333 44.8191964285714  Z M 45.2890625 12.4241071428571  C 45.6657986111111 11.9449404761905  45.8541666666667 11.3630952380952  45.8541666666667 10.6785714285714  C 45.8541666666667 9.99404761904761  45.6657986111111 9.41220238095238  45.2890625 8.93303571428572  C 44.9123263888889 8.45386904761904  44.4548611111111 8.21428571428572  43.9166666666667 9  L 18.0833333333333 9  C 17.5451388888889 8.21428571428572  17.0876736111111 8.45386904761904  16.7109375 8.93303571428572  C 16.3342013888889 9.41220238095238  16.1458333333333 9.99404761904761  16.1458333333333 10.6785714285714  C 16.1458333333333 11.3630952380952  16.3342013888889 11.9449404761905  16.7109375 12.4241071428571  C 17.0876736111111 12.9032738095238  17.5451388888889 13.1428571428571  18.0833333333333 14  L 43.9166666666667 14  C 44.4548611111111 13.1428571428571  44.9123263888889 12.9032738095238  45.2890625 12.4241071428571  Z M 61.0716145833333 36.4508928571429  C 61.6905381944444 39.9419642857143  62 43.7581845238095  62 47.8995535714286  L 62 78.8571428571429  L 56.8333333333333 78.8571428571429  L 56.8333333333333 85.4285714285714  C 56.8333333333333 87.2425595238095  56.3287760416667 88.7912946428572  55.3196614583333 90.0747767857143  C 54.310546875 91.3582589285714  53.0928819444445 92  51.6666666666667 92  C 50.2404513888889 92  49.0227864583333 91.3582589285714  48.013671875 90.0747767857143  C 47.0045572916667 88.7912946428572  46.5 87.2425595238095  46.5 85.4285714285714  L 46.5 78  L 15.5 78  L 15.5 85.4285714285714  C 15.5 87.2425595238095  14.9954427083333 88.7912946428572  13.986328125 90.0747767857143  C 12.9772135416667 91.3582589285714  11.7595486111111 92  10.3333333333333 92  C 8.90711805555556 92  7.689453125 91.3582589285714  6.68033854166667 90.0747767857143  C 5.67122395833333 88.7912946428572  5.16666666666667 87.2425595238095  5.16666666666667 85.4285714285714  L 5.16666666666667 78.8571428571429  L 0 78.8571428571429  L 0 47.8995535714286  C 0 44.0662202380952  0.336371527777778 40.25  1.00911458333333 36.4508928571429  L 5.16666666666667 13.1428571428571  C 5.40885416666667 10.4732142857143  6.720703125 8.12872023809524  9.10221354166667 6.109375  C 11.4837239583333 4.09002976190475  14.5783420138889 2.56696428571428  18.3860677083333 1.54017857142857  C 22.1937934027778 0.513392857142853  26.3984375 0  31 0  C 35.6015625 0  39.8062065972222 0.513392857142853  43.6139322916667 1.54017857142857  C 47.4216579861111 2.56696428571428  50.5162760416667 4.09002976190475  52.8977864583333 6.109375  C 55.279296875 8.12872023809524  56.5911458333333 10.4732142857143  56.8333333333333 13.1428571428571  L 61.0716145833333 36.4508928571429  Z " fill-rule="nonzero" fill="#000000" stroke="none" transform="matrix(1 0 0 1 242 505 )" />
  </g>
</svg>