<?xml version="1.0" encoding="utf-8"?>
<svg version="1.1" xmlns:xlink="http://www.w3.org/1999/xlink" width="69px" height="80px" xmlns="http://www.w3.org/2000/svg">
  <g transform="matrix(1 0 0 1 -235 -764 )">
    <path d="M 14.58837890625 53.65  C 15.64404296875 52.0833333333333  16.171875 50.2  16.171875 48  C 16.171875 45.8  15.64404296875 43.9166666666667  14.58837890625 42.35  C 13.53271484375 40.7833333333333  12.263671875 40  10.78125 40  C 9.298828125 40  8.02978515625 40.7833333333333  6.97412109375 42.35  C 5.91845703125 43.9166666666667  5.390625 45.8  5.390625 48  C 5.390625 50.2  5.91845703125 52.0833333333333  6.97412109375 53.65  C 8.02978515625 55.2166666666667  9.298828125 56  10.78125 56  C 12.263671875 56  13.53271484375 55.2166666666667  14.58837890625 53.65  Z M 20.38330078125 14.15  L 17.384765625 32  L 51.615234375 32  L 48.61669921875 14.15  C 48.57177734375 13.8833333333333  48.41455078125 13.5916666666667  48.14501953125 13.275  C 47.87548828125 12.9583333333333  47.6396484375 12.8  47.4375 13  L 21.5625 13  C 21.3603515625 12.8  21.12451171875 12.9583333333333  20.85498046875 13.275  C 20.58544921875 13.5916666666667  20.42822265625 13.8833333333333  20.38330078125 14.15  Z M 62.02587890625 53.65  C 63.08154296875 52.0833333333333  63.609375 50.2  63.609375 48  C 63.609375 45.8  63.08154296875 43.9166666666667  62.02587890625 42.35  C 60.97021484375 40.7833333333333  59.701171875 40  58.21875 40  C 56.736328125 40  55.46728515625 40.7833333333333  54.41162109375 42.35  C 53.35595703125 43.9166666666667  52.828125 45.8  52.828125 48  C 52.828125 50.2  53.35595703125 52.0833333333333  54.41162109375 53.65  C 55.46728515625 55.2166666666667  56.736328125 56  58.21875 56  C 59.701171875 56  60.97021484375 55.2166666666667  62.02587890625 53.65  Z M 66.793212890625 35.275  C 68.264404296875 37.4583333333333  69 40.1  69 43.2  L 69 62.4  C 69 62.8666666666667  68.89892578125 63.25  68.69677734375 63.55  C 68.49462890625 63.85  68.236328125 64  67.921875 64  L 64.6875 64  L 64.6875 70.4  C 64.6875 73.0666666666667  64.05859375 75.3333333333333  62.80078125 77.2  C 61.54296875 79.0666666666667  60.015625 80  58.21875 80  C 56.421875 80  54.89453125 79.0666666666667  53.63671875 77.2  C 52.37890625 75.3333333333333  51.75 73.0666666666667  51.75 70.4  L 51.75 64  L 17.25 64  L 17.25 70.4  C 17.25 73.0666666666667  16.62109375 75.3333333333333  15.36328125 77.2  C 14.10546875 79.0666666666667  12.578125 80  10.78125 80  C 8.984375 80  7.45703125 79.0666666666667  6.19921875 77.2  C 4.94140625 75.3333333333333  4.3125 73.0666666666667  4.3125 70.4  L 4.3125 64  L 1.078125 64  C 0.763671875 64  0.50537109375 63.85  0.30322265625 63.55  C 0.10107421875 63.25  0 62.8666666666667  0 62.4  L 0 43.2  C 0 40.1  0.735595703125 37.4583333333333  2.206787109375 35.275  C 3.677978515625 33.0916666666667  5.4580078125 32  7.546875 32  L 8.490234375 32  L 12.02783203125 11.05  C 12.54443359375 7.91666666666666  13.71240234375 5.29166666666666  15.53173828125 3.175  C 17.35107421875 1.05833333333333  19.361328125 0  21.5625 0  L 47.4375 0  C 49.638671875 0  51.64892578125 1.05833333333333  53.46826171875 3.175  C 55.28759765625 5.29166666666666  56.45556640625 7.91666666666666  56.97216796875 11.05  L 60.509765625 32  L 61.453125 32  C 63.5419921875 32  65.322021484375 33.0916666666667  66.793212890625 35.275  Z " fill-rule="nonzero" fill="#000000" stroke="none" transform="matrix(1 0 0 1 235 764 )" />
  </g>
</svg>