<?xml version="1.0" encoding="utf-8"?>
<svg version="1.1" xmlns:xlink="http://www.w3.org/1999/xlink" width="46px" height="86px" xmlns="http://www.w3.org/2000/svg">
  <g transform="matrix(1 0 0 1 -258 -1038 )">
    <path d="M 44.921875 69.1664772727273  C 45.640625 70.4532196969697  46 71.894696969697  46 73.4909090909091  C 46 75.5431818181818  45.3302556818182 77.3918560606061  43.9907670454545 79.0369318181818  C 42.6512784090909 80.6820075757576  40.8652935606061 82.0013257575758  38.6328125 82.9948863636364  C 36.4003314393939 83.988446969697  33.9500473484849 84.7376893939394  31.2819602272727 85.2426136363636  C 28.6138731060606 85.7475378787879  25.8532196969697 86  23 86  C 20.1467803030303 86  17.3861268939394 85.7475378787879  14.7180397727273 85.2426136363636  C 12.0499526515152 84.7376893939394  9.59966856060606 83.988446969697  7.3671875 82.9948863636364  C 5.13470643939394 82.0013257575758  3.34872159090909 80.6820075757576  2.00923295454545 79.0369318181818  C 0.669744318181818 77.3918560606061  0 75.5431818181818  0 73.4909090909091  C 0 71.894696969697  0.359375 70.4532196969697  1.078125 69.1664772727273  C 1.796875 67.8797348484848  2.78787878787879 66.7965909090909  4.05113636363636 65.9170454545455  C 5.31439393939394 65.0375  6.59943181818182 64.3126893939394  7.90625 63.7426136363636  C 9.21306818181818 63.1725378787879  10.639678030303 62.6920454545455  12.1860795454545 62.3011363636364  C 12.7523674242424 62.1382575757576  13.2750946969697 62.3092803030303  13.7542613636364 62.8142045454546  C 14.233428030303 63.3191287878788  14.516571969697 63.9950757575758  14.6036931818182 64.8420454545455  C 14.7125946969697 65.6890151515152  14.5982481060606 66.4708333333333  14.2606534090909 67.1875  C 13.9230587121212 67.9041666666667  13.4711174242424 68.3276515151515  12.9048295454545 68.4579545454545  C 11.641571969697 68.7837121212121  10.4872159090909 69.1664772727273  9.44176136363636 69.60625  C 8.39630681818182 70.0460227272727  7.56321022727273 70.4613636363636  6.94247159090909 70.8522727272727  C 6.32173295454545 71.2431818181818  5.79356060606061 71.625946969697  5.35795454545455 72.0005681818182  C 4.92234848484849 72.3751893939394  4.62286931818182 72.692803030303  4.45951704545455 72.9534090909091  C 4.29616477272727 73.2140151515152  4.20359848484849 73.4094696969697  4.18181818181818 73.5397727272727  C 4.24715909090909 73.8981060606061  4.54119318181818 74.3297348484849  5.06392045454546 74.8346590909091  C 5.58664772727273 75.3395833333333  6.38162878787879 75.8770833333333  7.44886363636364 76.4471590909091  C 8.51609848484849 77.0172348484849  9.75757575757576 77.5465909090909  11.1732954545455 78.0352272727273  C 12.5890151515152 78.5238636363636  14.336884469697 78.9310606060606  16.4169034090909 79.2568181818182  C 18.4969223484849 79.5825757575758  20.6912878787879 79.7454545454546  23 79.7454545454546  C 25.3087121212121 79.7454545454546  27.5030776515152 79.5825757575758  29.5830965909091 79.2568181818182  C 31.663115530303 78.9310606060606  33.4109848484849 78.5238636363636  34.8267045454545 78.0352272727273  C 36.2424242424242 77.5465909090909  37.4839015151515 77.0090909090909  38.5511363636364 76.4227272727273  C 39.6183712121212 75.8363636363636  40.4133522727273 75.2907196969697  40.9360795454545 74.7857954545455  C 41.4588068181818 74.2808712121212  41.7528409090909 73.8329545454545  41.8181818181818 73.4420454545455  C 41.7964015151515 73.3117424242424  41.7038352272727 73.1325757575758  41.5404829545455 72.9045454545455  C 41.3771306818182 72.6765151515151  41.0776515151515 72.3670454545455  40.6420454545455 71.9761363636364  C 40.2064393939394 71.5852272727273  39.6782670454545 71.2024621212121  39.0575284090909 70.8278409090909  C 38.4367897727273 70.4532196969697  37.6036931818182 70.0460227272727  36.5582386363636 69.60625  C 35.5127840909091 69.1664772727273  34.358428030303 68.7837121212121  33.0951704545455 68.4579545454545  C 32.5288825757576 68.3276515151515  32.0769412878788 67.9041666666667  31.7393465909091 67.1875  C 31.4017518939394 66.4708333333333  31.2874053030303 65.6890151515152  31.3963068181818 64.8420454545455  C 31.483428030303 63.9950757575758  31.766571969697 63.3191287878788  32.2457386363636 62.8142045454546  C 32.7249053030303 62.3092803030303  33.2476325757576 62.1382575757576  33.8139204545455 62.3011363636364  C 35.360321969697 62.6920454545455  36.7869318181818 63.1725378787879  38.09375 63.7426136363636  C 39.4005681818182 64.3126893939394  40.6856060606061 65.0375  41.9488636363636 65.9170454545455  C 43.2121212121212 66.7965909090909  44.203125 67.8797348484848  44.921875 69.1664772727273  Z M 32.2294034090909 25.2869318181818  C 33.0461647727273 26.5085227272727  33.4545454545455 27.9825757575758  33 29.7090909090909  L 33 48.4727272727273  C 33.4545454545455 49.319696969697  33.2476325757576 50.0526515151515  32.8338068181818 50.6715909090909  C 32.4199810606061 51.2905303030303  31.9299242424242 51.6  31.3636363636364 51.6  L 29 51.6  L 29 70.3636363636364  C 29.2727272727273 71.2106060606061  29.0658143939394 71.9435606060606  28.6519886363636 72.5625  C 28.2381628787879 73.1814393939394  27.7481060606061 73.4909090909091  27.1818181818182 73.4909090909091  L 18.8181818181818 73.4909090909091  C 18.2518939393939 73.4909090909091  17.7618371212121 73.1814393939394  17.3480113636364 72.5625  C 16.9341856060606 71.9435606060606  16.7272727272727 71.2106060606061  17 70.3636363636364  L 17 51.6  L 14.6363636363636 51.6  C 14.0700757575758 51.6  13.5800189393939 51.2905303030303  13.1661931818182 50.6715909090909  C 12.7523674242424 50.0526515151515  12.5454545454545 49.319696969697  13 48.4727272727273  L 13 29.7090909090909  C 12.5454545454545 27.9825757575758  12.9538352272727 26.5085227272727  13.7705965909091 25.2869318181818  C 14.5873579545455 24.0653409090909  15.5729166666667 23.4545454545455  16.7272727272727 24  L 29.2727272727273 24  C 30.4270833333333 23.4545454545455  31.4126420454545 24.0653409090909  32.2294034090909 25.2869318181818  Z M 28.1782670454545 3.20056818181818  C 29.6048768939394 5.33428030303029  30.3181818181818 7.91590909090909  30.3181818181818 10.9454545454545  C 30.3181818181818 13.975  29.6048768939394 16.5566287878788  28.1782670454545 18.6903409090909  C 26.7516571969697 20.824053030303  25.0255681818182 21.8909090909091  23 21.8909090909091  C 20.9744318181818 21.8909090909091  19.2483428030303 20.824053030303  17.8217329545455 18.6903409090909  C 16.3951231060606 16.5566287878788  15.6818181818182 13.975  15.6818181818182 10.9454545454545  C 15.6818181818182 7.91590909090909  16.3951231060606 5.33428030303029  17.8217329545455 3.20056818181818  C 19.2483428030303 1.06685606060605  20.9744318181818 0  23 0  C 25.0255681818182 0  26.7516571969697 1.06685606060605  28.1782670454545 3.20056818181818  Z " fill-rule="nonzero" fill="#000000" stroke="none" transform="matrix(1 0 0 1 258 1038 )" />
  </g>
</svg>