<?xml version="1.0" encoding="utf-8"?>
<svg version="1.1" xmlns:xlink="http://www.w3.org/1999/xlink" width="26px" height="33px" xmlns="http://www.w3.org/2000/svg">
  <g transform="matrix(1 0 0 1 -206 -156 )">
    <path d="M 19.34765625 16.005859375  C 19.44921875 16.134765625  19.5 16.2994791666667  19.5 16.5  C 19.5 16.7005208333333  19.44921875 16.865234375  19.34765625 16.994140625  L 13.9309895833333 23.869140625  C 13.8294270833333 23.998046875  13.6996527777778 24.0625  13.5416666666667 24.0625  C 13.3949652777778 24.0625  13.2680121527778 23.9944661458333  13.1608072916667 23.8583984375  C 13.0536024305556 23.7223307291667  13 23.5611979166667  13 23.375  L 13 19.25  L 7.04166666666667 19.25  C 6.89496527777778 19.25  6.76801215277778 19.1819661458333  6.66080729166667 19.0458984375  C 6.55360243055556 18.9098307291667  6.5 18.7486979166667  6.5 18.5625  L 6.5 14.4375  C 6.5 14.2513020833333  6.55360243055556 14.0901692708333  6.66080729166667 13.9541015625  C 6.76801215277778 13.8180338541667  6.89496527777778 13.75  7.04166666666667 13.75  L 13 13.75  L 13 9.625  C 13 9.42447916666666  13.05078125 9.259765625  13.15234375 9.130859375  C 13.25390625 9.001953125  13.3836805555556 8.9375  13.5416666666667 8.9375  C 13.6770833333333 8.9375  13.8125 9.00911458333333  13.9479166666667 9.15234375  L 19.34765625 16.005859375  Z M 20.97265625 22.365234375  C 21.7964409722222 20.5748697916667  22.2083333333333 18.6197916666667  22.2083333333333 16.5  C 22.2083333333333 14.3802083333333  21.7964409722222 12.4251302083333  20.97265625 10.634765625  C 20.1488715277778 8.84440104166666  19.0316840277778 7.42643229166666  17.62109375 6.380859375  C 16.2105034722222 5.33528645833333  14.6701388888889 4.8125  13 4.8125  C 11.3298611111111 4.8125  9.78949652777778 5.33528645833333  8.37890625 6.380859375  C 6.96831597222222 7.42643229166666  5.85112847222222 8.84440104166666  5.02734375 10.634765625  C 4.20355902777778 12.4251302083333  3.79166666666667 14.3802083333333  3.79166666666667 16.5  C 3.79166666666667 18.6197916666667  4.20355902777778 20.5748697916667  5.02734375 22.365234375  C 5.85112847222222 24.1555989583333  6.96831597222222 25.5735677083333  8.37890625 26.619140625  C 9.78949652777778 27.6647135416667  11.3298611111111 28.1875  13 28.1875  C 14.6701388888889 28.1875  16.2105034722222 27.6647135416667  17.62109375 26.619140625  C 19.0316840277778 25.5735677083333  20.1488715277778 24.1555989583333  20.97265625 22.365234375  Z M 24.2565104166667 8.2177734375  C 25.4188368055556 10.7457682291667  26 13.5065104166667  26 16.5  C 26 19.4934895833333  25.4188368055556 22.2542317708333  24.2565104166667 24.7822265625  C 23.0941840277778 27.3102213541667  21.5171440972222 29.3118489583333  19.525390625 30.787109375  C 17.5336371527778 32.2623697916667  15.3585069444444 33  13 33  C 10.6414930555556 33  8.46636284722222 32.2623697916667  6.474609375 30.787109375  C 4.48285590277778 29.3118489583333  2.90581597222222 27.3102213541667  1.74348958333333 24.7822265625  C 0.581163194444444 22.2542317708333  0 19.4934895833333  0 16.5  C 0 13.5065104166667  0.581163194444444 10.7457682291667  1.74348958333333 8.2177734375  C 2.90581597222222 5.68977864583333  4.48285590277778 3.68815104166666  6.474609375 2.212890625  C 8.46636284722222 0.73763020833333  10.6414930555556 0  13 0  C 15.3585069444444 0  17.5336371527778 0.73763020833333  19.525390625 2.212890625  C 21.5171440972222 3.68815104166666  23.0941840277778 5.68977864583333  24.2565104166667 8.2177734375  Z " fill-rule="nonzero" fill="#000000" stroke="none" transform="matrix(1 0 0 1 206 156 )" />
  </g>
</svg>