<?xml version="1.0" encoding="utf-8"?>
<svg version="1.1" xmlns:xlink="http://www.w3.org/1999/xlink" width="112px" height="122px" xmlns="http://www.w3.org/2000/svg">
  <g transform="matrix(1 0 0 1 -102 -312 )">
    <path d="M 94.7692307692308 17.4285714285714  L 103.384615384615 17.4285714285714  C 105.717948717949 17.4285714285714  107.73717948718 18.2909226190476  109.442307692308 20.015625  C 111.147435897436 21.7403273809524  112 23.7827380952381  112 26.1428571428571  L 112 113.285714285714  C 112 115.645833333333  111.147435897436 117.688244047619  109.442307692308 119.412946428571  C 107.73717948718 121.137648809524  105.717948717949 122  103.384615384615 122  L 8.61538461538462 122  C 6.28205128205128 122  4.26282051282051 121.137648809524  2.55769230769231 119.412946428571  C 0.852564102564103 117.688244047619  0 115.645833333333  0 113.285714285714  L 0 26.1428571428571  C 0 23.7827380952381  0.852564102564103 21.7403273809524  2.55769230769231 20.015625  C 4.26282051282051 18.2909226190476  6.28205128205128 17.4285714285714  8.61538461538462 17.4285714285714  L 17.2307692307692 17.4285714285714  L 17.2307692307692 10.8928571428571  C 17.2307692307692 7.89732142857143  18.2852564102564 5.3329613095238  20.3942307692308 3.19977678571429  C 22.5032051282051 1.06659226190476  25.0384615384615 0  28 0  L 32.3076923076923 0  C 35.2692307692308 0  37.8044871794872 1.06659226190476  39.9134615384615 3.19977678571429  C 42.0224358974359 5.3329613095238  43.0769230769231 7.89732142857143  43.0769230769231 10.8928571428571  L 43.0769230769231 18  L 68.9230769230769 18  L 68.9230769230769 10.8928571428571  C 68.9230769230769 7.89732142857143  69.9775641025641 5.3329613095238  72.0865384615385 3.19977678571429  C 74.1955128205128 1.06659226190476  76.7307692307692 0  79.6923076923077 0  L 84 0  C 86.9615384615385 0  89.4967948717949 1.06659226190476  91.6057692307692 3.19977678571429  C 93.7147435897436 5.3329613095238  94.7692307692308 7.89732142857143  94.7692307692308 10.8928571428571  L 94.7692307692308 17.4285714285714  Z M 78.1442307692308 9.32700892857143  C 77.7403846153846 9.73549107142857  77.5384615384615 10.2574404761905  77 10.8928571428571  L 77 30.5  C 77.5384615384615 31.1354166666667  77.7403846153846 31.6573660714286  78.1442307692308 32.0658482142857  C 78.5480769230769 32.4743303571429  79.0641025641026 32.6785714285714  79.6923076923077 32.6785714285714  L 84 32.6785714285714  C 84.6282051282051 32.6785714285714  85.1442307692308 32.4743303571429  85.5480769230769 32.0658482142857  C 85.9519230769231 31.6573660714286  86.1538461538462 31.1354166666667  86 30.5  L 86 10.8928571428571  C 86.1538461538462 10.2574404761905  85.9519230769231 9.73549107142857  85.5480769230769 9.32700892857143  C 85.1442307692308 8.91852678571429  84.6282051282051 8.71428571428571  84 8.71428571428571  L 79.6923076923077 8.71428571428571  C 79.0641025641026 8.71428571428571  78.5480769230769 8.91852678571429  78.1442307692308 9.32700892857143  Z M 26.4519230769231 9.32700892857143  C 26.0480769230769 9.73549107142857  25.8461538461538 10.2574404761905  26 10.8928571428571  L 26 30.5  C 25.8461538461538 31.1354166666667  26.0480769230769 31.6573660714286  26.4519230769231 32.0658482142857  C 26.8557692307692 32.4743303571429  27.3717948717949 32.6785714285714  28 32.6785714285714  L 32.3076923076923 32.6785714285714  C 32.9358974358974 32.6785714285714  33.4519230769231 32.4743303571429  33.8557692307692 32.0658482142857  C 34.2596153846154 31.6573660714286  34.4615384615385 31.1354166666667  35 30.5  L 35 10.8928571428571  C 34.4615384615385 10.2574404761905  34.2596153846154 9.73549107142857  33.8557692307692 9.32700892857143  C 33.4519230769231 8.91852678571429  32.9358974358974 8.71428571428571  32.3076923076923 8.71428571428571  L 28 8.71428571428571  C 27.3717948717949 8.71428571428571  26.8557692307692 8.91852678571429  26.4519230769231 9.32700892857143  Z M 9 113  L 103 113  L 103 44  L 9 44  L 9 113  Z M 60 58.8214285714286  L 60 74  L 75.3846153846154 74  C 76.0128205128205 74.0714285714286  76.5288461538462 74.2756696428571  76.9326923076923 74.6841517857143  C 77.3365384615385 75.0926339285714  77.5384615384615 75.6145833333333  77.5384615384615 76.25  L 77.5384615384615 80.6071428571429  C 77.5384615384615 81.2425595238095  77.3365384615385 81.7645089285714  76.9326923076923 82.1729910714286  C 76.5288461538462 82.5814732142857  76.0128205128205 82.7857142857143  75.3846153846154 82  L 60 82  L 60 98.0357142857143  C 60.3076923076923 98.6711309523809  60.1057692307692 99.1930803571429  59.7019230769231 99.6015625  C 59.2980769230769 100.010044642857  58.7820512820513 100.214285714286  58.1538461538462 100.214285714286  L 53.8461538461538 100.214285714286  C 53.2179487179487 100.214285714286  52.7019230769231 100.010044642857  52.2980769230769 99.6015625  C 51.8942307692308 99.1930803571429  51.6923076923077 98.6711309523809  52 98.0357142857143  L 52 82  L 36.6153846153846 82  C 35.9871794871795 82.7857142857143  35.4711538461538 82.5814732142857  35.0673076923077 82.1729910714286  C 34.6634615384615 81.7645089285714  34.4615384615385 81.2425595238095  34.4615384615385 80.6071428571429  L 34.4615384615385 76.25  C 34.4615384615385 75.6145833333333  34.6634615384615 75.0926339285714  35.0673076923077 74.6841517857143  C 35.4711538461538 74.2756696428571  35.9871794871795 74.0714285714286  36.6153846153846 74  L 52 74  L 52 58.8214285714286  C 51.6923076923077 58.1860119047619  51.8942307692308 57.6640625  52.2980769230769 57.2555803571429  C 52.7019230769231 56.8470982142857  53.2179487179487 56.6428571428571  53.8461538461538 56.6428571428571  L 58.1538461538462 56.6428571428571  C 58.7820512820513 56.6428571428571  59.2980769230769 56.8470982142857  59.7019230769231 57.2555803571429  C 60.1057692307692 57.6640625  60.3076923076923 58.1860119047619  60 58.8214285714286  Z " fill-rule="nonzero" fill="#000000" stroke="none" transform="matrix(1 0 0 1 102 312 )" />
  </g>
</svg>