<?xml version="1.0" encoding="utf-8"?>
<svg version="1.1" xmlns:xlink="http://www.w3.org/1999/xlink" width="99px" height="99px" xmlns="http://www.w3.org/2000/svg">
  <g transform="matrix(1 0 0 1 -102 -517 )">
    <path d="M 95.068359375 30.29296875  C 97.689453125 36.39453125  99 42.796875  99 49.5  C 99 56.203125  97.689453125 62.60546875  95.068359375 68.70703125  C 92.447265625 74.80859375  88.923828125 80.072265625  84.498046875 84.498046875  C 80.072265625 88.923828125  74.80859375 92.447265625  68.70703125 95.068359375  C 62.60546875 97.689453125  56.203125 99  49.5 99  C 42.109375 99  35.083984375 97.4423828125  28.423828125 94.3271484375  C 21.763671875 91.2119140625  16.091796875 86.818359375  11.408203125 81.146484375  C 11.107421875 80.716796875  10.9677734375 80.2333984375  10.9892578125 79.6962890625  C 11.0107421875 79.1591796875  11.193359375 78.71875  11.537109375 78.375  L 20.3671875 69.48046875  C 20.796875 69.09375  21.333984375 68.900390625  21.978515625 68.900390625  C 22.666015625 68.986328125  23.16015625 69.244140625  23.4609375 69.673828125  C 26.59765625 73.755859375  30.443359375 76.9140625  34.998046875 79.1484375  C 39.552734375 81.3828125  44.38671875 82.5  49.5 82.5  C 53.96875 82.5  58.2333984375 81.6298828125  62.2939453125 79.8896484375  C 66.3544921875 78.1494140625  69.8671875 75.796875  72.83203125 72.83203125  C 75.796875 69.8671875  78.1494140625 66.3544921875  79.8896484375 62.2939453125  C 81.6298828125 58.2333984375  82.5 53.96875  82.5 49.5  C 82.5 45.03125  81.6298828125 40.7666015625  79.8896484375 36.7060546875  C 78.1494140625 32.6455078125  75.796875 29.1328125  72.83203125 26.16796875  C 69.8671875 23.203125  66.3544921875 20.8505859375  62.2939453125 19.1103515625  C 58.2333984375 17.3701171875  53.96875 16.5  49.5 16.5  C 45.2890625 16.5  41.25 17.2626953125  37.3828125 18.7880859375  C 33.515625 20.3134765625  30.078125 22.494140625  27.0703125 25.330078125  L 35.900390625 34.224609375  C 37.232421875 35.513671875  37.533203125 36.99609375  36.802734375 38.671875  C 36.072265625 40.390625  34.8046875 41.25  33 42  L 4.125 42  C 3.0078125 41.25  2.041015625 40.841796875  1.224609375 40.025390625  C 0.408203125 39.208984375  0 38.2421875  0 37.125  L 0 8.25  C 0 6.4453125  0.859375 5.177734375  2.578125 4.447265625  C 4.25390625 3.71679687499999  5.736328125 4.017578125  7.025390625 5.349609375  L 15.404296875 13.6640625  C 20.001953125 9.32421874999999  25.2548828125 5.9619140625  31.1630859375 3.5771484375  C 37.0712890625 1.1923828125  43.18359375 0  49.5 0  C 56.203125 0  62.60546875 1.310546875  68.70703125 3.931640625  C 74.80859375 6.55273437499999  80.072265625 10.076171875  84.498046875 14.501953125  C 88.923828125 18.927734375  92.447265625 24.19140625  95.068359375 30.29296875  Z M 57.169921875 29.455078125  C 57.556640625 29.841796875  57.75 30.3359375  57 30.9375  L 57 59.8125  C 57.75 60.4140625  57.556640625 60.908203125  57.169921875 61.294921875  C 56.783203125 61.681640625  56.2890625 61.875  55.6875 61  L 35.0625 61  C 34.4609375 61.875  33.966796875 61.681640625  33.580078125 61.294921875  C 33.193359375 60.908203125  33 60.4140625  33 59.8125  L 33 55.6875  C 33 55.0859375  33.193359375 54.591796875  33.580078125 54.205078125  C 33.966796875 53.818359375  34.4609375 53.625  35.0625 53  L 49 53  L 49 30.9375  C 49.5 30.3359375  49.693359375 29.841796875  50.080078125 29.455078125  C 50.466796875 29.068359375  50.9609375 28.875  51.5625 28.875  L 55.6875 28.875  C 56.2890625 28.875  56.783203125 29.068359375  57.169921875 29.455078125  Z " fill-rule="nonzero" fill="#000000" stroke="none" transform="matrix(1 0 0 1 102 517 )" />
  </g>
</svg>