<?xml version="1.0" encoding="utf-8"?>
<svg version="1.1" xmlns:xlink="http://www.w3.org/1999/xlink" width="107px" height="107px" xmlns="http://www.w3.org/2000/svg">
  <g transform="matrix(1 0 0 1 -102 -873 )">
    <path d="M 66.1087239583333 66.1087239583333  C 69.591796875 62.6256510416667  71.3333333333333 58.4227430555556  71.3333333333333 53.5  C 71.3333333333333 48.5772569444444  69.591796875 44.3743489583333  66.1087239583333 40.8912760416667  C 62.6256510416667 37.408203125  58.4227430555556 35.6666666666667  53.5 35.6666666666667  C 48.5772569444445 35.6666666666667  44.3743489583333 37.408203125  40.8912760416667 40.8912760416667  C 37.408203125 44.3743489583333  35.6666666666667 48.5772569444444  35.6666666666667 53.5  C 35.6666666666667 58.4227430555556  37.408203125 62.6256510416667  40.8912760416667 66.1087239583333  C 44.3743489583333 69.591796875  48.5772569444445 71.3333333333333  53.5 71.3333333333333  C 58.4227430555556 71.3333333333333  62.6256510416667 69.591796875  66.1087239583333 66.1087239583333  Z M 106.442708333333 44.2698567708333  C 106.814236111111 44.7574869791667  107 45.3031684027778  107 45.9069010416667  L 107 61.3717447916667  C 107 61.9290364583333  106.814236111111 62.4631076388889  106.442708333333 62.9739583333333  C 106.071180555556 63.4848090277778  105.606770833333 63.7866753472222  105.049479166667 63.8795572916667  L 92.162109375 65.830078125  C 91.2797309027778 68.337890625  90.3741319444445 70.4509548611111  89.4453125 72.1692708333333  C 91.0707465277778 74.4913194444444  93.5553385416667 77.6957465277778  96.8990885416667 81.7825520833333  C 97.3634982638889 82.33984375  97.595703125 82.9203559027778  97.595703125 83.5240885416667  C 97.595703125 84.1278211805556  97.38671875 84.6618923611111  96.96875 85.1263020833333  C 95.71484375 86.8446180555556  93.416015625 89.3524305555556  90.072265625 92.6497395833333  C 86.728515625 95.9470486111111  84.5457899305556 97.595703125  83.5240885416667 97.595703125  C 82.966796875 97.595703125  82.3630642361111 97.38671875  81.712890625 96.96875  L 72.099609375 89.4453125  C 70.0562065972222 90.5134548611111  67.9431423611111 91.3958333333333  65.7604166666667 92.0924479166667  C 65.0173611111111 98.4084201388889  64.3439670138889 102.727430555556  63.740234375 105.049479166667  C 63.4151475694445 106.349826388889  62.5792100694445 107  61.232421875 107  L 45.767578125 107  C 45.1174045138889 107  44.5485026041667 106.802625868056  44.0608723958333 106.407877604167  C 43.5732421875 106.013129340278  43.3062065972222 105.513888888889  43.259765625 104.91015625  L 41.3092447916667 92.0924479166667  C 39.0336371527778 91.3493923611111  36.9437934027778 90.490234375  35.0397135416667 89.5149739583333  L 25.2174479166667 96.96875  C 24.7530381944444 97.38671875  24.1725260416667 97.595703125  23.4759114583333 97.595703125  C 22.8257378472222 97.595703125  22.2452256944444 97.3402777777778  21.734375 96.8294270833333  C 15.8828125 91.53515625  12.0514322916667 87.6341145833333  10.240234375 85.1263020833333  C 9.91514756944445 84.6618923611111  9.75260416666667 84.1278211805556  9.75260416666667 83.5240885416667  C 9.75260416666667 82.966796875  9.93836805555556 82.4327256944444  10.3098958333333 81.921875  C 11.0065104166667 80.9466145833333  12.1907552083333 79.4024522569444  13.8626302083333 77.2893880208333  C 15.5345052083333 75.1763237847222  16.7884114583333 73.5392795138889  17.6243489583333 72.3782552083333  C 16.3704427083333 70.0562065972222  15.4184027777778 67.7573784722222  14.7682291666667 65.4817708333333  L 2.02018229166667 63.6009114583333  C 1.41644965277778 63.5080295138889  0.928819444444445 63.2177734375  0.557291666666667 62.7301432291667  C 0.185763888888889 62.2425130208333  0 61.6968315972222  0 61.0930989583333  L 0 45.6282552083333  C 0 45.0709635416667  0.185763888888889 44.5368923611111  0.557291666666667 44.0260416666667  C 0.928819444444445 43.5151909722222  1.37000868055556 43.2133246527778  1.880859375 43.1204427083333  L 14.837890625 41.169921875  C 15.4880642361111 39.0336371527778  16.3936631944444 36.8973524305556  17.5546875 34.7610677083333  C 15.6970486111111 32.1139322916667  13.2124565972222 28.9095052083333  10.1009114583333 25.1477864583333  C 9.63650173611111 24.5904947916667  9.404296875 24.033203125  9.404296875 23.4759114583333  C 9.404296875 23.0115017361111  9.61328125 22.4774305555555  10.03125 21.8736979166667  C 11.2387152777778 20.2018229166667  13.5259331597222 17.7056206597222  16.8929036458333 14.3850911458333  C 20.2598741319444 11.0645616319444  22.4542100694444 9.404296875  23.4759114583333 9.404296875  C 24.0796440972222 9.404296875  24.6833767361111 9.63650173611111  25.287109375 10.1009114583333  L 34.900390625 17.5546875  C 36.9437934027778 16.4865451388889  39.0568576388889 15.6041666666667  41.2395833333333 14.9075520833333  C 41.9826388888889 8.59157986111111  42.6560329861111 4.27256944444443  43.259765625 1.95052083333333  C 43.5848524305556 0.650173611111106  44.4207899305556 0  45.767578125 0  L 61.232421875 0  C 61.8825954861111 0  62.4514973958333 0.197374131944435  62.9391276041667 0.592122395833329  C 63.4267578125 0.986870659722212  63.6937934027778 1.48611111111111  63.740234375 2.08984375  L 65.6907552083333 14.9075520833333  C 67.9663628472222 15.6506076388889  70.0562065972222 16.509765625  71.9602864583333 17.4850260416667  L 81.8522135416667 10.03125  C 82.2701822916667 9.61328125  82.8274739583333 9.404296875  83.5240885416667 9.404296875  C 84.1278211805556 9.404296875  84.7083333333333 9.63650173611111  85.265625 10.1009114583333  C 91.2565104166667 15.6273871527778  95.087890625 19.5748697916667  96.759765625 21.943359375  C 97.0848524305556 22.3148871527778  97.2473958333333 22.8257378472222  97.2473958333333 23.4759114583333  C 97.2473958333333 24.033203125  97.0616319444445 24.5672743055555  96.6901041666667 25.078125  C 95.9934895833333 26.0533854166667  94.8092447916667 27.5975477430555  93.1373697916667 29.7106119791667  C 91.4654947916667 31.8236762152778  90.2115885416667 33.4607204861111  89.3756510416667 34.6217447916667  C 90.5831163194445 36.9437934027778  91.53515625 39.2194010416667  92.2317708333333 41.4485677083333  L 104.979817708333 43.3990885416667  C 105.583550347222 43.4919704861111  106.071180555556 43.7822265625  106.442708333333 44.2698567708333  Z " fill-rule="nonzero" fill="#000000" stroke="none" transform="matrix(1 0 0 1 102 873 )" />
  </g>
</svg>