<?xml version="1.0" encoding="utf-8"?>
<svg version="1.1" xmlns:xlink="http://www.w3.org/1999/xlink" width="99px" height="118px" xmlns="http://www.w3.org/2000/svg">
  <g transform="matrix(1 0 0 1 -102 -680 )">
    <path d="M 98.342578125 85.3118489583333  C 98.780859375 89.1786024305555  99 93.2886284722222  99 97.6419270833333  C 99 103.224392361111  97.388671875 108.013020833333  94.166015625 112.0078125  C 90.943359375 116.002604166667  87.06328125 118  82.52578125 118  L 16.47421875 118  C 11.93671875 118  8.056640625 116.002604166667  4.833984375 112.0078125  C 1.611328125 108.013020833333  0 103.224392361111  0 97.6419270833333  C 0 93.2886284722222  0.219140625000001 89.1786024305555  0.657421875000001 85.3118489583333  C 1.095703125 81.4450954861111  1.9078125 77.552734375  3.09375 73.634765625  C 4.2796875 69.716796875  5.787890625 66.3621961805556  7.618359375 63.5709635416667  C 9.448828125 60.7797309027778  11.872265625 58.5006510416667  14.888671875 56.7337239583333  C 17.905078125 54.966796875  21.37265625 54.0833333333333  25.29140625 54.0833333333333  C 32.04609375 60.6388888888889  40.115625 63.9166666666667  49.5 63.9166666666667  C 58.884375 63.9166666666667  66.95390625 60.6388888888889  73.70859375 54.0833333333333  C 77.62734375 54.0833333333333  81.094921875 54.966796875  84.111328125 56.7337239583333  C 87.127734375 58.5006510416667  89.551171875 60.7797309027778  91.381640625 63.5709635416667  C 93.212109375 66.3621961805556  94.7203125 69.716796875  95.90625 73.634765625  C 97.0921875 77.552734375  97.904296875 81.4450954861111  98.342578125 85.3118489583333  Z M 70.498828125 8.642578125  C 76.299609375 14.404296875  79.2 21.3567708333333  79.2 29.5  C 79.2 37.6432291666667  76.299609375 44.595703125  70.498828125 50.357421875  C 64.698046875 56.119140625  57.6984375 59  49.5 59  C 41.3015625 59  34.301953125 56.119140625  28.501171875 50.357421875  C 22.700390625 44.595703125  19.8 37.6432291666667  19.8 29.5  C 19.8 21.3567708333333  22.700390625 14.404296875  28.501171875 8.642578125  C 34.301953125 2.880859375  41.3015625 0  49.5 0  C 57.6984375 0  64.698046875 2.880859375  70.498828125 8.642578125  Z " fill-rule="nonzero" fill="#000000" stroke="none" transform="matrix(1 0 0 1 102 680 )" />
  </g>
</svg>