<?xml version="1.0" encoding="utf-8"?>
<svg version="1.1" xmlns:xlink="http://www.w3.org/1999/xlink" width="65px" height="90px" xmlns="http://www.w3.org/2000/svg">
  <g transform="matrix(1 0 0 1 -114 -1072 )">
    <path d="M 41.9513513513513 68.34375  C 42.5135135135135 68.90625  42.7945945945946 69.5625  42 70.3125  L 42 87.1875  C 42.7945945945946 87.9375  42.5135135135135 88.59375  41.9513513513513 89.15625  C 41.3891891891892 89.71875  40.7333333333333 90  39.9837837837838 90  L 23.1189189189189 90  C 22.3693693693694 90  21.7135135135135 89.71875  21.1513513513514 89.15625  C 20.5891891891892 88.59375  20.3081081081081 87.9375  21 87.1875  L 21 70.3125  C 20.3081081081081 69.5625  20.5891891891892 68.90625  21.1513513513514 68.34375  C 21.7135135135135 67.78125  22.3693693693694 67.5  23.1189189189189 67  L 39.9837837837838 67  C 40.7333333333333 67.5  41.3891891891892 67.78125  41.9513513513513 68.34375  Z M 62.1189189189189 16.98046875  C 64.0396396396396 20.51953125  65 24.234375  65 28.125  C 65 30.65625  64.6369369369369 33.0234375  63.9108108108108 35.2265625  C 63.1846846846847 37.4296875  62.3648648648649 39.22265625  61.4513513513513 40.60546875  C 60.5378378378378 41.98828125  59.2495495495496 43.3828125  57.5864864864865 44.7890625  C 55.9234234234234 46.1953125  54.5765765765766 47.21484375  53.5459459459459 47.84765625  C 52.5153153153153 48.48046875  51.0864864864865 49.3125  49.2594594594595 50.34375  C 47.3387387387387 51.421875  45.7342342342342 52.9453125  44.4459459459459 54.9140625  C 43.1576576576577 56.8828125  42.5135135135135 58.453125  42.5135135135135 59.625  C 42.5135135135135 60.421875  42.2324324324324 61.18359375  41.6702702702703 61.91015625  C 41.1081081081081 62.63671875  40.4522522522523 63  39.7027027027027 63  L 22.8378378378378 63  C 22.1351351351351 63  21.5378378378378 62.56640625  21.0459459459459 61.69921875  C 20.5540540540541 60.83203125  20.3081081081081 59.953125  20.3081081081081 59.0625  L 20.3081081081081 55.8984375  C 20.3081081081081 52.0078125  21.8306306306306 48.33984375  24.8756756756757 44.89453125  C 27.9207207207207 41.44921875  31.2702702702703 38.90625  34.9243243243243 37.265625  C 37.6882882882883 36  39.6558558558559 34.6875  40.827027027027 33.328125  C 41.9981981981982 31.96875  42.5837837837838 30.1875  42.5837837837838 27.984375  C 42.5837837837838 26.015625  41.4945945945946 24.28125  39.3162162162162 22.78125  C 37.1378378378378 21.28125  34.6198198198198 20.53125  31.7621621621622 20.53125  C 28.7171171171171 20.53125  26.1873873873874 21.2109375  24.172972972973 22.5703125  C 22.5333333333333 23.7421875  20.027027027027 26.4375  16.6540540540541 30.65625  C 16.045045045045 31.40625  15.3189189189189 31.78125  14.4756756756757 31.78125  C 13.9135135135135 31.78125  13.3279279279279 31.59375  12.7189189189189 31.21875  L 1.19459459459459 22.4296875  C 0.585585585585586 21.9609375  0.222522522522524 21.375  0.105405405405405 20.671875  C -0.011711711711711 19.96875  0.117117117117117 19.3125  0.491891891891892 18.703125  C 7.98738738738739 6.23437499999999  18.8558558558559 0  33.0972972972973 0  C 36.8450450450451 0  40.6162162162162 0.726562499999999  44.4108108108108 2.1796875  C 48.2054054054054 3.63281249999999  51.6252252252252 5.57812499999999  54.6702702702703 8.015625  C 57.7153153153153 10.453125  60.1981981981982 13.44140625  62.1189189189189 16.98046875  Z " fill-rule="nonzero" fill="#000000" stroke="none" transform="matrix(1 0 0 1 114 1072 )" />
  </g>
</svg>