<?xml version="1.0" encoding="utf-8"?>
<svg version="1.1" xmlns:xlink="http://www.w3.org/1999/xlink" width="27px" height="32px" xmlns="http://www.w3.org/2000/svg">
  <g transform="matrix(1 0 0 1 -202 -155 )">
    <path d="M 20.091796875 15.5208333333333  C 20.197265625 15.6458333333333  20.25 15.8055555555556  20.25 16  C 20.25 16.1944444444444  20.197265625 16.3541666666667  20.091796875 16.4791666666667  L 14.466796875 23.1458333333333  C 14.361328125 23.2708333333333  14.2265625 23.3333333333333  14.0625 23.3333333333333  C 13.91015625 23.3333333333333  13.7783203125 23.2673611111111  13.6669921875 23.1354166666667  C 13.5556640625 23.0034722222222  13.5 22.8472222222222  13.5 22.6666666666667  L 13.5 18.6666666666667  L 7.3125 18.6666666666667  C 7.16015625 18.6666666666667  7.0283203125 18.6006944444444  6.9169921875 18.46875  C 6.8056640625 18.3368055555556  6.75 18.1805555555556  6.75 18  L 6.75 14  C 6.75 13.8194444444444  6.8056640625 13.6631944444444  6.9169921875 13.53125  C 7.0283203125 13.3993055555556  7.16015625 13.3333333333333  7.3125 13.3333333333333  L 13.5 13.3333333333333  L 13.5 9.33333333333333  C 13.5 9.13888888888889  13.552734375 8.97916666666667  13.658203125 8.85416666666667  C 13.763671875 8.72916666666667  13.8984375 8.66666666666667  14.0625 8.66666666666667  C 14.203125 8.66666666666667  14.34375 8.73611111111111  14.484375 8.875  L 20.091796875 15.5208333333333  Z M 21.779296875 21.6875  C 22.634765625 19.9513888888889  23.0625 18.0555555555556  23.0625 16  C 23.0625 13.9444444444444  22.634765625 12.0486111111111  21.779296875 10.3125  C 20.923828125 8.57638888888889  19.763671875 7.20138888888889  18.298828125 6.1875  C 16.833984375 5.17361111111111  15.234375 4.66666666666667  13.5 4.66666666666667  C 11.765625 4.66666666666667  10.166015625 5.17361111111111  8.701171875 6.1875  C 7.236328125 7.20138888888889  6.076171875 8.57638888888889  5.220703125 10.3125  C 4.365234375 12.0486111111111  3.9375 13.9444444444444  3.9375 16  C 3.9375 18.0555555555556  4.365234375 19.9513888888889  5.220703125 21.6875  C 6.076171875 23.4236111111111  7.236328125 24.7986111111111  8.701171875 25.8125  C 10.166015625 26.8263888888889  11.765625 27.3333333333333  13.5 27.3333333333333  C 15.234375 27.3333333333333  16.833984375 26.8263888888889  18.298828125 25.8125  C 19.763671875 24.7986111111111  20.923828125 23.4236111111111  21.779296875 21.6875  Z M 25.189453125 7.96875  C 26.396484375 10.4201388888889  27 13.0972222222222  27 16  C 27 18.9027777777778  26.396484375 21.5798611111111  25.189453125 24.03125  C 23.982421875 26.4826388888889  22.3447265625 28.4236111111111  20.2763671875 29.8541666666667  C 18.2080078125 31.2847222222222  15.94921875 32  13.5 32  C 11.05078125 32  8.7919921875 31.2847222222222  6.7236328125 29.8541666666667  C 4.6552734375 28.4236111111111  3.017578125 26.4826388888889  1.810546875 24.03125  C 0.603515625 21.5798611111111  0 18.9027777777778  0 16  C 0 13.0972222222222  0.603515625 10.4201388888889  1.810546875 7.96875  C 3.017578125 5.51736111111111  4.6552734375 3.57638888888889  6.7236328125 2.14583333333333  C 8.7919921875 0.715277777777775  11.05078125 0  13.5 0  C 15.94921875 0  18.2080078125 0.715277777777775  20.2763671875 2.14583333333333  C 22.3447265625 3.57638888888889  23.982421875 5.51736111111111  25.189453125 7.96875  Z " fill-rule="nonzero" fill="#000000" stroke="none" transform="matrix(1 0 0 1 202 155 )" />
  </g>
</svg>