<?xml version="1.0" encoding="utf-8"?>
<svg version="1.1" xmlns:xlink="http://www.w3.org/1999/xlink" width="113px" height="129px" xmlns="http://www.w3.org/2000/svg">
  <g transform="matrix(1 0 0 1 -393 -217 )">
    <path d="M 111.459090909091 49.3235294117647  C 112.880430665349 51.352903420675  111.459090909091 123.602406302701  111.459090909091 126  L 90.9136363636364 126  C 90.9136363636364 129.338770167887  91.6840909090909 77.4632352941176  90.9136363636364 78.8208865060787  C 90.1431818181818 80.1785377180397  91.1625452898551 78.8208865060787  88.8884016798419 78  L 42.7057929841898 78  L 61.9266798418972 102.686324850865  C 63.5885540184454 104.634523899419  64.4194911067193 107.069772710111  64.4194911067193 109.992071282942  C 64.4194911067193 112.914369855773  63.5885540184454 115.349618666465  61.9266798418972 117.297817715019  L 57.0066576086956 123.467114702107  C 55.3885169631094 125.469430390898  53.4205080698287 126.470588235294  51.1026309288538 126.470588235294  C 48.8284873188406 126.470588235294  46.838611660079 125.469430390898  45.1330039525691 123.467114702107  L 2.42721096837939 70.5410405497244  C 0.80907032279313 68.5387248609328  0 66.1034760502404  0 63.2352941176471  C 0 60.4212288252913  0.80907032279313 57.95892169448  2.42721096837939 55.8483727252133  L 45.1330039525691 3.08464849354376  C 46.7948781291172 1.02821616451459  48.7847537878788 0  51.1026309288538 0  C 53.3767745388669 0  55.3447834321476 1.02821616451459  57.0066576086956 3.08464849354376  L 61.9266798418972 9.09159555991845  C 63.5885540184454 11.1480278889476  64.4194911067193 13.6103350197589  64.4194911067193 16.4785169523522  C 64.4194911067193 19.3466988849455  63.5885540184454 21.8090060157567  61.9266798418972 23.8654383447859  L 42.7057929841898 47.6497017292155  L 49.3090909090909 48  L 93.4818181818182 48  C 95.7559617918314 47.6497017292155  110.037751152833 47.2941554028543  111.459090909091 49.3235294117647  Z " fill-rule="nonzero" fill="#000000" stroke="none" transform="matrix(1 0 0 1 393 217 )" />
  </g>
</svg>