<?xml version="1.0" encoding="utf-8"?>
<svg version="1.1" xmlns:xlink="http://www.w3.org/1999/xlink" width="125px" height="119px" xmlns="http://www.w3.org/2000/svg">
  <g transform="matrix(1 0 0 1 -564 -225 )">
    <path d="M 56.2650240384615 10.2095639943741  C 57.216546474359 11.2695733708392  57.6923076923077 12.5248476324426  58 13.9753867791842  L 58 105.024613220816  C 57.6923076923077 106.475152367557  57.216546474359 107.730426629161  56.2650240384615 108.790436005626  C 55.3135016025641 109.850445382091  54.1866987179487 110.380450070323  52.8846153846154 110.380450070323  C 51.5825320512821 110.380450070323  50.4557291666667 109.850445382091  49.5042067307692 108.790436005626  L 24.4891826923077 81  L 4.80769230769231 81  C 3.50560897435897 80.9233473980309  2.37880608974359 80.3933427097984  1.42728365384615 79.3333333333333  C 0.475761217948718 78.2733239568683  0 77.0180496952649  0 75.5675105485232  L 0 43.4324894514768  C 0 41.9819503047351  0.475761217948718 40.7266760431317  1.42728365384615 39.6666666666667  C 2.37880608974359 38.6066572902016  3.50560897435897 38.0766526019691  4.80769230769231 38  L 24.4891826923077 38  L 49.5042067307692 10.2095639943741  C 50.4557291666667 9.14955461790905  51.5825320512821 8.61954992967652  52.8846153846154 8.61954992967652  C 54.1866987179487 8.61954992967652  55.3135016025641 9.14955461790905  56.2650240384615 10.2095639943741  Z M 83.3458533653846 47.6167369901547  C 85.4742588141026 51.2988748241913  86.5384615384615 55.2599624941397  86.5384615384615 59.5  C 86.5384615384615 63.7400375058603  85.4742588141026 67.6871776840131  83.3458533653846 71.3414205344585  C 81.2174479166667 74.9956633849039  78.4004407051282 77.6038443506798  74.8948317307692 79.1659634317862  C 74.394030448718 79.4449132676981  73.7680288461539 79.584388185654  73.0168269230769 79.584388185654  C 71.7147435897436 79.584388185654  70.5879407051282 79.068330989217  69.6364182692308 78.0362165963432  C 68.6848958333333 77.0041022034693  68.2091346153846 75.7348804500703  68.2091346153846 74.2285513361463  C 68.2091346153846 73.0569620253165  68.5096153846154 72.0666901078293  69.1105769230769 71.2577355836849  C 69.7115384615385 70.4487810595406  70.4377003205128 69.7514064697609  71.2890625 69.165611814346  C 72.1404246794872 68.5798171589311  72.9917868589744 67.9382325363338  73.8431490384615 67.2408579465542  C 74.6945112179487 66.5434833567745  75.4206730769231 65.5392639474918  76.0216346153846 64.228199718706  C 76.6225961538462 62.9171354899203  76.9230769230769 61.3410689170183  76.9230769230769 59.5  C 76.9230769230769 57.6589310829817  76.6225961538462 56.0828645100797  76.0216346153846 54.7718002812939  C 75.4206730769231 53.4607360525082  74.6945112179487 52.4565166432255  73.8431490384615 51.7591420534459  C 72.9917868589744 51.0617674636662  72.1404246794872 50.4201828410689  71.2890625 49.834388185654  C 70.4377003205128 49.2485935302391  69.7115384615385 48.5512189404594  69.1105769230769 47.7422644163151  C 68.5096153846154 46.9333098921706  68.2091346153846 45.9430379746835  68.2091346153846 44.7714486638537  C 68.2091346153846 43.2651195499297  68.6848958333333 41.9958977965307  69.6364182692308 40.9637834036568  C 70.5879407051282 39.9316690107829  71.7147435897436 39.415611814346  73.0168269230769 39.415611814346  C 73.7680288461539 39.415611814346  74.394030448718 39.5550867323019  74.8948317307692 39.8340365682138  C 78.4004407051282 41.3403656821378  81.2174479166667 43.9345991561181  83.3458533653846 47.6167369901547  Z M 99.3840144230769 35.8590014064698  C 103.640825320513 43.083802156587  105.769230769231 50.964135021097  105.769230769231 59.5  C 105.769230769231 68.035864978903  103.640825320513 75.916197843413  99.3840144230769 83.1409985935302  C 95.127203525641 90.3657993436474  89.4931891025641 95.624003750586  82.4819711538462 98.915611814346  C 81.8309294871795 99.1945616502578  81.2049278846154 99.3340365682138  80.6039663461538 99.3340365682138  C 79.2518028846154 99.3340365682138  78.0999599358974 98.8040318799813  77.1484375 97.7440225035162  C 76.1969150641026 96.6840131270511  75.7211538461539 95.4287388654477  75.7211538461538 93.978199718706  C 75.7211538461539 91.8023909985935  76.6977163461539 90.1565869667135  78.6508413461538 89.0407876230661  C 81.455328525641 87.4228785747773  83.3583733974359 86.1954992967651  84.3599759615385 85.3586497890295  C 88.065905448718 82.3459915611814  90.9580328525641 78.5662212845757  93.0363581730769 74.0193389592124  C 95.1146834935897 69.472456633849  96.1538461538462 64.6326769807782  96.1538461538462 59.5  C 96.1538461538462 54.3673230192217  95.1146834935897 49.527543366151  93.0363581730769 44.9806610407876  C 90.9580328525641 40.4337787154243  88.065905448718 36.6540084388186  84.3599759615385 33.6413502109705  C 83.3583733974359 32.8045007032349  81.455328525641 31.5771214252227  78.6508413461538 29.9592123769339  C 76.6977163461539 28.8434130332864  75.7211538461539 27.1976090014065  75.7211538461538 25.0218002812939  C 75.7211538461539 23.5712611345523  76.1969150641026 22.3159868729489  77.1484375 21.2559774964838  C 78.0999599358974 20.1959681200188  79.2267628205128 19.6659634317862  80.5288461538462 19.6659634317862  C 81.1798878205128 19.6659634317862  81.8309294871795 19.8054383497421  82.4819711538462 20.084388185654  C 89.4931891025641 23.375996249414  95.127203525641 28.6342006563525  99.3840144230769 35.8590014064698  Z M 115.459735576923 24.1431082981716  C 121.819911858974 34.8826769807782  125 46.6683075480544  125 59.5  C 125 72.3316924519456  121.819911858974 84.1173230192217  115.459735576923 94.8568917018284  C 109.099559294872 105.596460384435  100.636017628205 113.504688232536  90.0691105769231 118.581575246132  C 89.4180689102564 118.860525082044  88.7670272435897 119  88.1159855769231 119  C 86.8139022435897 119  85.6870993589744 118.469995311767  84.7355769230769 117.409985935302  C 83.7840544871795 116.349976558837  83.3082932692308 115.094702297234  83.3082932692308 113.644163150492  C 83.3082932692308 111.635724331927  84.2848557692308 109.989920300047  86.2379807692308 108.706751054852  C 86.5885416666667 108.483591186123  87.1519431089744 108.190693858415  87.9281850961538 107.82805907173  C 88.7044270833333 107.465424285045  89.267828525641 107.172526957337  89.6183894230769 106.949367088608  C 91.9220753205128 105.554617909048  93.9753605769231 104.131973745898  95.7782451923077 102.681434599156  C 101.938100961538 97.6045475855602  106.745793269231 91.272386310361  110.201322115385 83.6849507735584  C 113.656850961538 76.0975152367557  115.384615384615 68.035864978903  115.384615384615 59.5  C 115.384615384615 50.964135021097  113.656850961538 42.9024847632443  110.201322115385 35.3150492264416  C 106.745793269231 27.727613689639  101.938100961538 21.3954524144397  95.7782451923077 16.3185654008439  C 93.9753605769231 14.8680262541022  91.9220753205128 13.4453820909517  89.6183894230769 12.0506329113924  C 89.267828525641 11.8274730426629  88.7044270833333 11.5345757149555  87.9281850961538 11.17194092827  C 87.1519431089744 10.8093061415846  86.5885416666667 10.5164088138772  86.2379807692308 10.2932489451477  C 84.2848557692308 9.0100796999531  83.3082932692308 7.36427566807313  83.3082932692308 5.35583684950774  C 83.3082932692308 3.90529770276604  83.7840544871795 2.65002344116267  84.7355769230769 1.59001406469761  C 85.6870993589744 0.530004688232531  86.8139022435897 0  88.1159855769231 0  C 88.7670272435897 0  89.4180689102564 0.139474917955923  90.0691105769231 0.418424753867796  C 100.636017628205 5.49531176746365  109.099559294872 13.4035396155649  115.459735576923 24.1431082981716  Z " fill-rule="nonzero" fill="#000000" stroke="none" transform="matrix(1 0 0 1 564 225 )" />
  </g>
</svg>