<?xml version="1.0" encoding="utf-8"?>
<svg version="1.1" xmlns:xlink="http://www.w3.org/1999/xlink" width="51px" height="66px" xmlns="http://www.w3.org/2000/svg">
  <g transform="matrix(1 0 0 1 -335 -212 )">
    <path d="M 4 50.6785714285714  L 4 61.2857142857143  L 13 61.2857142857143  L 13 50.6785714285714  L 4 50.6785714285714  Z M 15 50  L 15 61.2857142857143  L 25 61.2857142857143  L 25 50  L 15 50  Z M 4 36.5357142857143  L 4 48.3214285714286  L 13 48.3214285714286  L 13 36.5357142857143  L 4 36.5357142857143  Z M 15 36  L 15 48.3214285714286  L 25 48.3214285714286  L 25 36  L 15 36  Z M 4 23.5714285714286  L 4 34.1785714285714  L 13 34.1785714285714  L 13 23.5714285714286  L 4 23.5714285714286  Z M 26 50  L 26 61  L 36 61  L 36 50  L 26 50  Z M 15 24  L 15 34.1785714285714  L 25 34.1785714285714  L 25 24  L 15 24  Z M 38 50.6785714285714  L 38 61.2857142857143  L 47 61.2857142857143  L 47 50.6785714285714  L 38 50.6785714285714  Z M 26 36  L 26 48  L 36 48  L 36 36  L 26 36  Z M 15.4011418269231 17.3286830357143  C 15.5952524038462 17.0954241071429  15.6923076923077 16.8191964285714  16 16.5  L 16 5.89285714285714  C 15.6923076923077 5.57366071428571  15.5952524038462 5.29743303571428  15.4011418269231 5.06417410714286  C 15.20703125 4.83091517857142  14.9771634615385 4.71428571428571  14.7115384615385 4.71428571428571  L 12.75 4.71428571428571  C 12.484375 4.71428571428571  12.2545072115385 4.83091517857142  12.0603966346154 5.06417410714286  C 11.8662860576923 5.29743303571428  11.7692307692308 5.57366071428571  12 5.89285714285714  L 12 16.5  C 11.7692307692308 16.8191964285714  11.8662860576923 17.0954241071429  12.0603966346154 17.3286830357143  C 12.2545072115385 17.5619419642857  12.484375 17.6785714285714  12.75 17.6785714285714  L 14.7115384615385 17.6785714285714  C 14.9771634615385 17.6785714285714  15.20703125 17.5619419642857  15.4011418269231 17.3286830357143  Z M 38 36.5357142857143  L 38 48.3214285714286  L 47 48.3214285714286  L 47 36.5357142857143  L 38 36.5357142857143  Z M 26 24  L 26 34  L 36 34  L 36 24  L 26 24  Z M 38 23.5714285714286  L 38 34.1785714285714  L 47 34.1785714285714  L 47 23.5714285714286  L 38 23.5714285714286  Z M 38.9396033653846 17.3286830357143  C 39.1337139423077 17.0954241071429  39.2307692307692 16.8191964285714  39 16.5  L 39 5.89285714285714  C 39.2307692307692 5.57366071428571  39.1337139423077 5.29743303571428  38.9396033653846 5.06417410714286  C 38.7454927884615 4.83091517857142  38.515625 4.71428571428571  38.25 4.71428571428571  L 36.2884615384615 4.71428571428571  C 36.0228365384615 4.71428571428571  35.79296875 4.83091517857142  35.5988581730769 5.06417410714286  C 35.4047475961538 5.29743303571428  35.3076923076923 5.57366071428571  35 5.89285714285714  L 35 16.5  C 35.3076923076923 16.8191964285714  35.4047475961538 17.0954241071429  35.5988581730769 17.3286830357143  C 35.79296875 17.5619419642857  36.0228365384615 17.6785714285714  36.2884615384615 17.6785714285714  L 38.25 17.6785714285714  C 38.515625 17.6785714285714  38.7454927884615 17.5619419642857  38.9396033653846 17.3286830357143  Z M 49.8353365384615 10.828125  C 50.6117788461539 11.7611607142857  51 12.8660714285714  51 14.1428571428571  L 51 61.2857142857143  C 51 62.5625  50.6117788461539 63.6674107142857  49.8353365384615 64.6004464285714  C 49.0588942307692 65.5334821428571  48.1394230769231 66  47.0769230769231 66  L 3.92307692307692 66  C 2.86057692307692 66  1.94110576923077 65.5334821428571  1.16466346153846 64.6004464285714  C 0.388221153846154 63.6674107142857  0 62.5625  0 61.2857142857143  L 0 14.1428571428571  C 0 12.8660714285714  0.388221153846154 11.7611607142857  1.16466346153846 10.828125  C 1.94110576923077 9.89508928571428  2.86057692307692 9.42857142857143  3.92307692307692 9.42857142857143  L 7.84615384615385 9.42857142857143  L 7.84615384615385 5.89285714285714  C 7.84615384615385 4.27232142857143  8.32632211538462 2.88504464285714  9.28665865384615 1.73102678571429  C 10.2469951923077 0.577008928571429  11.4014423076923 0  12.75 0  L 14.7115384615385 0  C 16.0600961538462 0  17.2145432692308 0.577008928571429  18.1748798076923 1.73102678571429  C 19.1352163461538 2.88504464285714  19.6153846153846 4.27232142857143  19.6153846153846 5.89285714285714  L 19.6153846153846 10  L 31.3846153846154 10  L 31.3846153846154 5.89285714285714  C 31.3846153846154 4.27232142857143  31.8647836538462 2.88504464285714  32.8251201923077 1.73102678571429  C 33.7854567307692 0.577008928571429  34.9399038461538 0  36.2884615384615 0  L 38.25 0  C 39.5985576923077 0  40.7530048076923 0.577008928571429  41.7133413461538 1.73102678571429  C 42.6736778846154 2.88504464285714  43.1538461538462 4.27232142857143  43.1538461538462 5.89285714285714  L 43.1538461538462 9.42857142857143  L 47.0769230769231 9.42857142857143  C 48.1394230769231 9.42857142857143  49.0588942307692 9.89508928571428  49.8353365384615 10.828125  Z " fill-rule="nonzero" fill="#000000" stroke="none" transform="matrix(1 0 0 1 335 212 )" />
  </g>
</svg>