<?xml version="1.0" encoding="utf-8"?>
<svg version="1.1" xmlns:xlink="http://www.w3.org/1999/xlink" width="47px" height="59px" xmlns="http://www.w3.org/2000/svg">
  <defs>
    <mask fill="white" id="clip12">
      <path d="M 27.1412760416667 15.095703125  C 27.3248697916667 15.326171875  27.4166666666667 15.6206597222222  27 15.9791666666667  L 27 33.1875  C 27.4166666666667 33.5460069444444  27.3248697916667 33.8404947916667  27.1412760416667 34.0709635416667  C 26.9576822916667 34.3014322916667  26.7230902777778 34.4166666666667  26.4375 34.4166666666667  L 16.6458333333333 34.4166666666667  C 16.3602430555556 34.4166666666667  16.1256510416667 34.3014322916667  15.9420572916667 34.0709635416667  C 15.7584635416667 33.8404947916667  15.6666666666667 33.5460069444444  15.6666666666667 33.1875  L 15.6666666666667 30.7291666666667  C 15.6666666666667 30.3706597222222  15.7584635416667 30.076171875  15.9420572916667 29.845703125  C 16.1256510416667 29.615234375  16.3602430555556 29.5  16.6458333333333 29.5  L 23 29.5  L 23 15.9791666666667  C 23.5 15.6206597222222  23.591796875 15.326171875  23.775390625 15.095703125  C 23.958984375 14.865234375  24.1935763888889 14.75  24.4791666666667 14.75  L 26.4375 14.75  C 26.7230902777778 14.75  26.9576822916667 14.865234375  27.1412760416667 15.095703125  Z M 37.912109375 39.986328125  C 39.4012586805556 36.7853732638889  40.1458333333333 33.2899305555556  40.1458333333333 29.5  C 40.1458333333333 25.7100694444444  39.4012586805556 22.2146267361111  37.912109375 19.013671875  C 36.4229600694445 15.8127170138889  34.4034288194445 13.2775607638889  31.853515625 11.408203125  C 29.3036024305556 9.53884548611111  26.5190972222222 8.60416666666667  23.5 8.60416666666667  C 20.4809027777778 8.60416666666667  17.6963975694444 9.53884548611111  15.146484375 11.408203125  C 12.5965711805556 13.2775607638889  10.5770399305556 15.8127170138889  9.087890625 19.013671875  C 7.59874131944445 22.2146267361111  6.85416666666667 25.7100694444444  6.85416666666667 29.5  C 6.85416666666667 33.2899305555556  7.59874131944445 36.7853732638889  9.087890625 39.986328125  C 10.5770399305556 43.1872829861111  12.5965711805556 45.7224392361111  15.146484375 47.591796875  C 17.6963975694444 49.4611545138889  20.4809027777778 50.3958333333333  23.5 50.3958333333333  C 26.5190972222222 50.3958333333333  29.3036024305556 49.4611545138889  31.853515625 47.591796875  C 34.4034288194445 45.7224392361111  36.4229600694445 43.1872829861111  37.912109375 39.986328125  Z M 43.8483072916667 14.6923828125  C 45.9494357638889 19.2121310763889  47 24.1480034722222  47 29.5  C 47 34.8519965277778  45.9494357638889 39.7878689236111  43.8483072916667 44.3076171875  C 41.7471788194445 48.8273654513889  38.8963758680556 52.4060329861111  35.2958984375 55.0436197916667  C 31.6954210069445 57.6812065972222  27.7634548611111 59  23.5 59  C 19.2365451388889 59  15.3045789930556 57.6812065972222  11.7041015625 55.0436197916667  C 8.10362413194444 52.4060329861111  5.25282118055556 48.8273654513889  3.15169270833333 44.3076171875  C 1.05056423611111 39.7878689236111  0 34.8519965277778  0 29.5  C 0 24.1480034722222  1.05056423611111 19.2121310763889  3.15169270833333 14.6923828125  C 5.25282118055556 10.1726345486111  8.10362413194444 6.59396701388888  11.7041015625 3.95638020833333  C 15.3045789930556 1.31879340277777  19.2365451388889 0  23.5 0  C 27.7634548611111 0  31.6954210069445 1.31879340277777  35.2958984375 3.95638020833333  C 38.8963758680556 6.59396701388888  41.7471788194445 10.1726345486111  43.8483072916667 14.6923828125  Z " fill-rule="evenodd" />
    </mask>
  </defs>
  <g transform="matrix(1 0 0 1 0 -318 )">
    <path d="M 27.1412760416667 15.095703125  C 27.3248697916667 15.326171875  27.4166666666667 15.6206597222222  27 15.9791666666667  L 27 33.1875  C 27.4166666666667 33.5460069444444  27.3248697916667 33.8404947916667  27.1412760416667 34.0709635416667  C 26.9576822916667 34.3014322916667  26.7230902777778 34.4166666666667  26.4375 34.4166666666667  L 16.6458333333333 34.4166666666667  C 16.3602430555556 34.4166666666667  16.1256510416667 34.3014322916667  15.9420572916667 34.0709635416667  C 15.7584635416667 33.8404947916667  15.6666666666667 33.5460069444444  15.6666666666667 33.1875  L 15.6666666666667 30.7291666666667  C 15.6666666666667 30.3706597222222  15.7584635416667 30.076171875  15.9420572916667 29.845703125  C 16.1256510416667 29.615234375  16.3602430555556 29.5  16.6458333333333 29.5  L 23 29.5  L 23 15.9791666666667  C 23.5 15.6206597222222  23.591796875 15.326171875  23.775390625 15.095703125  C 23.958984375 14.865234375  24.1935763888889 14.75  24.4791666666667 14.75  L 26.4375 14.75  C 26.7230902777778 14.75  26.9576822916667 14.865234375  27.1412760416667 15.095703125  Z M 37.912109375 39.986328125  C 39.4012586805556 36.7853732638889  40.1458333333333 33.2899305555556  40.1458333333333 29.5  C 40.1458333333333 25.7100694444444  39.4012586805556 22.2146267361111  37.912109375 19.013671875  C 36.4229600694445 15.8127170138889  34.4034288194445 13.2775607638889  31.853515625 11.408203125  C 29.3036024305556 9.53884548611111  26.5190972222222 8.60416666666667  23.5 8.60416666666667  C 20.4809027777778 8.60416666666667  17.6963975694444 9.53884548611111  15.146484375 11.408203125  C 12.5965711805556 13.2775607638889  10.5770399305556 15.8127170138889  9.087890625 19.013671875  C 7.59874131944445 22.2146267361111  6.85416666666667 25.7100694444444  6.85416666666667 29.5  C 6.85416666666667 33.2899305555556  7.59874131944445 36.7853732638889  9.087890625 39.986328125  C 10.5770399305556 43.1872829861111  12.5965711805556 45.7224392361111  15.146484375 47.591796875  C 17.6963975694444 49.4611545138889  20.4809027777778 50.3958333333333  23.5 50.3958333333333  C 26.5190972222222 50.3958333333333  29.3036024305556 49.4611545138889  31.853515625 47.591796875  C 34.4034288194445 45.7224392361111  36.4229600694445 43.1872829861111  37.912109375 39.986328125  Z M 43.8483072916667 14.6923828125  C 45.9494357638889 19.2121310763889  47 24.1480034722222  47 29.5  C 47 34.8519965277778  45.9494357638889 39.7878689236111  43.8483072916667 44.3076171875  C 41.7471788194445 48.8273654513889  38.8963758680556 52.4060329861111  35.2958984375 55.0436197916667  C 31.6954210069445 57.6812065972222  27.7634548611111 59  23.5 59  C 19.2365451388889 59  15.3045789930556 57.6812065972222  11.7041015625 55.0436197916667  C 8.10362413194444 52.4060329861111  5.25282118055556 48.8273654513889  3.15169270833333 44.3076171875  C 1.05056423611111 39.7878689236111  0 34.8519965277778  0 29.5  C 0 24.1480034722222  1.05056423611111 19.2121310763889  3.15169270833333 14.6923828125  C 5.25282118055556 10.1726345486111  8.10362413194444 6.59396701388888  11.7041015625 3.95638020833333  C 15.3045789930556 1.31879340277777  19.2365451388889 0  23.5 0  C 27.7634548611111 0  31.6954210069445 1.31879340277777  35.2958984375 3.95638020833333  C 38.8963758680556 6.59396701388888  41.7471788194445 10.1726345486111  43.8483072916667 14.6923828125  Z " fill-rule="nonzero" fill="#000000" stroke="none" transform="matrix(1 0 0 1 0 318 )" />
    <path d="M 27.1412760416667 15.095703125  C 27.3248697916667 15.326171875  27.4166666666667 15.6206597222222  27 15.9791666666667  L 27 33.1875  C 27.4166666666667 33.5460069444444  27.3248697916667 33.8404947916667  27.1412760416667 34.0709635416667  C 26.9576822916667 34.3014322916667  26.7230902777778 34.4166666666667  26.4375 34.4166666666667  L 16.6458333333333 34.4166666666667  C 16.3602430555556 34.4166666666667  16.1256510416667 34.3014322916667  15.9420572916667 34.0709635416667  C 15.7584635416667 33.8404947916667  15.6666666666667 33.5460069444444  15.6666666666667 33.1875  L 15.6666666666667 30.7291666666667  C 15.6666666666667 30.3706597222222  15.7584635416667 30.076171875  15.9420572916667 29.845703125  C 16.1256510416667 29.615234375  16.3602430555556 29.5  16.6458333333333 29.5  L 23 29.5  L 23 15.9791666666667  C 23.5 15.6206597222222  23.591796875 15.326171875  23.775390625 15.095703125  C 23.958984375 14.865234375  24.1935763888889 14.75  24.4791666666667 14.75  L 26.4375 14.75  C 26.7230902777778 14.75  26.9576822916667 14.865234375  27.1412760416667 15.095703125  Z " stroke-width="2" stroke="#000000" fill="none" transform="matrix(1 0 0 1 0 318 )" mask="url(#clip12)" />
    <path d="M 37.912109375 39.986328125  C 39.4012586805556 36.7853732638889  40.1458333333333 33.2899305555556  40.1458333333333 29.5  C 40.1458333333333 25.7100694444444  39.4012586805556 22.2146267361111  37.912109375 19.013671875  C 36.4229600694445 15.8127170138889  34.4034288194445 13.2775607638889  31.853515625 11.408203125  C 29.3036024305556 9.53884548611111  26.5190972222222 8.60416666666667  23.5 8.60416666666667  C 20.4809027777778 8.60416666666667  17.6963975694444 9.53884548611111  15.146484375 11.408203125  C 12.5965711805556 13.2775607638889  10.5770399305556 15.8127170138889  9.087890625 19.013671875  C 7.59874131944445 22.2146267361111  6.85416666666667 25.7100694444444  6.85416666666667 29.5  C 6.85416666666667 33.2899305555556  7.59874131944445 36.7853732638889  9.087890625 39.986328125  C 10.5770399305556 43.1872829861111  12.5965711805556 45.7224392361111  15.146484375 47.591796875  C 17.6963975694444 49.4611545138889  20.4809027777778 50.3958333333333  23.5 50.3958333333333  C 26.5190972222222 50.3958333333333  29.3036024305556 49.4611545138889  31.853515625 47.591796875  C 34.4034288194445 45.7224392361111  36.4229600694445 43.1872829861111  37.912109375 39.986328125  Z " stroke-width="2" stroke="#000000" fill="none" transform="matrix(1 0 0 1 0 318 )" mask="url(#clip12)" />
    <path d="M 43.8483072916667 14.6923828125  C 45.9494357638889 19.2121310763889  47 24.1480034722222  47 29.5  C 47 34.8519965277778  45.9494357638889 39.7878689236111  43.8483072916667 44.3076171875  C 41.7471788194445 48.8273654513889  38.8963758680556 52.4060329861111  35.2958984375 55.0436197916667  C 31.6954210069445 57.6812065972222  27.7634548611111 59  23.5 59  C 19.2365451388889 59  15.3045789930556 57.6812065972222  11.7041015625 55.0436197916667  C 8.10362413194444 52.4060329861111  5.25282118055556 48.8273654513889  3.15169270833333 44.3076171875  C 1.05056423611111 39.7878689236111  0 34.8519965277778  0 29.5  C 0 24.1480034722222  1.05056423611111 19.2121310763889  3.15169270833333 14.6923828125  C 5.25282118055556 10.1726345486111  8.10362413194444 6.59396701388888  11.7041015625 3.95638020833333  C 15.3045789930556 1.31879340277777  19.2365451388889 0  23.5 0  C 27.7634548611111 0  31.6954210069445 1.31879340277777  35.2958984375 3.95638020833333  C 38.8963758680556 6.59396701388888  41.7471788194445 10.1726345486111  43.8483072916667 14.6923828125  Z " stroke-width="2" stroke="#000000" fill="none" transform="matrix(1 0 0 1 0 318 )" mask="url(#clip12)" />
  </g>
</svg>