<?xml version="1.0" encoding="utf-8"?>
<svg version="1.1" xmlns:xlink="http://www.w3.org/1999/xlink" width="43px" height="63px" xmlns="http://www.w3.org/2000/svg">
  <defs>
    <mask fill="white" id="clip18">
      <path d="M 9.7001953125 45.931640625  C 10.4000651041667 45.052734375  10.75 43.9921875  10.75 42.75  C 10.75 41.5078125  10.4000651041667 40.447265625  9.7001953125 39.568359375  C 9.00032552083333 38.689453125  8.15581597222222 38.25  7.16666666666667 38.25  C 6.17751736111111 38.25  5.3330078125 38.689453125  4.63313802083333 39.568359375  C 3.93326822916667 40.447265625  3.58333333333333 41.5078125  3.58333333333333 42.75  C 3.58333333333333 43.9921875  3.93326822916667 45.052734375  4.63313802083333 45.931640625  C 5.3330078125 46.810546875  6.17751736111111 47.25  7.16666666666667 47.25  C 8.15581597222222 47.25  9.00032552083333 46.810546875  9.7001953125 45.931640625  Z M 38.3668619791667 45.931640625  C 39.0667317708333 45.052734375  39.4166666666667 43.9921875  39.4166666666667 42.75  C 39.4166666666667 41.5078125  39.0667317708333 40.447265625  38.3668619791667 39.568359375  C 37.6669921875 38.689453125  36.8224826388889 38.25  35.8333333333333 38.25  C 34.8441840277778 38.25  33.9996744791667 38.689453125  33.2998046875 39.568359375  C 32.5999348958333 40.447265625  32.25 41.5078125  32.25 42.75  C 32.25 43.9921875  32.5999348958333 45.052734375  33.2998046875 45.931640625  C 33.9996744791667 46.810546875  34.8441840277778 47.25  35.8333333333333 47.25  C 36.8224826388889 47.25  37.6669921875 46.810546875  38.3668619791667 45.931640625  Z M 37.7369791666667 30.69140625  C 38.0915798611111 30.15234375  38.2222222222222 29.53125  38.12890625 28.828125  L 36.11328125 15.328125  C 36.0199652777778 14.7890625  35.8100043402778 14.349609375  35.4833984375 14.009765625  C 35.1567925347222 13.669921875  34.7788628472222 13.5  34.349609375 14  L 8.650390625 14  C 8.22113715277778 13.5  7.84320746527778 13.669921875  7.5166015625 14.009765625  C 7.18999565972222 14.349609375  6.98003472222222 14.7890625  6.88671875 15.328125  L 4.87109375 28.828125  C 4.77777777777778 29.53125  4.90842013888889 30.15234375  5.26302083333333 30.69140625  C 5.61762152777778 31.23046875  6.07486979166667 31.5  6.634765625 31  L 36.365234375 31  C 36.9251302083333 31.5  37.3823784722222 31.23046875  37.7369791666667 30.69140625  Z M 31.41015625 8.5078125  C 31.6714409722222 8.17968749999999  31.8020833333333 7.78125  31.8020833333333 7.3125  C 31.8020833333333 6.84375  31.6714409722222 6.4453125  31.41015625 6.1171875  C 31.1488715277778 5.78906249999999  30.8315972222222 5.625  30.4583333333333 6  L 12.5416666666667 6  C 12.1684027777778 5.625  11.8511284722222 5.78906249999999  11.58984375 6.1171875  C 11.3285590277778 6.4453125  11.1979166666667 6.84375  11.1979166666667 7.3125  C 11.1979166666667 7.78125  11.3285590277778 8.17968749999999  11.58984375 8.5078125  C 11.8511284722222 8.8359375  12.1684027777778 9  12.5416666666667 9  L 30.4583333333333 9  C 30.8315972222222 9  31.1488715277778 8.8359375  31.41015625 8.5078125  Z M 42.3561197916667 24.9609375  C 42.7853732638889 27.3515625  43 29.96484375  43 32.80078125  L 43 54  L 39.4166666666667 54  L 39.4166666666667 58.5  C 39.4166666666667 59.7421875  39.0667317708333 60.802734375  38.3668619791667 61.681640625  C 37.6669921875 62.560546875  36.8224826388889 63  35.8333333333333 63  C 34.8441840277778 63  33.9996744791667 62.560546875  33.2998046875 61.681640625  C 32.5999348958333 60.802734375  32.25 59.7421875  32.25 58.5  L 32.25 54  L 10.75 54  L 10.75 58.5  C 10.75 59.7421875  10.4000651041667 60.802734375  9.7001953125 61.681640625  C 9.00032552083333 62.560546875  8.15581597222222 63  7.16666666666667 63  C 6.17751736111111 63  5.3330078125 62.560546875  4.63313802083333 61.681640625  C 3.93326822916667 60.802734375  3.58333333333333 59.7421875  3.58333333333333 58.5  L 3.58333333333333 54  L 0 54  L 0 32.80078125  C 0 30.17578125  0.233289930555555 27.5625  0.699869791666667 24.9609375  L 3.58333333333333 9  C 3.75130208333333 7.171875  4.6611328125 5.56640625  6.31282552083333 4.18359375  C 7.96451822916667 2.80078124999999  10.1107855902778 1.7578125  12.7516276041667 1.0546875  C 15.3924696180556 0.351562499999997  18.30859375 0  21.5 0  C 24.69140625 0  27.6075303819444 0.351562499999997  30.2483723958333 1.0546875  C 32.8892144097222 1.7578125  35.0354817708333 2.80078124999999  36.6871744791667 4.18359375  C 38.3388671875 5.56640625  39.2486979166667 7.171875  39.4166666666667 9  L 42.3561197916667 24.9609375  Z " fill-rule="evenodd" />
    </mask>
  </defs>
  <g transform="matrix(1 0 0 1 -384 -318 )">
    <path d="M 9.7001953125 45.931640625  C 10.4000651041667 45.052734375  10.75 43.9921875  10.75 42.75  C 10.75 41.5078125  10.4000651041667 40.447265625  9.7001953125 39.568359375  C 9.00032552083333 38.689453125  8.15581597222222 38.25  7.16666666666667 38.25  C 6.17751736111111 38.25  5.3330078125 38.689453125  4.63313802083333 39.568359375  C 3.93326822916667 40.447265625  3.58333333333333 41.5078125  3.58333333333333 42.75  C 3.58333333333333 43.9921875  3.93326822916667 45.052734375  4.63313802083333 45.931640625  C 5.3330078125 46.810546875  6.17751736111111 47.25  7.16666666666667 47.25  C 8.15581597222222 47.25  9.00032552083333 46.810546875  9.7001953125 45.931640625  Z M 38.3668619791667 45.931640625  C 39.0667317708333 45.052734375  39.4166666666667 43.9921875  39.4166666666667 42.75  C 39.4166666666667 41.5078125  39.0667317708333 40.447265625  38.3668619791667 39.568359375  C 37.6669921875 38.689453125  36.8224826388889 38.25  35.8333333333333 38.25  C 34.8441840277778 38.25  33.9996744791667 38.689453125  33.2998046875 39.568359375  C 32.5999348958333 40.447265625  32.25 41.5078125  32.25 42.75  C 32.25 43.9921875  32.5999348958333 45.052734375  33.2998046875 45.931640625  C 33.9996744791667 46.810546875  34.8441840277778 47.25  35.8333333333333 47.25  C 36.8224826388889 47.25  37.6669921875 46.810546875  38.3668619791667 45.931640625  Z M 37.7369791666667 30.69140625  C 38.0915798611111 30.15234375  38.2222222222222 29.53125  38.12890625 28.828125  L 36.11328125 15.328125  C 36.0199652777778 14.7890625  35.8100043402778 14.349609375  35.4833984375 14.009765625  C 35.1567925347222 13.669921875  34.7788628472222 13.5  34.349609375 14  L 8.650390625 14  C 8.22113715277778 13.5  7.84320746527778 13.669921875  7.5166015625 14.009765625  C 7.18999565972222 14.349609375  6.98003472222222 14.7890625  6.88671875 15.328125  L 4.87109375 28.828125  C 4.77777777777778 29.53125  4.90842013888889 30.15234375  5.26302083333333 30.69140625  C 5.61762152777778 31.23046875  6.07486979166667 31.5  6.634765625 31  L 36.365234375 31  C 36.9251302083333 31.5  37.3823784722222 31.23046875  37.7369791666667 30.69140625  Z M 31.41015625 8.5078125  C 31.6714409722222 8.17968749999999  31.8020833333333 7.78125  31.8020833333333 7.3125  C 31.8020833333333 6.84375  31.6714409722222 6.4453125  31.41015625 6.1171875  C 31.1488715277778 5.78906249999999  30.8315972222222 5.625  30.4583333333333 6  L 12.5416666666667 6  C 12.1684027777778 5.625  11.8511284722222 5.78906249999999  11.58984375 6.1171875  C 11.3285590277778 6.4453125  11.1979166666667 6.84375  11.1979166666667 7.3125  C 11.1979166666667 7.78125  11.3285590277778 8.17968749999999  11.58984375 8.5078125  C 11.8511284722222 8.8359375  12.1684027777778 9  12.5416666666667 9  L 30.4583333333333 9  C 30.8315972222222 9  31.1488715277778 8.8359375  31.41015625 8.5078125  Z M 42.3561197916667 24.9609375  C 42.7853732638889 27.3515625  43 29.96484375  43 32.80078125  L 43 54  L 39.4166666666667 54  L 39.4166666666667 58.5  C 39.4166666666667 59.7421875  39.0667317708333 60.802734375  38.3668619791667 61.681640625  C 37.6669921875 62.560546875  36.8224826388889 63  35.8333333333333 63  C 34.8441840277778 63  33.9996744791667 62.560546875  33.2998046875 61.681640625  C 32.5999348958333 60.802734375  32.25 59.7421875  32.25 58.5  L 32.25 54  L 10.75 54  L 10.75 58.5  C 10.75 59.7421875  10.4000651041667 60.802734375  9.7001953125 61.681640625  C 9.00032552083333 62.560546875  8.15581597222222 63  7.16666666666667 63  C 6.17751736111111 63  5.3330078125 62.560546875  4.63313802083333 61.681640625  C 3.93326822916667 60.802734375  3.58333333333333 59.7421875  3.58333333333333 58.5  L 3.58333333333333 54  L 0 54  L 0 32.80078125  C 0 30.17578125  0.233289930555555 27.5625  0.699869791666667 24.9609375  L 3.58333333333333 9  C 3.75130208333333 7.171875  4.6611328125 5.56640625  6.31282552083333 4.18359375  C 7.96451822916667 2.80078124999999  10.1107855902778 1.7578125  12.7516276041667 1.0546875  C 15.3924696180556 0.351562499999997  18.30859375 0  21.5 0  C 24.69140625 0  27.6075303819444 0.351562499999997  30.2483723958333 1.0546875  C 32.8892144097222 1.7578125  35.0354817708333 2.80078124999999  36.6871744791667 4.18359375  C 38.3388671875 5.56640625  39.2486979166667 7.171875  39.4166666666667 9  L 42.3561197916667 24.9609375  Z " fill-rule="nonzero" fill="#000000" stroke="none" transform="matrix(1 0 0 1 384 318 )" />
    <path d="M 9.7001953125 45.931640625  C 10.4000651041667 45.052734375  10.75 43.9921875  10.75 42.75  C 10.75 41.5078125  10.4000651041667 40.447265625  9.7001953125 39.568359375  C 9.00032552083333 38.689453125  8.15581597222222 38.25  7.16666666666667 38.25  C 6.17751736111111 38.25  5.3330078125 38.689453125  4.63313802083333 39.568359375  C 3.93326822916667 40.447265625  3.58333333333333 41.5078125  3.58333333333333 42.75  C 3.58333333333333 43.9921875  3.93326822916667 45.052734375  4.63313802083333 45.931640625  C 5.3330078125 46.810546875  6.17751736111111 47.25  7.16666666666667 47.25  C 8.15581597222222 47.25  9.00032552083333 46.810546875  9.7001953125 45.931640625  Z " stroke-width="2" stroke="#000000" fill="none" transform="matrix(1 0 0 1 384 318 )" mask="url(#clip18)" />
    <path d="M 38.3668619791667 45.931640625  C 39.0667317708333 45.052734375  39.4166666666667 43.9921875  39.4166666666667 42.75  C 39.4166666666667 41.5078125  39.0667317708333 40.447265625  38.3668619791667 39.568359375  C 37.6669921875 38.689453125  36.8224826388889 38.25  35.8333333333333 38.25  C 34.8441840277778 38.25  33.9996744791667 38.689453125  33.2998046875 39.568359375  C 32.5999348958333 40.447265625  32.25 41.5078125  32.25 42.75  C 32.25 43.9921875  32.5999348958333 45.052734375  33.2998046875 45.931640625  C 33.9996744791667 46.810546875  34.8441840277778 47.25  35.8333333333333 47.25  C 36.8224826388889 47.25  37.6669921875 46.810546875  38.3668619791667 45.931640625  Z " stroke-width="2" stroke="#000000" fill="none" transform="matrix(1 0 0 1 384 318 )" mask="url(#clip18)" />
    <path d="M 37.7369791666667 30.69140625  C 38.0915798611111 30.15234375  38.2222222222222 29.53125  38.12890625 28.828125  L 36.11328125 15.328125  C 36.0199652777778 14.7890625  35.8100043402778 14.349609375  35.4833984375 14.009765625  C 35.1567925347222 13.669921875  34.7788628472222 13.5  34.349609375 14  L 8.650390625 14  C 8.22113715277778 13.5  7.84320746527778 13.669921875  7.5166015625 14.009765625  C 7.18999565972222 14.349609375  6.98003472222222 14.7890625  6.88671875 15.328125  L 4.87109375 28.828125  C 4.77777777777778 29.53125  4.90842013888889 30.15234375  5.26302083333333 30.69140625  C 5.61762152777778 31.23046875  6.07486979166667 31.5  6.634765625 31  L 36.365234375 31  C 36.9251302083333 31.5  37.3823784722222 31.23046875  37.7369791666667 30.69140625  Z " stroke-width="2" stroke="#000000" fill="none" transform="matrix(1 0 0 1 384 318 )" mask="url(#clip18)" />
    <path d="M 31.41015625 8.5078125  C 31.6714409722222 8.17968749999999  31.8020833333333 7.78125  31.8020833333333 7.3125  C 31.8020833333333 6.84375  31.6714409722222 6.4453125  31.41015625 6.1171875  C 31.1488715277778 5.78906249999999  30.8315972222222 5.625  30.4583333333333 6  L 12.5416666666667 6  C 12.1684027777778 5.625  11.8511284722222 5.78906249999999  11.58984375 6.1171875  C 11.3285590277778 6.4453125  11.1979166666667 6.84375  11.1979166666667 7.3125  C 11.1979166666667 7.78125  11.3285590277778 8.17968749999999  11.58984375 8.5078125  C 11.8511284722222 8.8359375  12.1684027777778 9  12.5416666666667 9  L 30.4583333333333 9  C 30.8315972222222 9  31.1488715277778 8.8359375  31.41015625 8.5078125  Z " stroke-width="2" stroke="#000000" fill="none" transform="matrix(1 0 0 1 384 318 )" mask="url(#clip18)" />
    <path d="M 42.3561197916667 24.9609375  C 42.7853732638889 27.3515625  43 29.96484375  43 32.80078125  L 43 54  L 39.4166666666667 54  L 39.4166666666667 58.5  C 39.4166666666667 59.7421875  39.0667317708333 60.802734375  38.3668619791667 61.681640625  C 37.6669921875 62.560546875  36.8224826388889 63  35.8333333333333 63  C 34.8441840277778 63  33.9996744791667 62.560546875  33.2998046875 61.681640625  C 32.5999348958333 60.802734375  32.25 59.7421875  32.25 58.5  L 32.25 54  L 10.75 54  L 10.75 58.5  C 10.75 59.7421875  10.4000651041667 60.802734375  9.7001953125 61.681640625  C 9.00032552083333 62.560546875  8.15581597222222 63  7.16666666666667 63  C 6.17751736111111 63  5.3330078125 62.560546875  4.63313802083333 61.681640625  C 3.93326822916667 60.802734375  3.58333333333333 59.7421875  3.58333333333333 58.5  L 3.58333333333333 54  L 0 54  L 0 32.80078125  C 0 30.17578125  0.233289930555555 27.5625  0.699869791666667 24.9609375  L 3.58333333333333 9  C 3.75130208333333 7.171875  4.6611328125 5.56640625  6.31282552083333 4.18359375  C 7.96451822916667 2.80078124999999  10.1107855902778 1.7578125  12.7516276041667 1.0546875  C 15.3924696180556 0.351562499999997  18.30859375 0  21.5 0  C 24.69140625 0  27.6075303819444 0.351562499999997  30.2483723958333 1.0546875  C 32.8892144097222 1.7578125  35.0354817708333 2.80078124999999  36.6871744791667 4.18359375  C 38.3388671875 5.56640625  39.2486979166667 7.171875  39.4166666666667 9  L 42.3561197916667 24.9609375  Z " stroke-width="2" stroke="#000000" fill="none" transform="matrix(1 0 0 1 384 318 )" mask="url(#clip18)" />
  </g>
</svg>