<?xml version="1.0" encoding="utf-8"?>
<svg version="1.1" xmlns:xlink="http://www.w3.org/1999/xlink" width="32px" height="59px" xmlns="http://www.w3.org/2000/svg">
  <defs>
    <mask fill="white" id="clip30">
      <path d="M 21.65625 26.619140625  C 21.65625 26.619140625  24 22.3810763888889  24 19.6666666666667  C 24 16.9522569444445  23.21875 14.634765625  21.65625 12.7141927083333  C 20.09375 10.7936197916667  18.2083333333333 9.8333333333333  16 9.8333333333333  C 13.7916666666667 9.8333333333333  11.90625 10.7936197916667  10.34375 12.7141927083333  C 8.78125 14.634765625  8 16.9522569444445  8 19.6666666666667  C 8 22.3810763888889  8.78125 24.6985677083333  10.34375 26.619140625  C 11.90625 28.5397135416667  13.7916666666667 29.5  16 29.5  C 16.1352485327104 29.5  16.2751466226435 29.489194175047  16.4186174449134 29.4689061223964  C 18.6177332136419 29.1579315577104  21.65625 26.619140625  21.65625 26.619140625  Z M 27.3125 5.76171875  C 30.4375 9.6028645833333  32 14.2378472222222  32 19.6666666666667  C 32 22.4578993055555  31.65625 24.7497829861111  30.96875 26.5423177083333  L 24.3018327124191 43.9674232975429  L 19.59375 56.2727864583333  C 19.2604166666667 57.1178385416667  18.765625 57.7836371527778  18.109375 58.2701822916667  C 17.453125 58.7567274305555  16.75 59  16 59  C 15.25 59  14.546875 58.7567274305555  13.890625 58.2701822916667  C 13.234375 57.7836371527778  12.75 57.1178385416667  12.4375 56.2727864583333  L 1.03125 26.5423177083333  C 0.34375 24.7497829861111  0 22.4578993055555  0 19.6666666666667  C 0 14.2378472222222  1.5625 9.6028645833333  4.6875 5.76171875  C 7.8125 1.9205729166667  11.5833333333333 0  16 0  C 20.4166666666667 0  24.1875 1.9205729166667  27.3125 5.76171875  Z " fill-rule="evenodd" />
    </mask>
  </defs>
  <g transform="matrix(1 0 0 1 -474 -321 )">
    <path d="M 21.65625 26.619140625  C 21.65625 26.619140625  24 22.3810763888889  24 19.6666666666667  C 24 16.9522569444445  23.21875 14.634765625  21.65625 12.7141927083333  C 20.09375 10.7936197916667  18.2083333333333 9.8333333333333  16 9.8333333333333  C 13.7916666666667 9.8333333333333  11.90625 10.7936197916667  10.34375 12.7141927083333  C 8.78125 14.634765625  8 16.9522569444445  8 19.6666666666667  C 8 22.3810763888889  8.78125 24.6985677083333  10.34375 26.619140625  C 11.90625 28.5397135416667  13.7916666666667 29.5  16 29.5  C 16.1352485327104 29.5  16.2751466226435 29.489194175047  16.4186174449134 29.4689061223964  C 18.6177332136419 29.1579315577104  21.65625 26.619140625  21.65625 26.619140625  Z M 27.3125 5.76171875  C 30.4375 9.6028645833333  32 14.2378472222222  32 19.6666666666667  C 32 22.4578993055555  31.65625 24.7497829861111  30.96875 26.5423177083333  L 24.3018327124191 43.9674232975429  L 19.59375 56.2727864583333  C 19.2604166666667 57.1178385416667  18.765625 57.7836371527778  18.109375 58.2701822916667  C 17.453125 58.7567274305555  16.75 59  16 59  C 15.25 59  14.546875 58.7567274305555  13.890625 58.2701822916667  C 13.234375 57.7836371527778  12.75 57.1178385416667  12.4375 56.2727864583333  L 1.03125 26.5423177083333  C 0.34375 24.7497829861111  0 22.4578993055555  0 19.6666666666667  C 0 14.2378472222222  1.5625 9.6028645833333  4.6875 5.76171875  C 7.8125 1.9205729166667  11.5833333333333 0  16 0  C 20.4166666666667 0  24.1875 1.9205729166667  27.3125 5.76171875  Z " fill-rule="nonzero" fill="#000000" stroke="none" transform="matrix(1 0 0 1 474 321 )" />
    <path d="M 21.65625 26.619140625  C 21.65625 26.619140625  24 22.3810763888889  24 19.6666666666667  C 24 16.9522569444445  23.21875 14.634765625  21.65625 12.7141927083333  C 20.09375 10.7936197916667  18.2083333333333 9.8333333333333  16 9.8333333333333  C 13.7916666666667 9.8333333333333  11.90625 10.7936197916667  10.34375 12.7141927083333  C 8.78125 14.634765625  8 16.9522569444445  8 19.6666666666667  C 8 22.3810763888889  8.78125 24.6985677083333  10.34375 26.619140625  C 11.90625 28.5397135416667  13.7916666666667 29.5  16 29.5  C 16.1352485327104 29.5  16.2751466226435 29.489194175047  16.4186174449134 29.4689061223964  C 18.6177332136419 29.1579315577104  21.65625 26.619140625  21.65625 26.619140625  Z " stroke-width="2" stroke="#000000" fill="none" transform="matrix(1 0 0 1 474 321 )" mask="url(#clip30)" />
    <path d="M 27.3125 5.76171875  C 30.4375 9.6028645833333  32 14.2378472222222  32 19.6666666666667  C 32 22.4578993055555  31.65625 24.7497829861111  30.96875 26.5423177083333  L 24.3018327124191 43.9674232975429  L 19.59375 56.2727864583333  C 19.2604166666667 57.1178385416667  18.765625 57.7836371527778  18.109375 58.2701822916667  C 17.453125 58.7567274305555  16.75 59  16 59  C 15.25 59  14.546875 58.7567274305555  13.890625 58.2701822916667  C 13.234375 57.7836371527778  12.75 57.1178385416667  12.4375 56.2727864583333  L 1.03125 26.5423177083333  C 0.34375 24.7497829861111  0 22.4578993055555  0 19.6666666666667  C 0 14.2378472222222  1.5625 9.6028645833333  4.6875 5.76171875  C 7.8125 1.9205729166667  11.5833333333333 0  16 0  C 20.4166666666667 0  24.1875 1.9205729166667  27.3125 5.76171875  Z " stroke-width="2" stroke="#000000" fill="none" transform="matrix(1 0 0 1 474 321 )" mask="url(#clip30)" />
  </g>
</svg>