<?xml version="1.0" encoding="utf-8"?>
<svg version="1.1" xmlns:xlink="http://www.w3.org/1999/xlink" width="53px" height="74px" xmlns="http://www.w3.org/2000/svg">
  <g transform="matrix(1 0 0 1 -685 -199 )">
    <path d="M 51.7578125 59.5153409090909  C 52.5859375 60.6225378787879  53 61.8628787878788  53 63.2363636363636  C 53 65.0022727272727  52.2283380681818 66.5929924242424  50.6850142045455 68.0085227272727  C 49.1416903409091 69.424053030303  47.0839251893939 70.5592803030303  44.51171875 71.4142045454546  C 41.9395123106061 72.2691287878788  39.1163589015152 72.9138257575758  36.0422585227273 73.3482954545455  C 32.9681581439394 73.7827651515152  29.7874053030303 74  26.5 74  C 23.2125946969697 74  20.0318418560606 73.7827651515152  16.9577414772727 73.3482954545455  C 13.8836410984848 72.9138257575758  11.0604876893939 72.2691287878788  8.48828125 71.4142045454546  C 5.91607481060606 70.5592803030303  3.85830965909091 69.424053030303  2.31498579545455 68.0085227272727  C 0.771661931818182 66.5929924242424  0 65.0022727272727  0 63.2363636363636  C 0 61.8628787878788  0.4140625 60.6225378787879  1.2421875 59.5153409090909  C 2.0703125 58.4081439393939  3.21212121212121 57.4761363636364  4.66761363636364 56.7193181818182  C 6.12310606060606 55.9625  7.60369318181818 55.3388257575758  9.109375 54.8482954545455  C 10.6150568181818 54.3577651515151  12.258759469697 53.9443181818182  14.0404829545455 53.6079545454545  C 14.6929450757576 53.467803030303  15.2952178030303 53.6149621212121  15.8473011363636 54.0494318181818  C 16.399384469697 54.4839015151515  16.725615530303 55.0655303030303  16.8259943181818 55.7943181818182  C 16.9514678030303 56.5231060606061  16.8197206439394 57.1958333333333  16.4307528409091 57.8125  C 16.0417850378788 58.4291666666667  15.5210700757576 58.7935606060606  14.8686079545455 58.9056818181818  C 13.413115530303 59.1859848484849  12.0830965909091 59.5153409090909  10.8785511363636 59.89375  C 9.67400568181818 60.2721590909091  8.71413352272727 60.6295454545455  7.99893465909091 60.9659090909091  C 7.28373579545455 61.3022727272727  6.67518939393939 61.6316287878788  6.17329545454545 61.9539772727273  C 5.67140151515152 62.2763257575758  5.32634943181818 62.5496212121212  5.13813920454545 62.7738636363636  C 4.94992897727273 62.9981060606061  4.84327651515152 63.1662878787879  4.81818181818182 63.2784090909091  C 4.89346590909091 63.5867424242424  5.23224431818182 63.9581439393939  5.83451704545455 64.3926136363636  C 6.43678977272727 64.8270833333333  7.35274621212121 65.2895833333333  8.58238636363636 65.7801136363636  C 9.81202651515152 66.2706439393939  11.2424242424242 66.7261363636364  12.8735795454545 67.1465909090909  C 14.5047348484848 67.5670454545455  16.518584280303 67.9174242424242  18.9151278409091 68.1977272727273  C 21.3116714015152 68.4780303030303  23.8399621212121 68.6181818181818  26.5 68.6181818181818  C 29.1600378787879 68.6181818181818  31.6883285984849 68.4780303030303  34.0848721590909 68.1977272727273  C 36.481415719697 67.9174242424242  38.4952651515152 67.5670454545455  40.1264204545455 67.1465909090909  C 41.7575757575758 66.7261363636364  43.1879734848485 66.2636363636364  44.4176136363636 65.7590909090909  C 45.6472537878788 65.2545454545455  46.5632102272727 64.7850378787879  47.1654829545455 64.3505681818182  C 47.7677556818182 63.9160984848485  48.1065340909091 63.5306818181818  48.1818181818182 63.1943181818182  C 48.1567234848485 63.082196969697  48.0500710227273 62.9280303030303  47.8618607954545 62.7318181818182  C 47.6736505681818 62.5356060606061  47.3285984848485 62.2693181818182  46.8267045454545 61.9329545454545  C 46.3248106060606 61.5965909090909  45.7162642045455 61.2672348484849  45.0010653409091 60.9448863636364  C 44.2858664772727 60.6225378787879  43.3259943181818 60.2721590909091  42.1214488636364 59.89375  C 40.9169034090909 59.5153409090909  39.586884469697 59.1859848484849  38.1313920454545 58.9056818181818  C 37.4789299242424 58.7935606060606  36.9582149621212 58.4291666666667  36.5692471590909 57.8125  C 36.1802793560606 57.1958333333333  36.0485321969697 56.5231060606061  36.1740056818182 55.7943181818182  C 36.274384469697 55.0655303030303  36.600615530303 54.4839015151515  37.1526988636364 54.0494318181818  C 37.7047821969697 53.6149621212121  38.3070549242424 53.467803030303  38.9595170454545 53.6079545454545  C 40.741240530303 53.9443181818182  42.3849431818182 54.3577651515151  43.890625 54.8482954545455  C 45.3963068181818 55.3388257575758  46.8768939393939 55.9625  48.3323863636364 56.7193181818182  C 49.7878787878788 57.4761363636364  50.9296875 58.4081439393939  51.7578125 59.5153409090909  Z M 37.1338778409091 21.7585227272727  C 38.0749289772727 22.8096590909091  38.5454545454545 24.0780303030303  38 25.5636363636364  L 38 41.7090909090909  C 38.5454545454545 42.4378787878788  38.3070549242424 43.0685606060606  37.8302556818182 43.6011363636364  C 37.3534564393939 44.1337121212121  36.7888257575758 44.4  36.1363636363636 44.4  L 33 44.4  L 33 60.5454545454545  C 33.7272727272727 61.2742424242424  33.4888731060606 61.9049242424242  33.0120738636364 62.4375  C 32.5352746212121 62.9700757575758  31.9706439393939 63.2363636363636  31.3181818181818 63.2363636363636  L 21.6818181818182 63.2363636363636  C 21.0293560606061 63.2363636363636  20.4647253787879 62.9700757575758  19.9879261363636 62.4375  C 19.5111268939394 61.9049242424242  19.2727272727273 61.2742424242424  20 60.5454545454545  L 20 44.4  L 16.8636363636364 44.4  C 16.2111742424242 44.4  15.6465435606061 44.1337121212121  15.1697443181818 43.6011363636364  C 14.6929450757576 43.0685606060606  14.4545454545455 42.4378787878788  15 41.7090909090909  L 15 25.5636363636364  C 14.4545454545455 24.0780303030303  14.9250710227273 22.8096590909091  15.8661221590909 21.7585227272727  C 16.8071732954545 20.7073863636364  17.9427083333333 20.1818181818182  19.2727272727273 21  L 33.7272727272727 21  C 35.0572916666667 20.1818181818182  36.1928267045455 20.7073863636364  37.1338778409091 21.7585227272727  Z M 32.4662642045455 2.75397727272727  C 34.1099668560606 4.58996212121211  34.9318181818182 6.81136363636364  34.9318181818182 9.41818181818182  C 34.9318181818182 12.025  34.1099668560606 14.2464015151515  32.4662642045455 16.0823863636364  C 30.8225615530303 17.9183712121212  28.8338068181818 18.8363636363636  26.5 18.8363636363636  C 24.1661931818182 18.8363636363636  22.1774384469697 17.9183712121212  20.5337357954545 16.0823863636364  C 18.8900331439394 14.2464015151515  18.0681818181818 12.025  18.0681818181818 9.41818181818182  C 18.0681818181818 6.81136363636364  18.8900331439394 4.58996212121211  20.5337357954545 2.75397727272727  C 22.1774384469697 0.917992424242419  24.1661931818182 0  26.5 0  C 28.8338068181818 0  30.8225615530303 0.917992424242419  32.4662642045455 2.75397727272727  Z " fill-rule="nonzero" fill="#000000" stroke="none" transform="matrix(1 0 0 1 685 199 )" />
  </g>
</svg>